SplineFontDB: 3.2
FontName: Round_Pop
FullName: Round Pop Regular
FamilyName: Round Pop
Weight: Book
Copyright: GomaShin
Version: Ver.1 Gomarice Font 2019/10/27
ItalicAngle: 0
UnderlinePosition: -336
UnderlineWidth: 96
Ascent: 1788
Descent: 260
InvalidEm: 0
sfntRevision: 0x0008e666
LayerCount: 2
Layer: 0 1 "Back" 1
Layer: 1 1 "Fore" 0
XUID: [1021 812 755101557 16838]
StyleMap: 0x0040
FSType: 4
OS2Version: 1
OS2_WeightWidthSlopeOnly: 0
OS2_UseTypoMetrics: 0
CreationTime: -2082844800
ModificationTime: 1642608237
PfmFamily: 17
TTFWeight: 400
TTFWidth: 5
LineGap: 0
VLineGap: 0
Panose: 2 11 6 0 0 0 0 0 0 0
OS2TypoAscent: 1788
OS2TypoAOffset: 0
OS2TypoDescent: -260
OS2TypoDOffset: 0
OS2TypoLinegap: 0
OS2WinAscent: 2246
OS2WinAOffset: 0
OS2WinDescent: 508
OS2WinDOffset: 0
HheadAscent: 2246
HheadAOffset: 0
HheadDescent: -508
HheadDOffset: 0
OS2SubXSize: 1024
OS2SubYSize: 1024
OS2SubXOff: 0
OS2SubYOff: 736
OS2SupXSize: 1024
OS2SupYSize: 1024
OS2SupXOff: 0
OS2SupYOff: 880
OS2StrikeYSize: 104
OS2StrikeYPos: 528
OS2Vendor: 'Take'
OS2CodePages: 40000001.00000000
OS2UnicodeRanges: 8000002f.0000004a.00000000.00000000
Lookup: 258 0 0 "'kern' Horizontal Kerning in Latin lookup 0" { "'kern' Horizontal Kerning in Latin lookup 0 subtable"  } ['kern' ('DFLT' <'dflt' > 'latn' <'dflt' > ) ]
MarkAttachClasses: 1
DEI: 91125
TtTable: prep
PUSHW_1
 511
SCANCTRL
PUSHB_1
 1
SCANTYPE
SVTCA[y-axis]
MPPEM
PUSHB_1
 8
LT
IF
PUSHB_2
 1
 1
INSTCTRL
EIF
PUSHB_2
 70
 6
CALL
IF
POP
PUSHB_1
 16
EIF
MPPEM
PUSHB_1
 20
GT
IF
POP
PUSHB_1
 128
EIF
SCVTCI
PUSHB_1
 6
CALL
NOT
IF
SVTCA[y-axis]
PUSHB_1
 3
DUP
RCVT
PUSHB_1
 3
CALL
WCVTP
PUSHB_1
 4
DUP
RCVT
PUSHW_3
 3
 1001
 2
CALL
PUSHB_1
 3
CALL
WCVTP
PUSHB_1
 5
DUP
RCVT
PUSHW_3
 3
 292
 2
CALL
PUSHB_1
 3
CALL
WCVTP
PUSHB_1
 6
DUP
RCVT
PUSHB_3
 5
 141
 2
CALL
PUSHB_1
 3
CALL
WCVTP
SVTCA[x-axis]
PUSHB_1
 7
DUP
RCVT
PUSHB_1
 3
CALL
WCVTP
PUSHB_1
 10
DUP
RCVT
PUSHW_3
 7
 256
 2
CALL
PUSHB_2
 3
 70
SROUND
CALL
WCVTP
PUSHB_1
 9
DUP
RCVT
PUSHB_3
 10
 150
 2
CALL

StartChar: .notdef
Encoding: 65536 -1 0
Width: 748
Flags: W
LayerCount: 2
Fore
SplineSet
68 0 m 1,0,-1
 68 1365 l 1,1,-1
 612 1365 l 1,2,-1
 612 0 l 1,3,-1
 68 0 l 1,0,-1
136 68 m 1,4,-1
 544 68 l 1,5,-1
 544 1297 l 1,6,-1
 136 1297 l 1,7,-1
 136 68 l 1,4,-1
EndSplineSet
Validated: 1
EndChar

StartChar: exclam
Encoding: 33 33 4
Width: 604
GlyphClass: 2
Flags: W
LayerCount: 2
Fore
SplineSet
88 1516 m 2,0,1
 90 1582 90 1582 136 1627 c 128,-1,2
 182 1672 182 1672 240 1676 c 1,3,-1
 364 1676 l 1,4,5
 422 1672 422 1672 468 1627 c 128,-1,6
 514 1582 514 1582 516 1516 c 2,7,-1
 496 672 l 2,8,9
 494 606 494 606 448 561 c 128,-1,10
 402 516 402 516 346 512 c 1,11,-1
 260 512 l 1,12,13
 202 516 202 516 156 561 c 128,-1,14
 110 606 110 606 108 672 c 2,15,-1
 88 1516 l 2,0,1
100 204 m 256,16,17
 100 290 100 290 160 349 c 128,-1,18
 220 408 220 408 306 408 c 256,19,20
 392 408 392 408 452 349 c 128,-1,21
 512 290 512 290 512 204 c 256,22,23
 512 118 512 118 452 59 c 128,-1,24
 392 0 392 0 306 0 c 256,25,26
 220 0 220 0 160 59 c 128,-1,27
 100 118 100 118 100 204 c 256,16,17
EndSplineSet
Validated: 1
EndChar

StartChar: quotedbl
Encoding: 34 34 5
Width: 838
GlyphClass: 2
Flags: W
LayerCount: 2
Fore
SplineSet
80 1396 m 2,0,-1
 80 1616 l 2,1,2
 82 1682 82 1682 122 1727 c 128,-1,3
 162 1772 162 1772 214 1776 c 1,4,-1
 252 1776 l 1,5,6
 304 1772 304 1772 344 1727 c 128,-1,7
 384 1682 384 1682 386 1616 c 2,8,-1
 386 1396 l 2,9,10
 384 1330 384 1330 344 1285 c 128,-1,11
 304 1240 304 1240 252 1236 c 1,12,-1
 212 1236 l 1,13,14
 162 1240 162 1240 122 1285 c 128,-1,15
 82 1330 82 1330 80 1396 c 2,0,-1
452 1396 m 2,16,-1
 452 1616 l 2,17,18
 454 1682 454 1682 494 1727 c 128,-1,19
 534 1772 534 1772 586 1776 c 1,20,-1
 624 1776 l 1,21,22
 676 1772 676 1772 716 1727 c 128,-1,23
 756 1682 756 1682 758 1616 c 2,24,-1
 758 1396 l 2,25,26
 756 1330 756 1330 716 1285 c 128,-1,27
 676 1240 676 1240 624 1236 c 1,28,-1
 584 1236 l 1,29,30
 534 1240 534 1240 494 1285 c 128,-1,31
 454 1330 454 1330 452 1396 c 2,16,-1
EndSplineSet
Validated: 1
EndChar

StartChar: numbersign
Encoding: 35 35 6
Width: 1496
GlyphClass: 2
Flags: W
LayerCount: 2
Fore
SplineSet
90 174 m 1,0,-1
 150 408 l 1,1,2
 108 440 108 440 92 504 c 1,3,-1
 92 564 l 1,4,5
 118 672 118 672 220 688 c 1,6,-1
 296 980 l 1,7,-1
 284 980 l 2,8,9
 140 978 140 978 108 1108 c 1,10,-1
 108 1168 l 1,11,12
 140 1298 140 1298 284 1296 c 2,13,-1
 376 1296 l 1,14,-1
 432 1518 l 1,15,16
 436 1584 436 1584 484 1627 c 128,-1,17
 532 1670 532 1670 590 1672 c 1,18,-1
 682 1668 l 2,19,20
 740 1662 740 1662 784 1615 c 128,-1,21
 828 1568 828 1568 826 1502 c 1,22,-1
 774 1296 l 1,23,-1
 956 1296 l 1,24,-1
 1012 1518 l 1,25,26
 1016 1584 1016 1584 1064 1627 c 128,-1,27
 1112 1670 1112 1670 1170 1672 c 1,28,-1
 1262 1668 l 2,29,30
 1320 1662 1320 1662 1364 1615 c 128,-1,31
 1408 1568 1408 1568 1406 1502 c 1,32,-1
 1346 1264 l 1,33,34
 1388 1232 1388 1232 1404 1168 c 1,35,-1
 1404 1108 l 1,36,37
 1378 1000 1378 1000 1274 984 c 1,38,-1
 1200 692 l 1,39,-1
 1208 692 l 2,40,41
 1352 694 1352 694 1384 564 c 1,42,-1
 1384 504 l 1,43,44
 1352 374 1352 374 1208 376 c 2,45,-1
 1120 376 l 1,46,-1
 1064 158 l 1,47,48
 1060 92 1060 92 1012 49 c 128,-1,49
 964 6 964 6 906 4 c 1,50,-1
 812 8 l 2,51,52
 756 14 756 14 712 61 c 128,-1,53
 668 108 668 108 670 174 c 1,54,-1
 722 376 l 1,55,-1
 540 376 l 1,56,-1
 484 158 l 1,57,58
 480 92 480 92 432 49 c 128,-1,59
 384 6 384 6 326 4 c 1,60,-1
 232 8 l 2,61,62
 176 14 176 14 132 61 c 128,-1,63
 88 108 88 108 90 174 c 1,0,-1
620 692 m 1,64,-1
 802 692 l 1,65,-1
 876 980 l 1,66,-1
 694 980 l 1,67,-1
 620 692 l 1,64,-1
EndSplineSet
Validated: 33
EndChar

StartChar: dollar
Encoding: 36 36 7
Width: 1332
GlyphClass: 2
Flags: W
LayerCount: 2
Fore
SplineSet
94 436 m 1,0,-1
 94 508 l 2,1,2
 96 574 96 574 142 619 c 128,-1,3
 188 664 188 664 246 668 c 1,4,-1
 338 668 l 1,5,6
 396 664 396 664 442 619 c 128,-1,7
 488 574 488 574 490 508 c 1,8,9
 500 406 500 406 546 361 c 128,-1,10
 592 316 592 316 650 312 c 1,11,-1
 682 312 l 1,12,13
 740 316 740 316 786 361 c 128,-1,14
 832 406 832 406 834 472 c 0,15,16
 834 510 834 510 798 532 c 1,17,-1
 214 1000 l 1,18,19
 88 1088 88 1088 94 1240 c 0,20,21
 100 1336 100 1336 171 1445 c 128,-1,22
 242 1554 242 1554 327 1600 c 128,-1,23
 412 1646 412 1646 468 1660 c 1,24,-1
 468 1692 l 2,25,26
 470 1758 470 1758 516 1803 c 128,-1,27
 562 1848 562 1848 620 1852 c 1,28,-1
 712 1852 l 1,29,30
 770 1848 770 1848 816 1803 c 128,-1,31
 862 1758 862 1758 864 1692 c 2,32,-1
 864 1660 l 1,33,34
 922 1644 922 1644 1006 1599 c 128,-1,35
 1090 1554 1090 1554 1161 1445 c 128,-1,36
 1232 1336 1232 1336 1238 1240 c 1,37,-1
 1238 1168 l 2,38,39
 1236 1102 1236 1102 1190 1057 c 128,-1,40
 1144 1012 1144 1012 1086 1008 c 1,41,-1
 994 1008 l 1,42,43
 936 1012 936 1012 890 1057 c 128,-1,44
 844 1102 844 1102 842 1168 c 1,45,46
 832 1270 832 1270 786 1315 c 128,-1,47
 740 1360 740 1360 682 1364 c 1,48,-1
 650 1364 l 1,49,50
 592 1360 592 1360 546 1315 c 128,-1,51
 500 1270 500 1270 498 1204 c 0,52,53
 498 1166 498 1166 534 1144 c 1,54,-1
 1118 676 l 1,55,56
 1244 588 1244 588 1238 436 c 0,57,58
 1232 340 1232 340 1161 231 c 128,-1,59
 1090 122 1090 122 1005 76 c 128,-1,60
 920 30 920 30 864 16 c 1,61,-1
 864 -16 l 2,62,63
 862 -82 862 -82 816 -127 c 128,-1,64
 770 -172 770 -172 712 -176 c 1,65,-1
 620 -176 l 1,66,67
 562 -172 562 -172 516 -127 c 128,-1,68
 470 -82 470 -82 468 -16 c 2,69,-1
 468 16 l 1,70,71
 410 32 410 32 326 77 c 128,-1,72
 242 122 242 122 171 231 c 128,-1,73
 100 340 100 340 94 436 c 1,0,-1
EndSplineSet
Validated: 33
EndChar

StartChar: quotesingle
Encoding: 39 39 10
Width: 556
GlyphClass: 2
Flags: W
LayerCount: 2
Fore
SplineSet
80 1396 m 2,0,-1
 80 1616 l 2,1,2
 82 1682 82 1682 128 1727 c 128,-1,3
 174 1772 174 1772 232 1776 c 1,4,-1
 324 1776 l 1,5,6
 382 1772 382 1772 428 1727 c 128,-1,7
 474 1682 474 1682 476 1616 c 2,8,-1
 476 1396 l 2,9,10
 474 1330 474 1330 428 1285 c 128,-1,11
 382 1240 382 1240 324 1236 c 1,12,-1
 230 1236 l 1,13,14
 174 1240 174 1240 128 1285 c 128,-1,15
 82 1330 82 1330 80 1396 c 2,0,-1
EndSplineSet
Validated: 1
EndChar

StartChar: parenleft
Encoding: 40 40 11
Width: 872
GlyphClass: 2
Flags: W
LayerCount: 2
Fore
SplineSet
88 348 m 1,0,-1
 88 1328 l 1,1,2
 94 1424 94 1424 165 1533 c 128,-1,3
 236 1642 236 1642 348 1702 c 128,-1,4
 460 1762 460 1762 560 1764 c 2,5,-1
 624 1764 l 2,6,7
 768 1766 768 1766 800 1636 c 1,8,-1
 800 1580 l 1,9,10
 768 1450 768 1450 624 1452 c 2,11,-1
 612 1452 l 1,12,13
 574 1448 574 1448 534 1403 c 128,-1,14
 494 1358 494 1358 492 1292 c 2,15,-1
 492 384 l 2,16,17
 494 318 494 318 534 273 c 128,-1,18
 574 228 574 228 612 224 c 1,19,-1
 624 224 l 2,20,21
 768 226 768 226 800 96 c 1,22,-1
 800 40 l 1,23,24
 768 -90 768 -90 624 -88 c 2,25,-1
 560 -88 l 2,26,27
 460 -86 460 -86 348 -26 c 128,-1,28
 236 34 236 34 165 143 c 128,-1,29
 94 252 94 252 88 348 c 1,0,-1
EndSplineSet
Validated: 33
EndChar

StartChar: parenright
Encoding: 41 41 12
Width: 872
GlyphClass: 2
Flags: W
LayerCount: 2
Fore
SplineSet
72 40 m 1,0,-1
 72 96 l 1,1,2
 104 226 104 226 248 224 c 2,3,-1
 260 224 l 1,4,5
 298 228 298 228 338 273 c 128,-1,6
 378 318 378 318 380 384 c 2,7,-1
 380 1292 l 2,8,9
 378 1358 378 1358 338 1403 c 128,-1,10
 298 1448 298 1448 260 1452 c 1,11,-1
 248 1452 l 2,12,13
 104 1450 104 1450 72 1580 c 1,14,-1
 72 1636 l 1,15,16
 104 1766 104 1766 248 1764 c 2,17,-1
 312 1764 l 2,18,19
 412 1762 412 1762 524 1702 c 128,-1,20
 636 1642 636 1642 707 1533 c 128,-1,21
 778 1424 778 1424 784 1328 c 1,22,-1
 784 348 l 1,23,24
 778 252 778 252 707 143 c 128,-1,25
 636 34 636 34 524 -26 c 128,-1,26
 412 -86 412 -86 312 -88 c 2,27,-1
 248 -88 l 2,28,29
 104 -90 104 -90 72 40 c 1,0,-1
EndSplineSet
Validated: 33
EndChar

StartChar: asterisk
Encoding: 42 42 13
Width: 1008
GlyphClass: 2
Flags: W
LayerCount: 2
Fore
SplineSet
156 534 m 1,0,1
 88 650 88 650 192 750 c 2,2,-1
 280 838 l 1,3,-1
 192 928 l 1,4,5
 88 1028 88 1028 158 1142 c 1,6,-1
 200 1186 l 1,7,8
 316 1254 316 1254 416 1150 c 2,9,-1
 504 1062 l 1,10,-1
 594 1150 l 1,11,12
 694 1254 694 1254 808 1184 c 1,13,-1
 852 1142 l 1,14,15
 920 1026 920 1026 816 926 c 2,16,-1
 728 838 l 1,17,-1
 816 748 l 1,18,19
 920 648 920 648 850 534 c 1,20,-1
 808 490 l 1,21,22
 692 422 692 422 592 526 c 2,23,-1
 504 614 l 1,24,-1
 414 526 l 1,25,26
 314 422 314 422 200 492 c 1,27,-1
 156 534 l 1,0,1
EndSplineSet
Validated: 33
EndChar

StartChar: plus
Encoding: 43 43 14
Width: 1096
GlyphClass: 2
Flags: W
LayerCount: 2
Fore
SplineSet
88 808 m 1,0,-1
 88 868 l 1,1,2
 120 998 120 998 264 996 c 2,3,-1
 390 996 l 1,4,-1
 390 1122 l 2,5,6
 388 1266 388 1266 518 1298 c 1,7,-1
 578 1298 l 1,8,9
 708 1266 708 1266 706 1122 c 2,10,-1
 706 996 l 1,11,-1
 832 996 l 2,12,13
 976 998 976 998 1008 868 c 1,14,-1
 1008 808 l 1,15,16
 976 678 976 678 832 680 c 2,17,-1
 706 680 l 1,18,-1
 706 554 l 2,19,20
 708 410 708 410 578 378 c 1,21,-1
 518 378 l 1,22,23
 388 410 388 410 390 554 c 2,24,-1
 390 680 l 1,25,-1
 264 680 l 2,26,27
 120 678 120 678 88 808 c 1,0,-1
EndSplineSet
Validated: 33
EndChar

StartChar: comma
Encoding: 44 44 15
Width: 492
GlyphClass: 2
Flags: W
LayerCount: 2
Fore
SplineSet
61 15 m 128,-1,1
 98 94 98 94 88 168 c 1,2,3
 88 236 88 236 134 284 c 128,-1,4
 180 332 180 332 246 332 c 256,5,6
 312 332 312 332 358 284 c 128,-1,7
 404 236 404 236 404 168 c 256,8,9
 404 100 404 100 361 45 c 128,-1,10
 318 -10 318 -10 226 -58 c 128,-1,11
 134 -106 134 -106 79 -85 c 128,-1,0
 24 -64 24 -64 61 15 c 128,-1,1
EndSplineSet
Validated: 33
EndChar

StartChar: hyphen
Encoding: 45 45 16
Width: 1096
GlyphClass: 2
Flags: W
LayerCount: 2
Fore
SplineSet
88 808 m 1,0,-1
 88 868 l 1,1,2
 120 998 120 998 264 996 c 2,3,-1
 832 996 l 2,4,5
 976 998 976 998 1008 868 c 1,6,-1
 1008 808 l 1,7,8
 976 678 976 678 832 680 c 2,9,-1
 264 680 l 2,10,11
 120 678 120 678 88 808 c 1,0,-1
EndSplineSet
Validated: 33
EndChar

StartChar: period
Encoding: 46 46 17
Width: 492
GlyphClass: 2
Flags: W
LayerCount: 2
Fore
SplineSet
88 168 m 256,0,1
 88 236 88 236 134 284 c 128,-1,2
 180 332 180 332 246 332 c 256,3,4
 312 332 312 332 358 284 c 128,-1,5
 404 236 404 236 404 168 c 256,6,7
 404 100 404 100 358 52 c 128,-1,8
 312 4 312 4 246 4 c 256,9,10
 180 4 180 4 134 52 c 128,-1,11
 88 100 88 100 88 168 c 256,0,1
EndSplineSet
Validated: 1
EndChar

StartChar: slash
Encoding: 47 47 18
Width: 784
GlyphClass: 2
Flags: W
LayerCount: 2
Fore
SplineSet
4 88 m 1,0,-1
 384 1606 l 1,1,2
 388 1670 388 1670 436 1713 c 128,-1,3
 484 1756 484 1756 542 1758 c 1,4,-1
 634 1754 l 2,5,6
 692 1748 692 1748 736 1701 c 128,-1,7
 780 1654 780 1654 780 1588 c 1,8,-1
 400 70 l 1,9,10
 396 6 396 6 348 -37 c 128,-1,11
 300 -80 300 -80 242 -82 c 1,12,-1
 148 -78 l 2,13,14
 92 -72 92 -72 48 -25 c 128,-1,15
 4 22 4 22 4 88 c 1,0,-1
EndSplineSet
Validated: 1
EndChar

StartChar: zero
Encoding: 48 48 19
Width: 1304
GlyphClass: 2
Flags: W
LayerCount: 2
Fore
SplineSet
80 436 m 1,0,-1
 80 1240 l 1,1,2
 86 1336 86 1336 157 1445 c 128,-1,3
 228 1554 228 1554 340 1614 c 128,-1,4
 452 1674 452 1674 556 1676 c 2,5,-1
 726 1676 l 2,6,7
 852 1674 852 1674 964 1614 c 128,-1,8
 1076 1554 1076 1554 1147 1445 c 128,-1,9
 1218 1336 1218 1336 1224 1240 c 1,10,-1
 1224 436 l 1,11,12
 1218 340 1218 340 1147 231 c 128,-1,13
 1076 122 1076 122 964 62 c 128,-1,14
 852 2 852 2 726 0 c 2,15,-1
 556 0 l 2,16,17
 452 2 452 2 340 62 c 128,-1,18
 228 122 228 122 157 231 c 128,-1,19
 86 340 86 340 80 436 c 1,0,-1
484 472 m 2,20,21
 486 406 486 406 532 361 c 128,-1,22
 578 316 578 316 636 312 c 1,23,-1
 668 312 l 1,24,25
 726 316 726 316 772 361 c 128,-1,26
 818 406 818 406 820 472 c 2,27,-1
 820 1204 l 2,28,29
 818 1270 818 1270 772 1315 c 128,-1,30
 726 1360 726 1360 668 1364 c 1,31,-1
 636 1364 l 1,32,33
 578 1360 578 1360 532 1315 c 128,-1,34
 486 1270 486 1270 484 1204 c 2,35,-1
 484 472 l 2,20,21
EndSplineSet
Validated: 1
EndChar

StartChar: one
Encoding: 49 49 20
Width: 1072
GlyphClass: 2
Flags: W
LayerCount: 2
Fore
SplineSet
84 1492 m 1,0,-1
 84 1548 l 1,1,2
 116 1678 116 1678 260 1676 c 2,3,-1
 552 1676 l 2,4,5
 680 1674 680 1674 763 1617 c 128,-1,6
 846 1560 846 1560 852 1460 c 1,7,-1
 852 160 l 2,8,9
 850 94 850 94 804 49 c 128,-1,10
 758 4 758 4 700 0 c 1,11,-1
 606 0 l 1,12,13
 550 4 550 4 504 50 c 0,14,15
 458 94 458 94 456 160 c 2,16,-1
 456 1364 l 1,17,-1
 260 1364 l 2,18,19
 116 1362 116 1362 84 1492 c 1,0,-1
EndSplineSet
Validated: 33
EndChar

StartChar: two
Encoding: 50 50 21
Width: 1308
GlyphClass: 2
Flags: W
LayerCount: 2
Fore
SplineSet
80 1168 m 2,0,-1
 80 1240 l 1,1,2
 86 1336 86 1336 157 1445 c 128,-1,3
 228 1554 228 1554 340 1614 c 128,-1,4
 452 1674 452 1674 576 1676 c 2,5,-1
 748 1676 l 2,6,7
 852 1674 852 1674 964 1614 c 128,-1,8
 1076 1554 1076 1554 1147 1445 c 128,-1,9
 1218 1336 1218 1336 1224 1240 c 0,10,11
 1228 1078 1228 1078 1136 992 c 2,12,-1
 452 344 l 1,13,14
 434 306 434 306 484 312 c 1,15,-1
 1048 312 l 2,16,17
 1192 314 1192 314 1224 184 c 1,18,-1
 1224 128 l 1,19,20
 1192 -2 1192 -2 1048 0 c 2,21,-1
 332 0 l 1,22,23
 224 4 224 4 156 93 c 128,-1,24
 88 182 88 182 84 356 c 1,25,26
 90 502 90 502 214 610 c 1,27,-1
 796 1156 l 1,28,29
 826 1176 826 1176 824 1208 c 0,30,31
 818 1270 818 1270 772 1315 c 128,-1,32
 726 1360 726 1360 668 1364 c 1,33,-1
 636 1364 l 1,34,35
 578 1360 578 1360 532 1315 c 128,-1,36
 486 1270 486 1270 476 1168 c 1,37,38
 474 1102 474 1102 428 1057 c 128,-1,39
 382 1012 382 1012 324 1008 c 1,40,-1
 232 1008 l 1,41,42
 174 1012 174 1012 128 1057 c 128,-1,43
 82 1102 82 1102 80 1168 c 2,0,-1
EndSplineSet
Validated: 33
EndChar

StartChar: three
Encoding: 51 51 22
Width: 1308
GlyphClass: 2
Flags: W
LayerCount: 2
Fore
SplineSet
80 436 m 1,0,-1
 80 508 l 2,1,2
 82 574 82 574 128 619 c 128,-1,3
 174 664 174 664 232 668 c 1,4,-1
 324 668 l 1,5,6
 382 664 382 664 428 619 c 128,-1,7
 474 574 474 574 476 508 c 1,8,9
 486 406 486 406 532 361 c 128,-1,10
 578 316 578 316 636 312 c 1,11,-1
 672 312 l 1,12,13
 730 316 730 316 776 361 c 128,-1,14
 822 406 822 406 824 472 c 2,15,-1
 824 520 l 2,16,17
 822 586 822 586 776 631 c 128,-1,18
 730 676 730 676 672 680 c 1,19,-1
 572 680 l 2,20,21
 428 682 428 682 396 812 c 1,22,-1
 396 868 l 1,23,24
 428 998 428 998 572 996 c 2,25,-1
 672 996 l 1,26,27
 730 1000 730 1000 776 1045 c 128,-1,28
 822 1090 822 1090 824 1156 c 2,29,-1
 824 1204 l 2,30,31
 822 1270 822 1270 776 1315 c 128,-1,32
 730 1360 730 1360 672 1364 c 1,33,-1
 636 1364 l 1,34,35
 578 1360 578 1360 532 1315 c 128,-1,36
 486 1270 486 1270 476 1168 c 1,37,38
 474 1102 474 1102 428 1057 c 128,-1,39
 382 1012 382 1012 324 1008 c 1,40,-1
 232 1008 l 1,41,42
 174 1012 174 1012 128 1057 c 128,-1,43
 82 1102 82 1102 80 1168 c 2,44,-1
 80 1240 l 1,45,46
 86 1336 86 1336 157 1445 c 128,-1,47
 228 1554 228 1554 340 1614 c 128,-1,48
 452 1674 452 1674 576 1676 c 2,49,-1
 730 1676 l 2,50,51
 856 1674 856 1674 968 1614 c 128,-1,52
 1080 1554 1080 1554 1151 1445 c 128,-1,53
 1222 1336 1222 1336 1228 1240 c 1,54,-1
 1228 1104 l 1,55,56
 1222 1008 1222 1008 1174 934 c 128,-1,57
 1126 860 1126 860 1094 826 c 1,58,59
 1126 792 1126 792 1174 718 c 128,-1,60
 1222 644 1222 644 1228 548 c 1,61,-1
 1228 436 l 1,62,63
 1222 340 1222 340 1151 231 c 128,-1,64
 1080 122 1080 122 968 62 c 128,-1,65
 856 2 856 2 730 0 c 2,66,-1
 576 0 l 2,67,68
 452 2 452 2 340 62 c 128,-1,69
 228 122 228 122 157 231 c 128,-1,70
 86 340 86 340 80 436 c 1,0,-1
EndSplineSet
Validated: 33
EndChar

StartChar: four
Encoding: 52 52 23
Width: 1296
GlyphClass: 2
Flags: WO
LayerCount: 2
Fore
SplineSet
80 896 m 1,0,-1
 80 1100 l 1,1,2
 88 1212 88 1212 160 1368 c 128,-1,3
 232 1524 232 1524 342 1599 c 128,-1,4
 452 1674 452 1674 576 1676 c 2,5,-1
 916 1676 l 2,6,7
 1044 1674 1044 1674 1127 1616 c 128,-1,8
 1210 1558 1210 1558 1216 1460 c 1,9,-1
 1216 160 l 2,10,11
 1214 94 1214 94 1168 49 c 128,-1,12
 1122 4 1122 4 1064 0 c 1,13,-1
 974 0 l 1,14,15
 918 4 918 4 872 49 c 128,-1,16
 826 94 826 94 824 160 c 2,17,-1
 824 680 l 1,18,-1
 380 680 l 2,19,20
 252 682 252 682 169 740 c 128,-1,21
 86 798 86 798 80 896 c 1,0,-1
484 1040 m 1,22,23
 488 1008 488 1008 532 996 c 1,24,-1
 824 996 l 1,25,-1
 824 1316 l 1,26,27
 827 1676 l 1,28,-1
 565.5 1673.5 l 5,29,30
 718.578530179 1673.61797853 718.578530179 1673.61797853 541 1387 c 4,31,32
 484 1295 484 1295 484 1092 c 2,33,-1
 484 1040 l 1,22,23
EndSplineSet
EndChar

StartChar: five
Encoding: 53 53 24
Width: 1304
GlyphClass: 2
Flags: W
LayerCount: 2
Fore
SplineSet
80 436 m 1,0,-1
 80 508 l 2,1,2
 82 574 82 574 128 619 c 128,-1,3
 174 664 174 664 232 668 c 1,4,-1
 324 668 l 1,5,6
 382 664 382 664 428 619 c 128,-1,7
 474 574 474 574 476 508 c 1,8,9
 486 406 486 406 532 361 c 128,-1,10
 578 316 578 316 636 312 c 1,11,-1
 668 312 l 1,12,13
 726 316 726 316 769 358 c 128,-1,14
 812 400 812 400 820 476 c 1,15,-1
 820 528 l 2,16,17
 818 594 818 594 793 637 c 128,-1,18
 768 680 768 680 746 680 c 2,19,-1
 556 680 l 2,20,21
 452 682 452 682 340 742 c 128,-1,22
 228 802 228 802 157 911 c 128,-1,23
 86 1020 86 1020 80 1116 c 1,24,-1
 80 1460 l 1,25,26
 86 1560 86 1560 169 1617 c 128,-1,27
 252 1674 252 1674 380 1676 c 2,28,-1
 1048 1676 l 2,29,30
 1192 1678 1192 1678 1224 1548 c 1,31,-1
 1224 1492 l 1,32,33
 1192 1362 1192 1362 1048 1364 c 2,34,-1
 548 1364 l 1,35,36
 488 1358 488 1358 480 1316 c 1,37,-1
 480 1152 l 1,38,39
 486 1086 486 1086 531 1041 c 128,-1,40
 576 996 576 996 636 996 c 2,41,-1
 760 996 l 1,42,43
 866 990 866 990 971 934 c 128,-1,44
 1076 878 1076 878 1147 769 c 128,-1,45
 1218 660 1218 660 1224 564 c 1,46,-1
 1224 440 l 1,47,48
 1218 340 1218 340 1147 231 c 128,-1,49
 1076 122 1076 122 964 62 c 128,-1,50
 852 2 852 2 728 0 c 2,51,-1
 576 0 l 2,52,53
 452 2 452 2 340 62 c 128,-1,54
 228 122 228 122 157 231 c 128,-1,55
 86 340 86 340 80 436 c 1,0,-1
EndSplineSet
Validated: 33
EndChar

StartChar: six
Encoding: 54 54 25
Width: 1304
GlyphClass: 2
Flags: W
LayerCount: 2
Fore
SplineSet
80 436 m 1,0,-1
 80 1240 l 1,1,2
 86 1336 86 1336 157 1445 c 128,-1,3
 228 1554 228 1554 340 1614 c 128,-1,4
 452 1674 452 1674 556 1676 c 2,5,-1
 728 1676 l 2,6,7
 852 1674 852 1674 964 1614 c 128,-1,8
 1076 1554 1076 1554 1147 1445 c 128,-1,9
 1218 1336 1218 1336 1224 1240 c 1,10,-1
 1224 1168 l 2,11,12
 1222 1102 1222 1102 1176 1057 c 128,-1,13
 1130 1012 1130 1012 1072 1008 c 1,14,-1
 980 1008 l 1,15,16
 922 1012 922 1012 876 1057 c 128,-1,17
 830 1102 830 1102 828 1168 c 1,18,19
 818 1270 818 1270 772 1315 c 128,-1,20
 726 1360 726 1360 668 1364 c 1,21,-1
 636 1364 l 1,22,23
 578 1360 578 1360 532 1315 c 128,-1,24
 486 1270 486 1270 484 1204 c 2,25,-1
 484 996 l 1,26,-1
 756 996 l 1,27,28
 866 990 866 990 971 934 c 128,-1,29
 1076 878 1076 878 1147 769 c 128,-1,30
 1218 660 1218 660 1224 564 c 1,31,-1
 1224 440 l 1,32,33
 1218 340 1218 340 1147 231 c 128,-1,34
 1076 122 1076 122 964 62 c 128,-1,35
 852 2 852 2 728 0 c 2,36,-1
 556 0 l 2,37,38
 452 2 452 2 340 62 c 128,-1,39
 228 122 228 122 157 231 c 128,-1,40
 86 340 86 340 80 436 c 1,0,-1
484 472 m 2,41,42
 486 406 486 406 532 361 c 128,-1,43
 578 316 578 316 636 312 c 1,44,-1
 668 312 l 1,45,46
 726 316 726 316 769 358 c 128,-1,47
 812 400 812 400 820 476 c 1,48,-1
 820 528 l 2,49,50
 818 594 818 594 793 637 c 128,-1,51
 768 680 768 680 746 680 c 2,52,-1
 484 680 l 1,53,-1
 484 472 l 2,41,42
EndSplineSet
Validated: 1
EndChar

StartChar: seven
Encoding: 55 55 26
Width: 1300
GlyphClass: 2
Flags: W
LayerCount: 2
Fore
SplineSet
80 1492 m 1,0,-1
 80 1548 l 1,1,2
 112 1678 112 1678 256 1676 c 2,3,-1
 748 1676 l 2,4,5
 852 1674 852 1674 964 1614 c 128,-1,6
 1076 1554 1076 1554 1145 1445 c 128,-1,7
 1214 1336 1214 1336 1220 1240 c 1,8,9
 1210 1094 1210 1094 1164 1012 c 1,10,-1
 788 156 l 1,11,12
 764 86 764 86 723 45 c 128,-1,13
 682 4 682 4 624 0 c 1,14,-1
 530 0 l 1,15,16
 474 4 474 4 429 48 c 128,-1,17
 384 92 384 92 380 156 c 0,18,19
 380 196 380 196 404 252 c 2,20,-1
 816 1192 l 1,21,-1
 816 1220 l 2,22,23
 814 1274 814 1274 770 1317 c 128,-1,24
 726 1360 726 1360 668 1364 c 1,25,-1
 256 1364 l 2,26,27
 112 1362 112 1362 80 1492 c 1,0,-1
EndSplineSet
Validated: 33
EndChar

StartChar: eight
Encoding: 56 56 27
Width: 1324
GlyphClass: 2
Flags: W
LayerCount: 2
Fore
SplineSet
80 436 m 1,0,-1
 80 560 l 1,1,2
 86 656 86 656 134 730 c 128,-1,3
 182 804 182 804 214 838 c 1,4,5
 182 872 182 872 134 946 c 128,-1,6
 86 1020 86 1020 80 1116 c 1,7,-1
 80 1240 l 1,8,9
 86 1336 86 1336 157 1445 c 128,-1,10
 228 1554 228 1554 340 1614 c 128,-1,11
 452 1674 452 1674 578 1676 c 2,12,-1
 746 1676 l 2,13,14
 872 1674 872 1674 984 1614 c 128,-1,15
 1096 1554 1096 1554 1167 1445 c 128,-1,16
 1238 1336 1238 1336 1244 1240 c 1,17,-1
 1244 1116 l 1,18,19
 1238 1020 1238 1020 1190 946 c 128,-1,20
 1142 872 1142 872 1110 838 c 1,21,22
 1142 804 1142 804 1190 730 c 128,-1,23
 1238 656 1238 656 1244 560 c 1,24,-1
 1244 436 l 1,25,26
 1238 340 1238 340 1167 231 c 128,-1,27
 1096 122 1096 122 984 62 c 128,-1,28
 872 2 872 2 746 0 c 2,29,-1
 578 0 l 2,30,31
 452 2 452 2 340 62 c 128,-1,32
 228 122 228 122 157 231 c 128,-1,33
 86 340 86 340 80 436 c 1,0,-1
484 472 m 2,34,35
 486 406 486 406 532 361 c 128,-1,36
 578 316 578 316 636 312 c 1,37,-1
 688 312 l 1,38,39
 746 316 746 316 792 362 c 0,40,41
 838 406 838 406 840 472 c 2,42,-1
 840 520 l 2,43,44
 838 586 838 586 792 631 c 128,-1,45
 746 676 746 676 688 680 c 1,46,-1
 636 680 l 1,47,48
 578 676 578 676 532 631 c 128,-1,49
 486 586 486 586 484 520 c 2,50,-1
 484 472 l 2,34,35
484 1156 m 2,51,52
 486 1090 486 1090 532 1045 c 128,-1,53
 578 1000 578 1000 636 996 c 1,54,-1
 688 996 l 1,55,56
 746 1000 746 1000 792 1046 c 0,57,58
 838 1090 838 1090 840 1156 c 2,59,-1
 840 1204 l 2,60,61
 838 1270 838 1270 792 1315 c 128,-1,62
 746 1360 746 1360 688 1364 c 1,63,-1
 636 1364 l 1,64,65
 578 1360 578 1360 532 1315 c 128,-1,66
 486 1270 486 1270 484 1204 c 2,67,-1
 484 1156 l 2,51,52
EndSplineSet
Validated: 1
EndChar

StartChar: nine
Encoding: 57 57 28
Width: 1304
GlyphClass: 2
Flags: W
LayerCount: 2
Fore
SplineSet
80 436 m 1,0,-1
 80 508 l 2,1,2
 82 574 82 574 128 619 c 128,-1,3
 174 664 174 664 232 668 c 1,4,-1
 324 668 l 1,5,6
 382 664 382 664 428 619 c 128,-1,7
 474 574 474 574 476 508 c 1,8,9
 486 406 486 406 532 361 c 128,-1,10
 578 316 578 316 636 312 c 1,11,-1
 668 312 l 1,12,13
 726 316 726 316 772 361 c 128,-1,14
 818 406 818 406 820 472 c 2,15,-1
 820 680 l 1,16,-1
 548 680 l 1,17,18
 438 686 438 686 333 742 c 128,-1,19
 228 798 228 798 157 907 c 128,-1,20
 86 1016 86 1016 80 1112 c 1,21,-1
 80 1236 l 1,22,23
 86 1336 86 1336 157 1445 c 128,-1,24
 228 1554 228 1554 340 1614 c 128,-1,25
 452 1674 452 1674 576 1676 c 2,26,-1
 748 1676 l 2,27,28
 852 1674 852 1674 964 1614 c 128,-1,29
 1076 1554 1076 1554 1147 1445 c 128,-1,30
 1218 1336 1218 1336 1224 1240 c 1,31,-1
 1224 436 l 1,32,33
 1218 340 1218 340 1147 231 c 128,-1,34
 1076 122 1076 122 964 62 c 128,-1,35
 852 2 852 2 748 0 c 2,36,-1
 576 0 l 2,37,38
 452 2 452 2 340 62 c 128,-1,39
 228 122 228 122 157 231 c 128,-1,40
 86 340 86 340 80 436 c 1,0,-1
484 1148 m 2,41,42
 486 1082 486 1082 511 1039 c 128,-1,43
 536 996 536 996 558 996 c 2,44,-1
 820 996 l 1,45,-1
 820 1204 l 2,46,47
 818 1270 818 1270 772 1315 c 128,-1,48
 726 1360 726 1360 668 1364 c 1,49,-1
 636 1364 l 1,50,51
 578 1360 578 1360 535 1318 c 128,-1,52
 492 1276 492 1276 484 1200 c 1,53,-1
 484 1148 l 2,41,42
EndSplineSet
Validated: 1
EndChar

StartChar: colon
Encoding: 58 58 29
Width: 532
GlyphClass: 2
Flags: W
LayerCount: 2
Fore
SplineSet
108 488 m 256,0,1
 108 556 108 556 154 604 c 128,-1,2
 200 652 200 652 266 652 c 256,3,4
 332 652 332 652 378 604 c 128,-1,5
 424 556 424 556 424 488 c 256,6,7
 424 420 424 420 378 372 c 128,-1,8
 332 324 332 324 266 324 c 256,9,10
 200 324 200 324 154 372 c 128,-1,11
 108 420 108 420 108 488 c 256,0,1
108 1188 m 256,12,13
 108 1256 108 1256 154 1304 c 128,-1,14
 200 1352 200 1352 266 1352 c 256,15,16
 332 1352 332 1352 378 1304 c 128,-1,17
 424 1256 424 1256 424 1188 c 256,18,19
 424 1120 424 1120 378 1072 c 128,-1,20
 332 1024 332 1024 266 1024 c 256,21,22
 200 1024 200 1024 154 1072 c 128,-1,23
 108 1120 108 1120 108 1188 c 256,12,13
EndSplineSet
Validated: 1
EndChar

StartChar: semicolon
Encoding: 59 59 30
Width: 532
GlyphClass: 2
Flags: W
LayerCount: 2
Fore
SplineSet
81 335 m 128,-1,1
 118 414 118 414 108 488 c 1,2,3
 108 556 108 556 154 604 c 128,-1,4
 200 652 200 652 266 652 c 256,5,6
 332 652 332 652 378 604 c 128,-1,7
 424 556 424 556 424 488 c 256,8,9
 424 420 424 420 381 365 c 128,-1,10
 338 310 338 310 246 262 c 128,-1,11
 154 214 154 214 99 235 c 128,-1,0
 44 256 44 256 81 335 c 128,-1,1
108 1188 m 256,12,13
 108 1256 108 1256 154 1304 c 128,-1,14
 200 1352 200 1352 266 1352 c 256,15,16
 332 1352 332 1352 378 1304 c 128,-1,17
 424 1256 424 1256 424 1188 c 256,18,19
 424 1120 424 1120 378 1072 c 128,-1,20
 332 1024 332 1024 266 1024 c 256,21,22
 200 1024 200 1024 154 1072 c 128,-1,23
 108 1120 108 1120 108 1188 c 256,12,13
EndSplineSet
Validated: 33
EndChar

StartChar: equal
Encoding: 61 61 32
Width: 1096
GlyphClass: 2
Flags: W
LayerCount: 2
Fore
SplineSet
88 528 m 1,0,-1
 88 588 l 1,1,2
 120 718 120 718 264 716 c 2,3,-1
 832 716 l 2,4,5
 976 718 976 718 1008 588 c 1,6,-1
 1008 528 l 1,7,8
 976 398 976 398 832 400 c 2,9,-1
 264 400 l 2,10,11
 120 398 120 398 88 528 c 1,0,-1
88 1088 m 1,12,-1
 88 1148 l 1,13,14
 120 1278 120 1278 264 1276 c 2,15,-1
 832 1276 l 2,16,17
 976 1278 976 1278 1008 1148 c 1,18,-1
 1008 1088 l 1,19,20
 976 958 976 958 832 960 c 2,21,-1
 264 960 l 2,22,23
 120 958 120 958 88 1088 c 1,12,-1
EndSplineSet
Validated: 33
EndChar

StartChar: question
Encoding: 63 63 34
Width: 1324
GlyphClass: 2
Flags: W
LayerCount: 2
Fore
SplineSet
88 1168 m 2,0,-1
 88 1240 l 1,1,2
 94 1336 94 1336 165 1445 c 128,-1,3
 236 1554 236 1554 348 1614 c 128,-1,4
 460 1674 460 1674 584 1676 c 2,5,-1
 756 1676 l 2,6,7
 860 1674 860 1674 972 1614 c 128,-1,8
 1084 1554 1084 1554 1155 1445 c 128,-1,9
 1226 1336 1226 1336 1232 1240 c 0,10,11
 1236 1078 1236 1078 1144 992 c 1,12,-1
 856 700 l 1,13,-1
 856 672 l 2,14,15
 854 606 854 606 808 561 c 128,-1,16
 762 516 762 516 704 512 c 1,17,-1
 610 512 l 1,18,19
 554 516 554 516 508 561 c 128,-1,20
 462 606 462 606 460 672 c 2,21,-1
 460 716 l 2,22,23
 462 782 462 782 512 864 c 1,24,-1
 804 1156 l 1,25,26
 834 1176 834 1176 832 1208 c 0,27,28
 826 1270 826 1270 780 1315 c 128,-1,29
 734 1360 734 1360 676 1364 c 1,30,-1
 644 1364 l 1,31,32
 586 1360 586 1360 540 1315 c 128,-1,33
 494 1270 494 1270 484 1168 c 1,34,35
 482 1102 482 1102 436 1057 c 128,-1,36
 390 1012 390 1012 332 1008 c 1,37,-1
 240 1008 l 1,38,39
 182 1012 182 1012 136 1057 c 128,-1,40
 90 1102 90 1102 88 1168 c 2,0,-1
452 204 m 256,41,42
 452 290 452 290 512 349 c 128,-1,43
 572 408 572 408 658 408 c 256,44,45
 744 408 744 408 804 349 c 128,-1,46
 864 290 864 290 864 204 c 256,47,48
 864 118 864 118 804 59 c 128,-1,49
 744 0 744 0 658 0 c 256,50,51
 572 0 572 0 512 59 c 128,-1,52
 452 118 452 118 452 204 c 256,41,42
EndSplineSet
Validated: 33
EndChar

StartChar: A
Encoding: 65 65 36
Width: 1264
GlyphClass: 2
Flags: W
LayerCount: 2
Fore
SplineSet
60 160 m 1,0,-1
 192 1488 l 1,1,2
 208 1564 208 1564 317 1621 c 0,3,4
 422 1676 422 1676 532 1676 c 0,5,6
 536 1676 536 1676 540 1676 c 2,7,-1
 724 1676 l 2,8,9
 728 1676 728 1676 732 1676 c 0,10,11
 842 1676 842 1676 947 1621 c 0,12,13
 1056 1564 1056 1564 1072 1488 c 1,14,-1
 1204 160 l 1,15,16
 1202 94 1202 94 1156 49 c 128,-1,17
 1110 4 1110 4 1052 0 c 1,18,-1
 960 0 l 1,19,20
 860 8 860 8 820 100 c 1,21,-1
 764 680 l 1,22,-1
 500 680 l 1,23,-1
 444 100 l 1,24,25
 404 8 404 8 304 0 c 1,26,-1
 212 0 l 1,27,28
 154 4 154 4 108 49 c 128,-1,29
 62 94 62 94 60 160 c 1,0,-1
530 996 m 1,30,-1
 734 996 l 1,31,-1
 700 1344 l 1,32,33
 686 1362 686 1362 660 1364 c 2,34,-1
 604 1364 l 2,35,36
 578 1362 578 1362 564 1344 c 1,37,-1
 530 996 l 1,30,-1
EndSplineSet
Validated: 1
EndChar

StartChar: B
Encoding: 66 66 37
Width: 1304
GlyphClass: 2
Flags: W
LayerCount: 2
Fore
SplineSet
80 236 m 2,0,-1
 80 1440 l 2,1,2
 82 1546 82 1546 180 1613 c 0,3,4
 272 1676 272 1676 404 1676 c 0,5,6
 412 1676 412 1676 420 1676 c 2,7,-1
 726 1676 l 2,8,9
 852 1674 852 1674 964 1614 c 128,-1,10
 1076 1554 1076 1554 1147 1445 c 128,-1,11
 1218 1336 1218 1336 1224 1240 c 1,12,-1
 1224 1116 l 1,13,14
 1218 1020 1218 1020 1170 946 c 128,-1,15
 1122 872 1122 872 1090 838 c 1,16,17
 1122 804 1122 804 1170 730 c 128,-1,18
 1218 656 1218 656 1224 560 c 1,19,-1
 1224 436 l 1,20,21
 1218 340 1218 340 1147 231 c 128,-1,22
 1076 122 1076 122 964 62 c 128,-1,23
 852 2 852 2 726 0 c 2,24,-1
 420 0 l 2,25,26
 412 0 412 0 404 0 c 0,27,28
 272 0 272 0 180 63 c 0,29,30
 82 130 82 130 80 236 c 2,0,-1
480 364 m 1,31,32
 486 312 486 312 551 312 c 0,33,34
 553 312 553 312 556 312 c 2,35,-1
 668 312 l 1,36,37
 726 316 726 316 772 361 c 128,-1,38
 818 406 818 406 820 472 c 2,39,-1
 820 520 l 2,40,41
 818 586 818 586 772 631 c 128,-1,42
 726 676 726 676 668 680 c 1,43,-1
 480 680 l 1,44,-1
 480 364 l 1,31,32
480 996 m 1,45,-1
 668 996 l 1,46,47
 726 1000 726 1000 772 1045 c 128,-1,48
 818 1090 818 1090 820 1156 c 2,49,-1
 820 1204 l 2,50,51
 818 1270 818 1270 772 1315 c 128,-1,52
 726 1360 726 1360 668 1364 c 1,53,-1
 556 1364 l 2,54,55
 554 1364 554 1364 551 1364 c 0,56,57
 486 1364 486 1364 480 1312 c 1,58,-1
 480 996 l 1,45,-1
EndSplineSet
Validated: 1
EndChar

StartChar: C
Encoding: 67 67 38
Width: 1304
GlyphClass: 2
Flags: W
LayerCount: 2
Fore
SplineSet
80 436 m 1,0,-1
 80 1240 l 1,1,2
 86 1336 86 1336 157 1445 c 128,-1,3
 228 1554 228 1554 340 1614 c 128,-1,4
 452 1674 452 1674 556 1676 c 2,5,-1
 728 1676 l 2,6,7
 852 1674 852 1674 964 1614 c 128,-1,8
 1076 1554 1076 1554 1147 1445 c 128,-1,9
 1218 1336 1218 1336 1224 1240 c 1,10,-1
 1224 1168 l 2,11,12
 1222 1102 1222 1102 1176 1057 c 128,-1,13
 1130 1012 1130 1012 1072 1008 c 1,14,-1
 980 1008 l 1,15,16
 922 1012 922 1012 876 1057 c 128,-1,17
 830 1102 830 1102 828 1168 c 1,18,19
 818 1270 818 1270 772 1315 c 128,-1,20
 726 1360 726 1360 668 1364 c 1,21,-1
 636 1364 l 1,22,23
 578 1360 578 1360 532 1315 c 128,-1,24
 486 1270 486 1270 484 1204 c 2,25,-1
 484 472 l 2,26,27
 486 406 486 406 532 361 c 128,-1,28
 578 316 578 316 636 312 c 1,29,-1
 668 312 l 1,30,31
 726 316 726 316 772 361 c 128,-1,32
 818 406 818 406 828 508 c 1,33,34
 830 574 830 574 876 619 c 128,-1,35
 922 664 922 664 980 668 c 1,36,-1
 1072 668 l 1,37,38
 1130 664 1130 664 1176 619 c 128,-1,39
 1222 574 1222 574 1224 508 c 2,40,-1
 1224 436 l 1,41,42
 1218 340 1218 340 1147 231 c 128,-1,43
 1076 122 1076 122 964 62 c 128,-1,44
 852 2 852 2 728 0 c 2,45,-1
 556 0 l 2,46,47
 452 2 452 2 340 62 c 128,-1,48
 228 122 228 122 157 231 c 128,-1,49
 86 340 86 340 80 436 c 1,0,-1
EndSplineSet
Validated: 1
EndChar

StartChar: D
Encoding: 68 68 39
Width: 1304
GlyphClass: 2
Flags: W
LayerCount: 2
Fore
SplineSet
80 236 m 2,0,-1
 80 1440 l 2,1,2
 82 1546 82 1546 180 1613 c 0,3,4
 272 1676 272 1676 404 1676 c 0,5,6
 412 1676 412 1676 420 1676 c 2,7,-1
 726 1676 l 2,8,9
 852 1674 852 1674 964 1614 c 128,-1,10
 1076 1554 1076 1554 1147 1445 c 128,-1,11
 1218 1336 1218 1336 1224 1240 c 1,12,-1
 1224 436 l 1,13,14
 1218 340 1218 340 1147 231 c 128,-1,15
 1076 122 1076 122 964 62 c 128,-1,16
 852 2 852 2 726 0 c 2,17,-1
 420 0 l 2,18,19
 412 0 412 0 404 0 c 0,20,21
 272 0 272 0 180 63 c 0,22,23
 82 130 82 130 80 236 c 2,0,-1
480 364 m 1,24,25
 486 312 486 312 551 312 c 0,26,27
 553 312 553 312 556 312 c 2,28,-1
 668 312 l 1,29,30
 726 316 726 316 772 361 c 128,-1,31
 818 406 818 406 820 472 c 2,32,-1
 820 1204 l 2,33,34
 818 1270 818 1270 772 1315 c 128,-1,35
 726 1360 726 1360 668 1364 c 1,36,-1
 556 1364 l 2,37,38
 554 1364 554 1364 551 1364 c 0,39,40
 486 1364 486 1364 480 1312 c 1,41,-1
 480 364 l 1,24,25
EndSplineSet
Validated: 1
EndChar

StartChar: E
Encoding: 69 69 40
Width: 1304
GlyphClass: 2
Flags: W
LayerCount: 2
Fore
SplineSet
80 436 m 1,0,-1
 80 1240 l 1,1,2
 86 1336 86 1336 157 1445 c 128,-1,3
 228 1554 228 1554 340 1614 c 128,-1,4
 452 1674 452 1674 556 1676 c 2,5,-1
 1048 1676 l 2,6,7
 1050 1676 1050 1676 1052 1676 c 0,8,9
 1192 1676 1192 1676 1224 1548 c 1,10,-1
 1224 1492 l 1,11,12
 1192 1364 1192 1364 1052 1364 c 0,13,14
 1050 1364 1050 1364 1048 1364 c 2,15,-1
 636 1364 l 1,16,17
 578 1360 578 1360 532 1315 c 128,-1,18
 486 1270 486 1270 484 1204 c 2,19,-1
 484 996 l 1,20,-1
 1012 996 l 2,21,22
 1014 996 1014 996 1016 996 c 0,23,24
 1156 996 1156 996 1188 868 c 1,25,-1
 1188 808 l 1,26,27
 1156 680 1156 680 1016 680 c 0,28,29
 1014 680 1014 680 1012 680 c 2,30,-1
 484 680 l 1,31,-1
 484 472 l 2,32,33
 486 406 486 406 532 361 c 128,-1,34
 578 316 578 316 636 312 c 1,35,-1
 1048 312 l 2,36,37
 1050 312 1050 312 1052 312 c 0,38,39
 1192 312 1192 312 1224 184 c 1,40,-1
 1224 128 l 1,41,42
 1192 0 1192 0 1052 0 c 0,43,44
 1050 0 1050 0 1048 0 c 2,45,-1
 556 0 l 2,46,47
 452 2 452 2 340 62 c 128,-1,48
 228 122 228 122 157 231 c 128,-1,49
 86 340 86 340 80 436 c 1,0,-1
EndSplineSet
Validated: 1
EndChar

StartChar: F
Encoding: 70 70 41
Width: 1304
GlyphClass: 2
Flags: W
LayerCount: 2
Fore
SplineSet
80 160 m 2,0,-1
 80 1240 l 1,1,2
 86 1336 86 1336 157 1445 c 128,-1,3
 228 1554 228 1554 340 1614 c 128,-1,4
 452 1674 452 1674 556 1676 c 2,5,-1
 1048 1676 l 2,6,7
 1050 1676 1050 1676 1052 1676 c 0,8,9
 1192 1676 1192 1676 1224 1548 c 1,10,-1
 1224 1492 l 1,11,12
 1192 1364 1192 1364 1052 1364 c 0,13,14
 1050 1364 1050 1364 1048 1364 c 2,15,-1
 636 1364 l 1,16,17
 578 1360 578 1360 532 1315 c 128,-1,18
 486 1270 486 1270 484 1204 c 2,19,-1
 484 996 l 1,20,-1
 1012 996 l 2,21,22
 1014 996 1014 996 1016 996 c 0,23,24
 1156 996 1156 996 1188 868 c 1,25,-1
 1188 808 l 1,26,27
 1156 680 1156 680 1016 680 c 0,28,29
 1014 680 1014 680 1012 680 c 2,30,-1
 484 680 l 1,31,-1
 484 160 l 2,32,33
 482 94 482 94 436 49 c 128,-1,34
 390 4 390 4 332 0 c 1,35,-1
 230 0 l 1,36,37
 174 4 174 4 128 49 c 128,-1,38
 82 94 82 94 80 160 c 2,0,-1
EndSplineSet
Validated: 1
EndChar

StartChar: G
Encoding: 71 71 42
Width: 1304
GlyphClass: 2
Flags: W
LayerCount: 2
Fore
SplineSet
80 436 m 1,0,-1
 80 1240 l 1,1,2
 86 1336 86 1336 157 1445 c 128,-1,3
 228 1554 228 1554 340 1614 c 128,-1,4
 452 1674 452 1674 556 1676 c 2,5,-1
 728 1676 l 2,6,7
 852 1674 852 1674 964 1614 c 128,-1,8
 1076 1554 1076 1554 1147 1445 c 128,-1,9
 1218 1336 1218 1336 1224 1240 c 1,10,-1
 1224 1168 l 2,11,12
 1222 1102 1222 1102 1176 1057 c 128,-1,13
 1130 1012 1130 1012 1072 1008 c 1,14,-1
 980 1008 l 1,15,16
 922 1012 922 1012 876 1057 c 128,-1,17
 830 1102 830 1102 828 1168 c 1,18,19
 818 1270 818 1270 772 1315 c 128,-1,20
 726 1360 726 1360 668 1364 c 1,21,-1
 636 1364 l 1,22,23
 578 1360 578 1360 532 1315 c 128,-1,24
 486 1270 486 1270 484 1204 c 2,25,-1
 484 472 l 2,26,27
 486 406 486 406 532 361 c 128,-1,28
 578 316 578 316 636 312 c 1,29,-1
 668 312 l 1,30,31
 726 316 726 316 769 358 c 128,-1,32
 812 400 812 400 820 476 c 1,33,-1
 820 528 l 2,34,35
 818 594 818 594 793 637 c 128,-1,36
 768 680 768 680 724 680 c 0,37,38
 608 682 608 682 576 812 c 1,39,-1
 576 872 l 1,40,41
 608 1000 608 1000 721 1000 c 0,42,43
 722 1000 722 1000 724 1000 c 2,44,-1
 756 1000 l 1,45,46
 866 990 866 990 971 934 c 128,-1,47
 1076 878 1076 878 1147 769 c 128,-1,48
 1218 660 1218 660 1224 564 c 1,49,-1
 1224 440 l 1,50,51
 1218 340 1218 340 1147 231 c 128,-1,52
 1076 122 1076 122 964 62 c 128,-1,53
 852 2 852 2 728 0 c 2,54,-1
 556 0 l 2,55,56
 452 2 452 2 340 62 c 128,-1,57
 228 122 228 122 157 231 c 128,-1,58
 86 340 86 340 80 436 c 1,0,-1
EndSplineSet
Validated: 1
EndChar

StartChar: H
Encoding: 72 72 43
Width: 1300
GlyphClass: 2
Flags: W
LayerCount: 2
Fore
SplineSet
80 160 m 2,0,-1
 80 1516 l 2,1,2
 82 1582 82 1582 128 1627 c 128,-1,3
 174 1672 174 1672 232 1676 c 1,4,-1
 324 1676 l 1,5,6
 382 1672 382 1672 428 1627 c 128,-1,7
 474 1582 474 1582 476 1516 c 2,8,-1
 476 996 l 1,9,-1
 824 996 l 1,10,-1
 824 1516 l 2,11,12
 826 1582 826 1582 872 1627 c 128,-1,13
 918 1672 918 1672 976 1676 c 1,14,-1
 1068 1676 l 1,15,16
 1126 1672 1126 1672 1172 1627 c 128,-1,17
 1218 1582 1218 1582 1220 1516 c 2,18,-1
 1220 160 l 2,19,20
 1218 94 1218 94 1172 49 c 128,-1,21
 1126 4 1126 4 1070 0 c 1,22,-1
 976 0 l 1,23,24
 918 4 918 4 872 49 c 128,-1,25
 826 94 826 94 824 160 c 2,26,-1
 824 680 l 1,27,-1
 476 680 l 1,28,-1
 476 160 l 2,29,30
 474 94 474 94 428 49 c 128,-1,31
 382 4 382 4 324 0 c 1,32,-1
 230 0 l 1,33,34
 174 4 174 4 128 49 c 128,-1,35
 82 94 82 94 80 160 c 2,0,-1
EndSplineSet
Validated: 1
EndChar

StartChar: I
Encoding: 73 73 44
Width: 556
GlyphClass: 2
Flags: W
LayerCount: 2
Fore
SplineSet
80 160 m 2,0,-1
 80 1516 l 2,1,2
 82 1582 82 1582 128 1627 c 128,-1,3
 174 1672 174 1672 232 1676 c 1,4,-1
 324 1676 l 1,5,6
 382 1672 382 1672 428 1627 c 128,-1,7
 474 1582 474 1582 476 1516 c 2,8,-1
 476 160 l 2,9,10
 474 94 474 94 428 49 c 128,-1,11
 382 4 382 4 324 0 c 1,12,-1
 230 0 l 1,13,14
 174 4 174 4 128 49 c 128,-1,15
 82 94 82 94 80 160 c 2,0,-1
EndSplineSet
Validated: 1
EndChar

StartChar: J
Encoding: 74 74 45
Width: 1304
GlyphClass: 2
Flags: W
LayerCount: 2
Fore
SplineSet
80 436 m 1,0,-1
 80 508 l 2,1,2
 82 574 82 574 128 619 c 128,-1,3
 174 664 174 664 232 668 c 1,4,-1
 324 668 l 1,5,6
 382 664 382 664 428 619 c 128,-1,7
 474 574 474 574 476 508 c 1,8,9
 486 406 486 406 532 361 c 128,-1,10
 578 316 578 316 636 312 c 1,11,-1
 668 312 l 1,12,13
 726 316 726 316 772 361 c 128,-1,14
 818 406 818 406 820 472 c 2,15,-1
 820 1516 l 2,16,17
 822 1582 822 1582 868 1627 c 128,-1,18
 914 1672 914 1672 972 1676 c 1,19,-1
 1072 1676 l 1,20,21
 1130 1672 1130 1672 1176 1627 c 128,-1,22
 1222 1582 1222 1582 1224 1516 c 2,23,-1
 1224 436 l 1,24,25
 1218 340 1218 340 1147 231 c 128,-1,26
 1076 122 1076 122 964 62 c 128,-1,27
 852 2 852 2 748 0 c 2,28,-1
 576 0 l 2,29,30
 452 2 452 2 340 62 c 128,-1,31
 228 122 228 122 157 231 c 128,-1,32
 86 340 86 340 80 436 c 1,0,-1
EndSplineSet
Validated: 1
EndChar

StartChar: K
Encoding: 75 75 46
Width: 1294
GlyphClass: 2
Flags: W
LayerCount: 2
Fore
SplineSet
80 160 m 2,0,-1
 80 1516 l 2,1,2
 82 1582 82 1582 128 1627 c 128,-1,3
 174 1672 174 1672 232 1676 c 1,4,-1
 324 1676 l 1,5,6
 382 1672 382 1672 428 1627 c 128,-1,7
 474 1582 474 1582 476 1516 c 2,8,-1
 476 1106 l 1,9,-1
 864 1632 l 1,10,11
 910 1678 910 1678 976 1680 c 2,12,-1
 1068 1680 l 1,13,14
 1128 1676 1128 1676 1165 1639 c 128,-1,15
 1202 1602 1202 1602 1207 1555 c 0,16,17
 1208 1544 1208 1544 1208 1533 c 0,18,19
 1208 1500 1208 1500 1196 1476 c 1,20,-1
 804 952 l 1,21,-1
 1200 156 l 2,22,23
 1207 135 1207 135 1207 116 c 0,24,25
 1207 78 1207 78 1178 45 c 0,26,27
 1137 0 1137 0 1074 0 c 0,28,29
 1069 0 1069 0 1064 0 c 2,30,-1
 980 0 l 2,31,32
 886 2 886 2 848 72 c 2,33,-1
 564 636 l 1,34,-1
 476 526 l 1,35,-1
 476 160 l 2,36,37
 474 94 474 94 428 49 c 128,-1,38
 382 4 382 4 324 0 c 1,39,-1
 230 0 l 1,40,41
 174 4 174 4 128 49 c 128,-1,42
 82 94 82 94 80 160 c 2,0,-1
EndSplineSet
Validated: 1
EndChar

StartChar: L
Encoding: 76 76 47
Width: 1296
GlyphClass: 2
Flags: W
LayerCount: 2
Fore
SplineSet
80 436 m 1,0,-1
 80 1516 l 2,1,2
 82 1582 82 1582 128 1627 c 128,-1,3
 174 1672 174 1672 230 1676 c 1,4,-1
 332 1676 l 1,5,6
 390 1672 390 1672 436 1627 c 128,-1,7
 482 1582 482 1582 484 1516 c 2,8,-1
 484 472 l 2,9,10
 486 406 486 406 532 361 c 128,-1,11
 578 316 578 316 636 312 c 1,12,-1
 1048 312 l 2,13,14
 1050 312 1050 312 1052 312 c 0,15,16
 1192 312 1192 312 1224 184 c 1,17,-1
 1224 128 l 1,18,19
 1192 0 1192 0 1052 0 c 0,20,21
 1050 0 1050 0 1048 0 c 2,22,-1
 556 0 l 2,23,24
 452 2 452 2 340 62 c 128,-1,25
 228 122 228 122 157 231 c 128,-1,26
 86 340 86 340 80 436 c 1,0,-1
EndSplineSet
Validated: 1
EndChar

StartChar: M
Encoding: 77 77 48
Width: 1760
GlyphClass: 2
Flags: W
LayerCount: 2
Fore
SplineSet
80 160 m 2,0,-1
 80 1516 l 2,1,2
 82 1582 82 1582 128 1627 c 128,-1,3
 174 1672 174 1672 232 1676 c 1,4,-1
 440 1676 l 1,5,6
 568 1670 568 1670 612 1544 c 1,7,-1
 872 648 l 1,8,-1
 888 648 l 1,9,-1
 1148 1544 l 1,10,11
 1192 1670 1192 1670 1320 1676 c 1,12,-1
 1528 1676 l 1,13,14
 1586 1672 1586 1672 1632 1627 c 128,-1,15
 1678 1582 1678 1582 1680 1516 c 2,16,-1
 1680 160 l 2,17,18
 1678 94 1678 94 1632 49 c 128,-1,19
 1586 4 1586 4 1530 0 c 1,20,-1
 1432 0 l 1,21,22
 1374 4 1374 4 1328 49 c 128,-1,23
 1282 94 1282 94 1280 160 c 2,24,-1
 1280 872 l 1,25,-1
 1044 68 l 1,26,27
 1016 2 1016 2 916 0 c 2,28,-1
 844 0 l 2,29,30
 744 2 744 2 716 68 c 1,31,-1
 480 872 l 1,32,-1
 480 160 l 2,33,34
 478 94 478 94 432 49 c 128,-1,35
 386 4 386 4 328 0 c 1,36,-1
 230 0 l 1,37,38
 174 4 174 4 128 49 c 128,-1,39
 82 94 82 94 80 160 c 2,0,-1
EndSplineSet
Validated: 1
EndChar

StartChar: N
Encoding: 78 78 49
Width: 1304
GlyphClass: 2
Flags: W
LayerCount: 2
Fore
SplineSet
80 160 m 2,0,-1
 80 1516 l 2,1,2
 82 1582 82 1582 128 1627 c 128,-1,3
 174 1672 174 1672 232 1676 c 1,4,-1
 324 1676 l 1,5,6
 444 1666 444 1666 508 1536 c 2,7,-1
 828 872 l 1,8,-1
 828 1516 l 2,9,10
 830 1582 830 1582 876 1627 c 128,-1,11
 922 1672 922 1672 980 1676 c 1,12,-1
 1072 1676 l 1,13,14
 1130 1672 1130 1672 1176 1627 c 128,-1,15
 1222 1582 1222 1582 1224 1516 c 2,16,-1
 1224 160 l 2,17,18
 1222 94 1222 94 1176 49 c 128,-1,19
 1130 4 1130 4 1072 0 c 1,20,-1
 980 0 l 1,21,22
 860 10 860 10 796 140 c 2,23,-1
 476 804 l 1,24,-1
 476 160 l 2,25,26
 474 94 474 94 428 49 c 128,-1,27
 382 4 382 4 324 0 c 1,28,-1
 232 0 l 1,29,30
 174 4 174 4 128 49 c 128,-1,31
 82 94 82 94 80 160 c 2,0,-1
EndSplineSet
Validated: 1
EndChar

StartChar: O
Encoding: 79 79 50
Width: 1304
GlyphClass: 2
Flags: W
LayerCount: 2
Fore
SplineSet
80 436 m 1,0,-1
 80 1240 l 1,1,2
 86 1336 86 1336 157 1445 c 128,-1,3
 228 1554 228 1554 340 1614 c 128,-1,4
 452 1674 452 1674 556 1676 c 2,5,-1
 726 1676 l 2,6,7
 852 1674 852 1674 964 1614 c 128,-1,8
 1076 1554 1076 1554 1147 1445 c 128,-1,9
 1218 1336 1218 1336 1224 1240 c 1,10,-1
 1224 436 l 1,11,12
 1218 340 1218 340 1147 231 c 128,-1,13
 1076 122 1076 122 964 62 c 128,-1,14
 852 2 852 2 726 0 c 2,15,-1
 556 0 l 2,16,17
 452 2 452 2 340 62 c 128,-1,18
 228 122 228 122 157 231 c 128,-1,19
 86 340 86 340 80 436 c 1,0,-1
484 472 m 2,20,21
 486 406 486 406 532 361 c 128,-1,22
 578 316 578 316 636 312 c 1,23,-1
 668 312 l 1,24,25
 726 316 726 316 772 361 c 128,-1,26
 818 406 818 406 820 472 c 2,27,-1
 820 1204 l 2,28,29
 818 1270 818 1270 772 1315 c 128,-1,30
 726 1360 726 1360 668 1364 c 1,31,-1
 636 1364 l 1,32,33
 578 1360 578 1360 532 1315 c 128,-1,34
 486 1270 486 1270 484 1204 c 2,35,-1
 484 472 l 2,20,21
EndSplineSet
Validated: 1
EndChar

StartChar: P
Encoding: 80 80 51
Width: 1304
GlyphClass: 2
Flags: W
LayerCount: 2
Fore
SplineSet
80 160 m 2,0,-1
 80 1244 l 1,1,2
 86 1340 86 1340 157 1449 c 128,-1,3
 228 1558 228 1558 340 1618 c 128,-1,4
 452 1678 452 1678 556 1680 c 2,5,-1
 726 1680 l 2,6,7
 852 1678 852 1678 964 1618 c 128,-1,8
 1076 1558 1076 1558 1147 1449 c 128,-1,9
 1218 1340 1218 1340 1224 1244 c 1,10,-1
 1224 1116 l 1,11,12
 1218 1020 1218 1020 1147 911 c 128,-1,13
 1076 802 1076 802 964 742 c 128,-1,14
 852 682 852 682 730 680 c 2,15,-1
 480 680 l 1,16,-1
 480 160 l 2,17,18
 478 94 478 94 432 49 c 128,-1,19
 386 4 386 4 328 0 c 1,20,-1
 230 0 l 1,21,22
 174 4 174 4 128 49 c 128,-1,23
 82 94 82 94 80 160 c 2,0,-1
480 996 m 1,24,-1
 668 996 l 1,25,26
 726 1000 726 1000 772 1045 c 128,-1,27
 818 1090 818 1090 820 1156 c 2,28,-1
 820 1208 l 2,29,30
 818 1274 818 1274 772 1319 c 128,-1,31
 726 1364 726 1364 668 1368 c 1,32,-1
 632 1368 l 1,33,34
 574 1364 574 1364 528 1319 c 128,-1,35
 482 1274 482 1274 480 1208 c 2,36,-1
 480 996 l 1,24,-1
EndSplineSet
Validated: 1
EndChar

StartChar: Q
Encoding: 81 81 52
Width: 1304
GlyphClass: 2
Flags: W
LayerCount: 2
Fore
SplineSet
80 436 m 1,0,-1
 80 1240 l 1,1,2
 86 1336 86 1336 157 1445 c 128,-1,3
 228 1554 228 1554 340 1614 c 128,-1,4
 452 1674 452 1674 556 1676 c 2,5,-1
 726 1676 l 2,6,7
 852 1674 852 1674 964 1614 c 128,-1,8
 1076 1554 1076 1554 1147 1445 c 128,-1,9
 1218 1336 1218 1336 1224 1240 c 1,10,-1
 1224 436 l 1,11,12
 1218 340 1218 340 1148 233 c 128,-1,13
 1078 126 1078 126 974 68 c 1,14,-1
 1012 -74 l 2,15,16
 1012 -80 1012 -80 1012 -86 c 0,17,18
 1012 -144 1012 -144 975 -189 c 0,19,20
 934 -238 934 -238 876 -248 c 2,21,-1
 788 -260 l 2,22,23
 777 -262 777 -262 766 -262 c 0,24,25
 720 -262 720 -262 684 -226 c 0,26,27
 640 -182 640 -182 618 -114 c 2,28,-1
 586 0 l 1,29,-1
 556 0 l 2,30,31
 452 2 452 2 340 62 c 128,-1,32
 228 122 228 122 157 231 c 128,-1,33
 86 340 86 340 80 436 c 1,0,-1
484 472 m 2,34,35
 486 406 486 406 532 361 c 128,-1,36
 578 316 578 316 636 312 c 1,37,-1
 668 312 l 1,38,39
 726 316 726 316 772 361 c 128,-1,40
 818 406 818 406 820 472 c 2,41,-1
 820 1204 l 2,42,43
 818 1270 818 1270 772 1315 c 128,-1,44
 726 1360 726 1360 668 1364 c 1,45,-1
 636 1364 l 1,46,47
 578 1360 578 1360 532 1315 c 128,-1,48
 486 1270 486 1270 484 1204 c 2,49,-1
 484 472 l 2,34,35
EndSplineSet
Validated: 1
EndChar

StartChar: R
Encoding: 82 82 53
Width: 1298
GlyphClass: 2
Flags: W
LayerCount: 2
Fore
SplineSet
80 160 m 2,0,-1
 80 1240 l 1,1,2
 86 1336 86 1336 157 1445 c 128,-1,3
 228 1554 228 1554 340 1614 c 128,-1,4
 452 1674 452 1674 556 1676 c 2,5,-1
 726 1676 l 2,6,7
 852 1674 852 1674 964 1614 c 128,-1,8
 1076 1554 1076 1554 1147 1445 c 128,-1,9
 1218 1336 1218 1336 1224 1240 c 1,10,-1
 1224 1116 l 1,11,12
 1218 1020 1218 1020 1147 911 c 128,-1,13
 1076 802 1076 802 1010 766 c 128,-1,14
 944 730 944 730 922 722 c 1,15,-1
 1204 156 l 2,16,17
 1211 135 1211 135 1211 116 c 0,18,19
 1211 78 1211 78 1182 45 c 0,20,21
 1141 0 1141 0 1078 0 c 0,22,23
 1073 0 1073 0 1068 0 c 2,24,-1
 984 0 l 2,25,26
 890 2 890 2 852 72 c 2,27,-1
 552 680 l 1,28,-1
 480 680 l 1,29,-1
 480 160 l 2,30,31
 478 94 478 94 432 49 c 128,-1,32
 386 4 386 4 328 0 c 1,33,-1
 230 0 l 1,34,35
 174 4 174 4 128 49 c 128,-1,36
 82 94 82 94 80 160 c 2,0,-1
480 996 m 1,37,-1
 668 996 l 1,38,39
 726 1000 726 1000 772 1045 c 128,-1,40
 818 1090 818 1090 820 1156 c 2,41,-1
 820 1204 l 2,42,43
 818 1270 818 1270 772 1315 c 128,-1,44
 726 1360 726 1360 668 1364 c 1,45,-1
 632 1364 l 1,46,47
 574 1360 574 1360 528 1315 c 128,-1,48
 482 1270 482 1270 480 1204 c 2,49,-1
 480 996 l 1,37,-1
EndSplineSet
Validated: 1
EndChar

StartChar: S
Encoding: 83 83 54
Width: 1300
GlyphClass: 2
Flags: W
LayerCount: 2
Fore
SplineSet
78 436 m 1,0,-1
 78 508 l 2,1,2
 80 574 80 574 126 619 c 128,-1,3
 172 664 172 664 230 668 c 1,4,-1
 322 668 l 1,5,6
 380 664 380 664 426 619 c 128,-1,7
 472 574 472 574 474 508 c 1,8,9
 484 406 484 406 530 361 c 128,-1,10
 576 316 576 316 634 312 c 1,11,-1
 666 312 l 1,12,13
 724 316 724 316 770 361 c 128,-1,14
 816 406 816 406 818 472 c 0,15,16
 818 510 818 510 782 532 c 1,17,-1
 198 1000 l 1,18,19
 78 1084 78 1084 78 1226 c 0,20,21
 78 1233 78 1233 78 1240 c 0,22,23
 84 1336 84 1336 155 1445 c 128,-1,24
 226 1554 226 1554 338 1614 c 128,-1,25
 450 1674 450 1674 554 1676 c 2,26,-1
 726 1676 l 2,27,28
 850 1674 850 1674 962 1614 c 128,-1,29
 1074 1554 1074 1554 1145 1445 c 128,-1,30
 1216 1336 1216 1336 1222 1240 c 1,31,-1
 1222 1168 l 2,32,33
 1220 1102 1220 1102 1174 1057 c 128,-1,34
 1128 1012 1128 1012 1070 1008 c 1,35,-1
 978 1008 l 1,36,37
 920 1012 920 1012 874 1057 c 128,-1,38
 828 1102 828 1102 826 1168 c 1,39,40
 816 1270 816 1270 770 1315 c 128,-1,41
 724 1360 724 1360 666 1364 c 1,42,-1
 634 1364 l 1,43,44
 576 1360 576 1360 530 1315 c 128,-1,45
 484 1270 484 1270 482 1204 c 0,46,47
 482 1166 482 1166 518 1144 c 1,48,-1
 1102 676 l 1,49,50
 1222 592 1222 592 1222 450 c 0,51,52
 1222 443 1222 443 1222 436 c 0,53,54
 1216 340 1216 340 1145 231 c 128,-1,55
 1074 122 1074 122 962 62 c 128,-1,56
 850 2 850 2 746 0 c 2,57,-1
 574 0 l 2,58,59
 450 2 450 2 338 62 c 128,-1,60
 226 122 226 122 155 231 c 128,-1,61
 84 340 84 340 78 436 c 1,0,-1
EndSplineSet
Validated: 1
EndChar

StartChar: T
Encoding: 84 84 55
Width: 1288
GlyphClass: 2
Flags: W
LayerCount: 2
Fore
SplineSet
72 1492 m 1,0,-1
 72 1548 l 1,1,2
 104 1676 104 1676 244 1676 c 0,3,4
 246 1676 246 1676 248 1676 c 2,5,-1
 1040 1676 l 2,6,7
 1042 1676 1042 1676 1044 1676 c 0,8,9
 1184 1676 1184 1676 1216 1548 c 1,10,-1
 1216 1492 l 1,11,12
 1184 1364 1184 1364 1044 1364 c 0,13,14
 1042 1364 1042 1364 1040 1364 c 2,15,-1
 840 1364 l 1,16,-1
 840 160 l 2,17,18
 838 94 838 94 792 49 c 128,-1,19
 746 4 746 4 688 0 c 1,20,-1
 594 0 l 1,21,22
 538 4 538 4 492 49 c 128,-1,23
 446 94 446 94 444 160 c 2,24,-1
 444 1364 l 1,25,-1
 248 1364 l 2,26,27
 246 1364 246 1364 244 1364 c 0,28,29
 104 1364 104 1364 72 1492 c 1,0,-1
EndSplineSet
Validated: 1
EndChar

StartChar: U
Encoding: 85 85 56
Width: 1304
GlyphClass: 2
Flags: W
LayerCount: 2
Fore
SplineSet
80 436 m 1,0,-1
 80 1516 l 2,1,2
 82 1582 82 1582 128 1627 c 128,-1,3
 174 1672 174 1672 232 1676 c 1,4,-1
 324 1676 l 1,5,6
 382 1672 382 1672 428 1627 c 128,-1,7
 474 1582 474 1582 476 1516 c 2,8,-1
 476 472 l 1,9,10
 486 406 486 406 532 361 c 128,-1,11
 578 316 578 316 636 312 c 1,12,-1
 668 312 l 1,13,14
 726 316 726 316 772 361 c 128,-1,15
 818 406 818 406 820 472 c 2,16,-1
 820 1516 l 2,17,18
 822 1582 822 1582 868 1627 c 128,-1,19
 914 1672 914 1672 972 1676 c 1,20,-1
 1072 1676 l 1,21,22
 1130 1672 1130 1672 1176 1627 c 128,-1,23
 1222 1582 1222 1582 1224 1516 c 2,24,-1
 1224 436 l 1,25,26
 1218 340 1218 340 1147 231 c 128,-1,27
 1076 122 1076 122 964 62 c 128,-1,28
 852 2 852 2 748 0 c 2,29,-1
 576 0 l 2,30,31
 452 2 452 2 340 62 c 128,-1,32
 228 122 228 122 157 231 c 128,-1,33
 86 340 86 340 80 436 c 1,0,-1
EndSplineSet
Validated: 1
EndChar

StartChar: V
Encoding: 86 86 57
Width: 1264
GlyphClass: 2
Flags: W
LayerCount: 2
Fore
SplineSet
60 1516 m 1,0,1
 62 1582 62 1582 108 1627 c 128,-1,2
 154 1672 154 1672 212 1676 c 1,3,-1
 304 1676 l 1,4,5
 404 1668 404 1668 444 1576 c 1,6,-1
 564 332 l 1,7,8
 578 314 578 314 604 312 c 2,9,-1
 660 312 l 2,10,11
 686 314 686 314 700 332 c 1,12,-1
 820 1576 l 1,13,14
 860 1668 860 1668 960 1676 c 1,15,-1
 1052 1676 l 1,16,17
 1110 1672 1110 1672 1156 1627 c 128,-1,18
 1202 1582 1202 1582 1204 1516 c 1,19,-1
 1072 188 l 1,20,21
 1056 112 1056 112 947 55 c 0,22,23
 842 0 842 0 732 0 c 0,24,25
 728 0 728 0 724 0 c 2,26,-1
 540 0 l 2,27,28
 536 0 536 0 532 0 c 0,29,30
 422 0 422 0 317 55 c 0,31,32
 208 112 208 112 192 188 c 1,33,-1
 60 1516 l 1,0,1
EndSplineSet
Validated: 1
EndChar

StartChar: W
Encoding: 87 87 58
Width: 1864
GlyphClass: 2
Flags: W
LayerCount: 2
Fore
SplineSet
60 1516 m 1,0,1
 62 1582 62 1582 108 1627 c 128,-1,2
 154 1672 154 1672 212 1676 c 1,3,-1
 304 1676 l 1,4,5
 404 1668 404 1668 444 1576 c 1,6,-1
 564 360 l 2,7,8
 568 312 568 312 604 312 c 0,9,10
 644 314 644 314 648 360 c 2,11,-1
 764 1576 l 1,12,13
 804 1668 804 1668 904 1676 c 1,14,-1
 960 1676 l 1,15,16
 1060 1668 1060 1668 1100 1576 c 1,17,-1
 1216 360 l 2,18,19
 1220 314 1220 314 1260 312 c 0,20,21
 1296 312 1296 312 1300 360 c 2,22,-1
 1420 1576 l 1,23,24
 1460 1668 1460 1668 1560 1676 c 1,25,-1
 1652 1676 l 1,26,27
 1710 1672 1710 1672 1756 1627 c 128,-1,28
 1802 1582 1802 1582 1804 1516 c 1,29,-1
 1672 188 l 1,30,31
 1656 112 1656 112 1547 55 c 0,32,33
 1442 0 1442 0 1332 0 c 0,34,35
 1328 0 1328 0 1324 0 c 2,36,-1
 1276 0 l 2,37,38
 1267 -1 1267 -1 1257 -1 c 0,39,40
 1167 -1 1167 -1 1069 51 c 0,41,42
 960 108 960 108 932 276 c 1,43,44
 904 108 904 108 795 51 c 0,45,46
 696 -1 696 -1 607 -1 c 0,47,48
 598 -1 598 -1 588 0 c 2,49,-1
 540 0 l 2,50,51
 536 0 536 0 532 0 c 0,52,53
 422 0 422 0 317 55 c 0,54,55
 208 112 208 112 192 188 c 1,56,-1
 60 1516 l 1,0,1
EndSplineSet
Validated: 1
EndChar

StartChar: X
Encoding: 88 88 59
Width: 1320
GlyphClass: 2
Flags: W
LayerCount: 2
Fore
SplineSet
102 1520 m 2,0,1
 95 1541 95 1541 95 1560 c 0,2,3
 95 1598 95 1598 124 1631 c 0,4,5
 165 1676 165 1676 228 1676 c 0,6,7
 233 1676 233 1676 238 1676 c 2,8,-1
 322 1676 l 2,9,10
 416 1674 416 1674 454 1604 c 2,11,-1
 660 1212 l 1,12,-1
 866 1604 l 2,13,14
 904 1674 904 1674 998 1676 c 2,15,-1
 1082 1676 l 2,16,17
 1087 1676 1087 1676 1092 1676 c 0,18,19
 1155 1676 1155 1676 1196 1631 c 0,20,21
 1225 1598 1225 1598 1225 1560 c 0,22,23
 1225 1541 1225 1541 1218 1520 c 2,24,-1
 858 834 l 1,25,-1
 1214 156 l 2,26,27
 1221 135 1221 135 1221 116 c 0,28,29
 1221 78 1221 78 1192 45 c 0,30,31
 1151 0 1151 0 1088 0 c 0,32,33
 1083 0 1083 0 1078 0 c 2,34,-1
 994 0 l 2,35,36
 900 2 900 2 862 72 c 2,37,-1
 660 456 l 1,38,-1
 458 72 l 2,39,40
 420 2 420 2 326 0 c 2,41,-1
 242 0 l 2,42,43
 237 0 237 0 232 0 c 0,44,45
 169 0 169 0 128 45 c 0,46,47
 99 78 99 78 99 116 c 0,48,49
 99 135 99 135 106 156 c 2,50,-1
 462 834 l 1,51,-1
 102 1520 l 2,0,1
EndSplineSet
Validated: 1
EndChar

StartChar: Y
Encoding: 89 89 60
Width: 1260
GlyphClass: 2
Flags: W
LayerCount: 2
Fore
SplineSet
82 1520 m 2,0,1
 75 1541 75 1541 75 1560 c 0,2,3
 75 1598 75 1598 104 1631 c 0,4,5
 145 1676 145 1676 208 1676 c 0,6,7
 213 1676 213 1676 218 1676 c 2,8,-1
 302 1676 l 2,9,10
 396 1674 396 1674 434 1604 c 1,11,-1
 630 1172 l 1,12,-1
 826 1604 l 1,13,14
 864 1674 864 1674 958 1676 c 2,15,-1
 1042 1676 l 2,16,17
 1047 1676 1047 1676 1052 1676 c 0,18,19
 1115 1676 1115 1676 1156 1631 c 0,20,21
 1185 1598 1185 1598 1185 1560 c 0,22,23
 1185 1541 1185 1541 1178 1520 c 2,24,-1
 828 744 l 1,25,-1
 828 160 l 2,26,27
 826 94 826 94 780 49 c 128,-1,28
 734 4 734 4 676 0 c 1,29,-1
 582 0 l 1,30,31
 526 4 526 4 480 49 c 128,-1,32
 434 94 434 94 432 160 c 2,33,-1
 432 744 l 1,34,-1
 82 1520 l 2,0,1
EndSplineSet
Validated: 1
EndChar

StartChar: Z
Encoding: 90 90 61
Width: 1300
GlyphClass: 2
Flags: W
LayerCount: 2
Fore
SplineSet
80 436 m 1,0,-1
 80 496 l 1,1,2
 90 602 90 602 156 648 c 1,3,-1
 816 1188 l 1,4,-1
 816 1200 l 2,5,6
 814 1254 814 1254 770 1297 c 128,-1,7
 726 1340 726 1340 668 1344 c 1,8,-1
 256 1344 l 2,9,10
 254 1344 254 1344 252 1344 c 0,11,12
 112 1344 112 1344 80 1472 c 1,13,-1
 80 1528 l 1,14,15
 112 1656 112 1656 252 1656 c 0,16,17
 254 1656 254 1656 256 1656 c 2,18,-1
 748 1656 l 2,19,20
 852 1654 852 1654 964 1594 c 128,-1,21
 1076 1534 1076 1534 1145 1425 c 128,-1,22
 1214 1316 1214 1316 1220 1220 c 1,23,-1
 1220 1160 l 1,24,25
 1210 1054 1210 1054 1144 1008 c 1,26,-1
 484 468 l 1,27,-1
 484 456 l 2,28,29
 486 402 486 402 530 359 c 128,-1,30
 574 316 574 316 632 312 c 1,31,-1
 1044 312 l 2,32,33
 1046 312 1046 312 1048 312 c 0,34,35
 1188 312 1188 312 1220 184 c 1,36,-1
 1220 128 l 1,37,38
 1188 0 1188 0 1048 0 c 0,39,40
 1046 0 1046 0 1044 0 c 2,41,-1
 552 0 l 2,42,43
 448 2 448 2 336 62 c 128,-1,44
 224 122 224 122 155 231 c 128,-1,45
 86 340 86 340 80 436 c 1,0,-1
EndSplineSet
Validated: 1
EndChar

StartChar: underscore
Encoding: 95 95 66
Width: 1096
GlyphClass: 2
Flags: W
LayerCount: 2
Fore
SplineSet
88 128 m 1,0,-1
 88 184 l 1,1,2
 120 314 120 314 264 312 c 2,3,-1
 832 312 l 2,4,5
 976 314 976 314 1008 184 c 1,6,-1
 1008 128 l 1,7,8
 976 -2 976 -2 832 0 c 2,9,-1
 264 0 l 2,10,11
 120 -2 120 -2 88 128 c 1,0,-1
EndSplineSet
Validated: 33
EndChar

StartChar: grave
Encoding: 96 96 67
Width: 1264
GlyphClass: 2
Flags: W
LayerCount: 2
Fore
SplineSet
204 2038 m 1,0,-1
 220 2098 l 1,1,2
 276 2220 276 2220 418 2186 c 2,3,-1
 914 2080 l 2,4,5
 1054 2052 1054 2052 1060 1918 c 1,6,-1
 1044 1858 l 1,7,8
 988 1736 988 1736 846 1770 c 2,9,-1
 350 1876 l 2,10,11
 210 1904 210 1904 204 2038 c 1,0,-1
EndSplineSet
Validated: 33
EndChar

StartChar: a
Encoding: 97 97 68
Width: 1264
GlyphClass: 2
Flags: W
LayerCount: 2
Fore
SplineSet
60 160 m 1,0,-1
 192 1488 l 1,1,2
 208 1564 208 1564 317 1621 c 0,3,4
 422 1676 422 1676 532 1676 c 0,5,6
 536 1676 536 1676 540 1676 c 2,7,-1
 724 1676 l 2,8,9
 728 1676 728 1676 732 1676 c 0,10,11
 842 1676 842 1676 947 1621 c 0,12,13
 1056 1564 1056 1564 1072 1488 c 1,14,-1
 1204 160 l 1,15,16
 1202 94 1202 94 1156 49 c 128,-1,17
 1110 4 1110 4 1052 0 c 1,18,-1
 960 0 l 1,19,20
 860 8 860 8 820 100 c 1,21,-1
 764 680 l 1,22,-1
 500 680 l 1,23,-1
 444 100 l 1,24,25
 404 8 404 8 304 0 c 1,26,-1
 212 0 l 1,27,28
 154 4 154 4 108 49 c 128,-1,29
 62 94 62 94 60 160 c 1,0,-1
530 996 m 1,30,-1
 734 996 l 1,31,-1
 700 1344 l 1,32,33
 686 1362 686 1362 660 1364 c 2,34,-1
 604 1364 l 2,35,36
 578 1362 578 1362 564 1344 c 1,37,-1
 530 996 l 1,30,-1
EndSplineSet
Validated: 1
EndChar

StartChar: b
Encoding: 98 98 69
Width: 1304
GlyphClass: 2
Flags: W
LayerCount: 2
Fore
SplineSet
80 236 m 2,0,-1
 80 1440 l 2,1,2
 82 1546 82 1546 180 1613 c 0,3,4
 272 1676 272 1676 404 1676 c 0,5,6
 412 1676 412 1676 420 1676 c 2,7,-1
 726 1676 l 2,8,9
 852 1674 852 1674 964 1614 c 128,-1,10
 1076 1554 1076 1554 1147 1445 c 128,-1,11
 1218 1336 1218 1336 1224 1240 c 1,12,-1
 1224 1116 l 1,13,14
 1218 1020 1218 1020 1170 946 c 128,-1,15
 1122 872 1122 872 1090 838 c 1,16,17
 1122 804 1122 804 1170 730 c 128,-1,18
 1218 656 1218 656 1224 560 c 1,19,-1
 1224 436 l 1,20,21
 1218 340 1218 340 1147 231 c 128,-1,22
 1076 122 1076 122 964 62 c 128,-1,23
 852 2 852 2 726 0 c 2,24,-1
 420 0 l 2,25,26
 412 0 412 0 404 0 c 0,27,28
 272 0 272 0 180 63 c 0,29,30
 82 130 82 130 80 236 c 2,0,-1
480 364 m 1,31,32
 486 312 486 312 551 312 c 0,33,34
 553 312 553 312 556 312 c 2,35,-1
 668 312 l 1,36,37
 726 316 726 316 772 361 c 128,-1,38
 818 406 818 406 820 472 c 2,39,-1
 820 520 l 2,40,41
 818 586 818 586 772 631 c 128,-1,42
 726 676 726 676 668 680 c 1,43,-1
 480 680 l 1,44,-1
 480 364 l 1,31,32
480 996 m 1,45,-1
 668 996 l 1,46,47
 726 1000 726 1000 772 1045 c 128,-1,48
 818 1090 818 1090 820 1156 c 2,49,-1
 820 1204 l 2,50,51
 818 1270 818 1270 772 1315 c 128,-1,52
 726 1360 726 1360 668 1364 c 1,53,-1
 556 1364 l 2,54,55
 554 1364 554 1364 551 1364 c 0,56,57
 486 1364 486 1364 480 1312 c 1,58,-1
 480 996 l 1,45,-1
EndSplineSet
Validated: 1
EndChar

StartChar: c
Encoding: 99 99 70
Width: 1304
GlyphClass: 2
Flags: W
LayerCount: 2
Fore
SplineSet
80 436 m 1,0,-1
 80 1240 l 1,1,2
 86 1336 86 1336 157 1445 c 128,-1,3
 228 1554 228 1554 340 1614 c 128,-1,4
 452 1674 452 1674 556 1676 c 2,5,-1
 728 1676 l 2,6,7
 852 1674 852 1674 964 1614 c 128,-1,8
 1076 1554 1076 1554 1147 1445 c 128,-1,9
 1218 1336 1218 1336 1224 1240 c 1,10,-1
 1224 1168 l 2,11,12
 1222 1102 1222 1102 1176 1057 c 128,-1,13
 1130 1012 1130 1012 1072 1008 c 1,14,-1
 980 1008 l 1,15,16
 922 1012 922 1012 876 1057 c 128,-1,17
 830 1102 830 1102 828 1168 c 1,18,19
 818 1270 818 1270 772 1315 c 128,-1,20
 726 1360 726 1360 668 1364 c 1,21,-1
 636 1364 l 1,22,23
 578 1360 578 1360 532 1315 c 128,-1,24
 486 1270 486 1270 484 1204 c 2,25,-1
 484 472 l 2,26,27
 486 406 486 406 532 361 c 128,-1,28
 578 316 578 316 636 312 c 1,29,-1
 668 312 l 1,30,31
 726 316 726 316 772 361 c 128,-1,32
 818 406 818 406 828 508 c 1,33,34
 830 574 830 574 876 619 c 128,-1,35
 922 664 922 664 980 668 c 1,36,-1
 1072 668 l 1,37,38
 1130 664 1130 664 1176 619 c 128,-1,39
 1222 574 1222 574 1224 508 c 2,40,-1
 1224 436 l 1,41,42
 1218 340 1218 340 1147 231 c 128,-1,43
 1076 122 1076 122 964 62 c 128,-1,44
 852 2 852 2 728 0 c 2,45,-1
 556 0 l 2,46,47
 452 2 452 2 340 62 c 128,-1,48
 228 122 228 122 157 231 c 128,-1,49
 86 340 86 340 80 436 c 1,0,-1
EndSplineSet
Validated: 1
EndChar

StartChar: d
Encoding: 100 100 71
Width: 1304
GlyphClass: 2
Flags: W
LayerCount: 2
Fore
SplineSet
80 236 m 2,0,-1
 80 1440 l 2,1,2
 82 1546 82 1546 180 1613 c 0,3,4
 272 1676 272 1676 404 1676 c 0,5,6
 412 1676 412 1676 420 1676 c 2,7,-1
 726 1676 l 2,8,9
 852 1674 852 1674 964 1614 c 128,-1,10
 1076 1554 1076 1554 1147 1445 c 128,-1,11
 1218 1336 1218 1336 1224 1240 c 1,12,-1
 1224 436 l 1,13,14
 1218 340 1218 340 1147 231 c 128,-1,15
 1076 122 1076 122 964 62 c 128,-1,16
 852 2 852 2 726 0 c 2,17,-1
 420 0 l 2,18,19
 412 0 412 0 404 0 c 0,20,21
 272 0 272 0 180 63 c 0,22,23
 82 130 82 130 80 236 c 2,0,-1
480 364 m 1,24,25
 486 312 486 312 551 312 c 0,26,27
 553 312 553 312 556 312 c 2,28,-1
 668 312 l 1,29,30
 726 316 726 316 772 361 c 128,-1,31
 818 406 818 406 820 472 c 2,32,-1
 820 1204 l 2,33,34
 818 1270 818 1270 772 1315 c 128,-1,35
 726 1360 726 1360 668 1364 c 1,36,-1
 556 1364 l 2,37,38
 554 1364 554 1364 551 1364 c 0,39,40
 486 1364 486 1364 480 1312 c 1,41,-1
 480 364 l 1,24,25
EndSplineSet
Validated: 1
EndChar

StartChar: e
Encoding: 101 101 72
Width: 1304
GlyphClass: 2
Flags: W
LayerCount: 2
Fore
SplineSet
80 436 m 1,0,-1
 80 1240 l 1,1,2
 86 1336 86 1336 157 1445 c 128,-1,3
 228 1554 228 1554 340 1614 c 128,-1,4
 452 1674 452 1674 556 1676 c 2,5,-1
 1048 1676 l 2,6,7
 1050 1676 1050 1676 1052 1676 c 0,8,9
 1192 1676 1192 1676 1224 1548 c 1,10,-1
 1224 1492 l 1,11,12
 1192 1364 1192 1364 1052 1364 c 0,13,14
 1050 1364 1050 1364 1048 1364 c 2,15,-1
 636 1364 l 1,16,17
 578 1360 578 1360 532 1315 c 128,-1,18
 486 1270 486 1270 484 1204 c 2,19,-1
 484 996 l 1,20,-1
 1012 996 l 2,21,22
 1014 996 1014 996 1016 996 c 0,23,24
 1156 996 1156 996 1188 868 c 1,25,-1
 1188 808 l 1,26,27
 1156 680 1156 680 1016 680 c 0,28,29
 1014 680 1014 680 1012 680 c 2,30,-1
 484 680 l 1,31,-1
 484 472 l 2,32,33
 486 406 486 406 532 361 c 128,-1,34
 578 316 578 316 636 312 c 1,35,-1
 1048 312 l 2,36,37
 1050 312 1050 312 1052 312 c 0,38,39
 1192 312 1192 312 1224 184 c 1,40,-1
 1224 128 l 1,41,42
 1192 0 1192 0 1052 0 c 0,43,44
 1050 0 1050 0 1048 0 c 2,45,-1
 556 0 l 2,46,47
 452 2 452 2 340 62 c 128,-1,48
 228 122 228 122 157 231 c 128,-1,49
 86 340 86 340 80 436 c 1,0,-1
EndSplineSet
Validated: 1
EndChar

StartChar: f
Encoding: 102 102 73
Width: 1304
GlyphClass: 2
Flags: W
LayerCount: 2
Fore
SplineSet
80 160 m 2,0,-1
 80 1240 l 1,1,2
 86 1336 86 1336 157 1445 c 128,-1,3
 228 1554 228 1554 340 1614 c 128,-1,4
 452 1674 452 1674 556 1676 c 2,5,-1
 1048 1676 l 2,6,7
 1050 1676 1050 1676 1052 1676 c 0,8,9
 1192 1676 1192 1676 1224 1548 c 1,10,-1
 1224 1492 l 1,11,12
 1192 1364 1192 1364 1052 1364 c 0,13,14
 1050 1364 1050 1364 1048 1364 c 2,15,-1
 636 1364 l 1,16,17
 578 1360 578 1360 532 1315 c 128,-1,18
 486 1270 486 1270 484 1204 c 2,19,-1
 484 996 l 1,20,-1
 1012 996 l 2,21,22
 1014 996 1014 996 1016 996 c 0,23,24
 1156 996 1156 996 1188 868 c 1,25,-1
 1188 808 l 1,26,27
 1156 680 1156 680 1016 680 c 0,28,29
 1014 680 1014 680 1012 680 c 2,30,-1
 484 680 l 1,31,-1
 484 160 l 2,32,33
 482 94 482 94 436 49 c 128,-1,34
 390 4 390 4 332 0 c 1,35,-1
 230 0 l 1,36,37
 174 4 174 4 128 49 c 128,-1,38
 82 94 82 94 80 160 c 2,0,-1
EndSplineSet
Validated: 1
EndChar

StartChar: g
Encoding: 103 103 74
Width: 1304
GlyphClass: 2
Flags: W
LayerCount: 2
Fore
SplineSet
80 436 m 1,0,-1
 80 1240 l 1,1,2
 86 1336 86 1336 157 1445 c 128,-1,3
 228 1554 228 1554 340 1614 c 128,-1,4
 452 1674 452 1674 556 1676 c 2,5,-1
 728 1676 l 2,6,7
 852 1674 852 1674 964 1614 c 128,-1,8
 1076 1554 1076 1554 1147 1445 c 128,-1,9
 1218 1336 1218 1336 1224 1240 c 1,10,-1
 1224 1168 l 2,11,12
 1222 1102 1222 1102 1176 1057 c 128,-1,13
 1130 1012 1130 1012 1072 1008 c 1,14,-1
 980 1008 l 1,15,16
 922 1012 922 1012 876 1057 c 128,-1,17
 830 1102 830 1102 828 1168 c 1,18,19
 818 1270 818 1270 772 1315 c 128,-1,20
 726 1360 726 1360 668 1364 c 1,21,-1
 636 1364 l 1,22,23
 578 1360 578 1360 532 1315 c 128,-1,24
 486 1270 486 1270 484 1204 c 2,25,-1
 484 472 l 2,26,27
 486 406 486 406 532 361 c 128,-1,28
 578 316 578 316 636 312 c 1,29,-1
 668 312 l 1,30,31
 726 316 726 316 769 358 c 128,-1,32
 812 400 812 400 820 476 c 1,33,-1
 820 528 l 2,34,35
 818 594 818 594 793 637 c 128,-1,36
 768 680 768 680 724 680 c 0,37,38
 608 682 608 682 576 812 c 1,39,-1
 576 872 l 1,40,41
 608 1000 608 1000 721 1000 c 0,42,43
 722 1000 722 1000 724 1000 c 2,44,-1
 756 1000 l 1,45,46
 866 990 866 990 971 934 c 128,-1,47
 1076 878 1076 878 1147 769 c 128,-1,48
 1218 660 1218 660 1224 564 c 1,49,-1
 1224 440 l 1,50,51
 1218 340 1218 340 1147 231 c 128,-1,52
 1076 122 1076 122 964 62 c 128,-1,53
 852 2 852 2 728 0 c 2,54,-1
 556 0 l 2,55,56
 452 2 452 2 340 62 c 128,-1,57
 228 122 228 122 157 231 c 128,-1,58
 86 340 86 340 80 436 c 1,0,-1
EndSplineSet
Validated: 1
EndChar

StartChar: h
Encoding: 104 104 75
Width: 1300
GlyphClass: 2
Flags: W
LayerCount: 2
Fore
SplineSet
80 160 m 2,0,-1
 80 1516 l 2,1,2
 82 1582 82 1582 128 1627 c 128,-1,3
 174 1672 174 1672 232 1676 c 1,4,-1
 324 1676 l 1,5,6
 382 1672 382 1672 428 1627 c 128,-1,7
 474 1582 474 1582 476 1516 c 2,8,-1
 476 996 l 1,9,-1
 824 996 l 1,10,-1
 824 1516 l 2,11,12
 826 1582 826 1582 872 1627 c 128,-1,13
 918 1672 918 1672 976 1676 c 1,14,-1
 1068 1676 l 1,15,16
 1126 1672 1126 1672 1172 1627 c 128,-1,17
 1218 1582 1218 1582 1220 1516 c 2,18,-1
 1220 160 l 2,19,20
 1218 94 1218 94 1172 49 c 128,-1,21
 1126 4 1126 4 1070 0 c 1,22,-1
 976 0 l 1,23,24
 918 4 918 4 872 49 c 128,-1,25
 826 94 826 94 824 160 c 2,26,-1
 824 680 l 1,27,-1
 476 680 l 1,28,-1
 476 160 l 2,29,30
 474 94 474 94 428 49 c 128,-1,31
 382 4 382 4 324 0 c 1,32,-1
 230 0 l 1,33,34
 174 4 174 4 128 49 c 128,-1,35
 82 94 82 94 80 160 c 2,0,-1
EndSplineSet
Validated: 1
EndChar

StartChar: i
Encoding: 105 105 76
Width: 556
GlyphClass: 2
Flags: W
LayerCount: 2
Fore
SplineSet
80 160 m 2,0,-1
 80 1516 l 2,1,2
 82 1582 82 1582 128 1627 c 128,-1,3
 174 1672 174 1672 232 1676 c 1,4,-1
 324 1676 l 1,5,6
 382 1672 382 1672 428 1627 c 128,-1,7
 474 1582 474 1582 476 1516 c 2,8,-1
 476 160 l 2,9,10
 474 94 474 94 428 49 c 128,-1,11
 382 4 382 4 324 0 c 1,12,-1
 230 0 l 1,13,14
 174 4 174 4 128 49 c 128,-1,15
 82 94 82 94 80 160 c 2,0,-1
EndSplineSet
Validated: 1
EndChar

StartChar: j
Encoding: 106 106 77
Width: 1304
GlyphClass: 2
Flags: W
LayerCount: 2
Fore
SplineSet
80 436 m 1,0,-1
 80 508 l 2,1,2
 82 574 82 574 128 619 c 128,-1,3
 174 664 174 664 232 668 c 1,4,-1
 324 668 l 1,5,6
 382 664 382 664 428 619 c 128,-1,7
 474 574 474 574 476 508 c 1,8,9
 486 406 486 406 532 361 c 128,-1,10
 578 316 578 316 636 312 c 1,11,-1
 668 312 l 1,12,13
 726 316 726 316 772 361 c 128,-1,14
 818 406 818 406 820 472 c 2,15,-1
 820 1516 l 2,16,17
 822 1582 822 1582 868 1627 c 128,-1,18
 914 1672 914 1672 972 1676 c 1,19,-1
 1072 1676 l 1,20,21
 1130 1672 1130 1672 1176 1627 c 128,-1,22
 1222 1582 1222 1582 1224 1516 c 2,23,-1
 1224 436 l 1,24,25
 1218 340 1218 340 1147 231 c 128,-1,26
 1076 122 1076 122 964 62 c 128,-1,27
 852 2 852 2 748 0 c 2,28,-1
 576 0 l 2,29,30
 452 2 452 2 340 62 c 128,-1,31
 228 122 228 122 157 231 c 128,-1,32
 86 340 86 340 80 436 c 1,0,-1
EndSplineSet
Validated: 1
EndChar

StartChar: k
Encoding: 107 107 78
Width: 1294
GlyphClass: 2
Flags: W
LayerCount: 2
Fore
SplineSet
80 160 m 2,0,-1
 80 1516 l 2,1,2
 82 1582 82 1582 128 1627 c 128,-1,3
 174 1672 174 1672 232 1676 c 1,4,-1
 324 1676 l 1,5,6
 382 1672 382 1672 428 1627 c 128,-1,7
 474 1582 474 1582 476 1516 c 2,8,-1
 476 1106 l 1,9,-1
 864 1632 l 1,10,11
 910 1678 910 1678 976 1680 c 2,12,-1
 1068 1680 l 1,13,14
 1128 1676 1128 1676 1165 1639 c 128,-1,15
 1202 1602 1202 1602 1207 1555 c 0,16,17
 1208 1544 1208 1544 1208 1533 c 0,18,19
 1208 1500 1208 1500 1196 1476 c 1,20,-1
 804 952 l 1,21,-1
 1200 156 l 2,22,23
 1207 135 1207 135 1207 116 c 0,24,25
 1207 78 1207 78 1178 45 c 0,26,27
 1137 0 1137 0 1074 0 c 0,28,29
 1069 0 1069 0 1064 0 c 2,30,-1
 980 0 l 2,31,32
 886 2 886 2 848 72 c 2,33,-1
 564 636 l 1,34,-1
 476 526 l 1,35,-1
 476 160 l 2,36,37
 474 94 474 94 428 49 c 128,-1,38
 382 4 382 4 324 0 c 1,39,-1
 230 0 l 1,40,41
 174 4 174 4 128 49 c 128,-1,42
 82 94 82 94 80 160 c 2,0,-1
EndSplineSet
Validated: 1
EndChar

StartChar: l
Encoding: 108 108 79
Width: 1296
GlyphClass: 2
Flags: W
LayerCount: 2
Fore
SplineSet
80 436 m 1,0,-1
 80 1516 l 2,1,2
 82 1582 82 1582 128 1627 c 128,-1,3
 174 1672 174 1672 230 1676 c 1,4,-1
 332 1676 l 1,5,6
 390 1672 390 1672 436 1627 c 128,-1,7
 482 1582 482 1582 484 1516 c 2,8,-1
 484 472 l 2,9,10
 486 406 486 406 532 361 c 128,-1,11
 578 316 578 316 636 312 c 1,12,-1
 1048 312 l 2,13,14
 1050 312 1050 312 1052 312 c 0,15,16
 1192 312 1192 312 1224 184 c 1,17,-1
 1224 128 l 1,18,19
 1192 0 1192 0 1052 0 c 0,20,21
 1050 0 1050 0 1048 0 c 2,22,-1
 556 0 l 2,23,24
 452 2 452 2 340 62 c 128,-1,25
 228 122 228 122 157 231 c 128,-1,26
 86 340 86 340 80 436 c 1,0,-1
EndSplineSet
Validated: 1
EndChar

StartChar: m
Encoding: 109 109 80
Width: 1760
GlyphClass: 2
Flags: W
LayerCount: 2
Fore
SplineSet
80 160 m 2,0,-1
 80 1516 l 2,1,2
 82 1582 82 1582 128 1627 c 128,-1,3
 174 1672 174 1672 232 1676 c 1,4,-1
 440 1676 l 1,5,6
 568 1670 568 1670 612 1544 c 1,7,-1
 872 648 l 1,8,-1
 888 648 l 1,9,-1
 1148 1544 l 1,10,11
 1192 1670 1192 1670 1320 1676 c 1,12,-1
 1528 1676 l 1,13,14
 1586 1672 1586 1672 1632 1627 c 128,-1,15
 1678 1582 1678 1582 1680 1516 c 2,16,-1
 1680 160 l 2,17,18
 1678 94 1678 94 1632 49 c 128,-1,19
 1586 4 1586 4 1530 0 c 1,20,-1
 1432 0 l 1,21,22
 1374 4 1374 4 1328 49 c 128,-1,23
 1282 94 1282 94 1280 160 c 2,24,-1
 1280 872 l 1,25,-1
 1044 68 l 1,26,27
 1016 2 1016 2 916 0 c 2,28,-1
 844 0 l 2,29,30
 744 2 744 2 716 68 c 1,31,-1
 480 872 l 1,32,-1
 480 160 l 2,33,34
 478 94 478 94 432 49 c 128,-1,35
 386 4 386 4 328 0 c 1,36,-1
 230 0 l 1,37,38
 174 4 174 4 128 49 c 128,-1,39
 82 94 82 94 80 160 c 2,0,-1
EndSplineSet
Validated: 1
EndChar

StartChar: n
Encoding: 110 110 81
Width: 1304
GlyphClass: 2
Flags: W
LayerCount: 2
Fore
SplineSet
80 160 m 2,0,-1
 80 1516 l 2,1,2
 82 1582 82 1582 128 1627 c 128,-1,3
 174 1672 174 1672 232 1676 c 1,4,-1
 324 1676 l 1,5,6
 444 1666 444 1666 508 1536 c 2,7,-1
 828 872 l 1,8,-1
 828 1516 l 2,9,10
 830 1582 830 1582 876 1627 c 128,-1,11
 922 1672 922 1672 980 1676 c 1,12,-1
 1072 1676 l 1,13,14
 1130 1672 1130 1672 1176 1627 c 128,-1,15
 1222 1582 1222 1582 1224 1516 c 2,16,-1
 1224 160 l 2,17,18
 1222 94 1222 94 1176 49 c 128,-1,19
 1130 4 1130 4 1072 0 c 1,20,-1
 980 0 l 1,21,22
 860 10 860 10 796 140 c 2,23,-1
 476 804 l 1,24,-1
 476 160 l 2,25,26
 474 94 474 94 428 49 c 128,-1,27
 382 4 382 4 324 0 c 1,28,-1
 232 0 l 1,29,30
 174 4 174 4 128 49 c 128,-1,31
 82 94 82 94 80 160 c 2,0,-1
EndSplineSet
Validated: 1
EndChar

StartChar: o
Encoding: 111 111 82
Width: 1304
GlyphClass: 2
Flags: W
LayerCount: 2
Fore
SplineSet
80 436 m 1,0,-1
 80 1240 l 1,1,2
 86 1336 86 1336 157 1445 c 128,-1,3
 228 1554 228 1554 340 1614 c 128,-1,4
 452 1674 452 1674 556 1676 c 2,5,-1
 726 1676 l 2,6,7
 852 1674 852 1674 964 1614 c 128,-1,8
 1076 1554 1076 1554 1147 1445 c 128,-1,9
 1218 1336 1218 1336 1224 1240 c 1,10,-1
 1224 436 l 1,11,12
 1218 340 1218 340 1147 231 c 128,-1,13
 1076 122 1076 122 964 62 c 128,-1,14
 852 2 852 2 726 0 c 2,15,-1
 556 0 l 2,16,17
 452 2 452 2 340 62 c 128,-1,18
 228 122 228 122 157 231 c 128,-1,19
 86 340 86 340 80 436 c 1,0,-1
484 472 m 2,20,21
 486 406 486 406 532 361 c 128,-1,22
 578 316 578 316 636 312 c 1,23,-1
 668 312 l 1,24,25
 726 316 726 316 772 361 c 128,-1,26
 818 406 818 406 820 472 c 2,27,-1
 820 1204 l 2,28,29
 818 1270 818 1270 772 1315 c 128,-1,30
 726 1360 726 1360 668 1364 c 1,31,-1
 636 1364 l 1,32,33
 578 1360 578 1360 532 1315 c 128,-1,34
 486 1270 486 1270 484 1204 c 2,35,-1
 484 472 l 2,20,21
EndSplineSet
Validated: 1
EndChar

StartChar: p
Encoding: 112 112 83
Width: 1304
GlyphClass: 2
Flags: W
LayerCount: 2
Fore
SplineSet
80 160 m 2,0,-1
 80 1244 l 1,1,2
 86 1340 86 1340 157 1449 c 128,-1,3
 228 1558 228 1558 340 1618 c 128,-1,4
 452 1678 452 1678 556 1680 c 2,5,-1
 726 1680 l 2,6,7
 852 1678 852 1678 964 1618 c 128,-1,8
 1076 1558 1076 1558 1147 1449 c 128,-1,9
 1218 1340 1218 1340 1224 1244 c 1,10,-1
 1224 1116 l 1,11,12
 1218 1020 1218 1020 1147 911 c 128,-1,13
 1076 802 1076 802 964 742 c 128,-1,14
 852 682 852 682 730 680 c 2,15,-1
 480 680 l 1,16,-1
 480 160 l 2,17,18
 478 94 478 94 432 49 c 128,-1,19
 386 4 386 4 328 0 c 1,20,-1
 230 0 l 1,21,22
 174 4 174 4 128 49 c 128,-1,23
 82 94 82 94 80 160 c 2,0,-1
480 996 m 1,24,-1
 668 996 l 1,25,26
 726 1000 726 1000 772 1045 c 128,-1,27
 818 1090 818 1090 820 1156 c 2,28,-1
 820 1208 l 2,29,30
 818 1274 818 1274 772 1319 c 128,-1,31
 726 1364 726 1364 668 1368 c 1,32,-1
 632 1368 l 1,33,34
 574 1364 574 1364 528 1319 c 128,-1,35
 482 1274 482 1274 480 1208 c 2,36,-1
 480 996 l 1,24,-1
EndSplineSet
Validated: 1
EndChar

StartChar: q
Encoding: 113 113 84
Width: 1304
GlyphClass: 2
Flags: W
LayerCount: 2
Fore
SplineSet
80 436 m 1,0,-1
 80 1240 l 1,1,2
 86 1336 86 1336 157 1445 c 128,-1,3
 228 1554 228 1554 340 1614 c 128,-1,4
 452 1674 452 1674 556 1676 c 2,5,-1
 726 1676 l 2,6,7
 852 1674 852 1674 964 1614 c 128,-1,8
 1076 1554 1076 1554 1147 1445 c 128,-1,9
 1218 1336 1218 1336 1224 1240 c 1,10,-1
 1224 436 l 1,11,12
 1218 340 1218 340 1148 233 c 128,-1,13
 1078 126 1078 126 974 68 c 1,14,-1
 1012 -74 l 2,15,16
 1012 -80 1012 -80 1012 -86 c 0,17,18
 1012 -144 1012 -144 975 -189 c 0,19,20
 934 -238 934 -238 876 -248 c 2,21,-1
 788 -260 l 2,22,23
 777 -262 777 -262 766 -262 c 0,24,25
 720 -262 720 -262 684 -226 c 0,26,27
 640 -182 640 -182 618 -114 c 2,28,-1
 586 0 l 1,29,-1
 556 0 l 2,30,31
 452 2 452 2 340 62 c 128,-1,32
 228 122 228 122 157 231 c 128,-1,33
 86 340 86 340 80 436 c 1,0,-1
484 472 m 2,34,35
 486 406 486 406 532 361 c 128,-1,36
 578 316 578 316 636 312 c 1,37,-1
 668 312 l 1,38,39
 726 316 726 316 772 361 c 128,-1,40
 818 406 818 406 820 472 c 2,41,-1
 820 1204 l 2,42,43
 818 1270 818 1270 772 1315 c 128,-1,44
 726 1360 726 1360 668 1364 c 1,45,-1
 636 1364 l 1,46,47
 578 1360 578 1360 532 1315 c 128,-1,48
 486 1270 486 1270 484 1204 c 2,49,-1
 484 472 l 2,34,35
EndSplineSet
Validated: 1
EndChar

StartChar: r
Encoding: 114 114 85
Width: 1298
GlyphClass: 2
Flags: W
LayerCount: 2
Fore
SplineSet
80 160 m 2,0,-1
 80 1240 l 1,1,2
 86 1336 86 1336 157 1445 c 128,-1,3
 228 1554 228 1554 340 1614 c 128,-1,4
 452 1674 452 1674 556 1676 c 2,5,-1
 726 1676 l 2,6,7
 852 1674 852 1674 964 1614 c 128,-1,8
 1076 1554 1076 1554 1147 1445 c 128,-1,9
 1218 1336 1218 1336 1224 1240 c 1,10,-1
 1224 1116 l 1,11,12
 1218 1020 1218 1020 1147 911 c 128,-1,13
 1076 802 1076 802 1010 766 c 128,-1,14
 944 730 944 730 922 722 c 1,15,-1
 1204 156 l 2,16,17
 1211 135 1211 135 1211 116 c 0,18,19
 1211 78 1211 78 1182 45 c 0,20,21
 1141 0 1141 0 1078 0 c 0,22,23
 1073 0 1073 0 1068 0 c 2,24,-1
 984 0 l 2,25,26
 890 2 890 2 852 72 c 2,27,-1
 552 680 l 1,28,-1
 480 680 l 1,29,-1
 480 160 l 2,30,31
 478 94 478 94 432 49 c 128,-1,32
 386 4 386 4 328 0 c 1,33,-1
 230 0 l 1,34,35
 174 4 174 4 128 49 c 128,-1,36
 82 94 82 94 80 160 c 2,0,-1
480 996 m 1,37,-1
 668 996 l 1,38,39
 726 1000 726 1000 772 1045 c 128,-1,40
 818 1090 818 1090 820 1156 c 2,41,-1
 820 1204 l 2,42,43
 818 1270 818 1270 772 1315 c 128,-1,44
 726 1360 726 1360 668 1364 c 1,45,-1
 632 1364 l 1,46,47
 574 1360 574 1360 528 1315 c 128,-1,48
 482 1270 482 1270 480 1204 c 2,49,-1
 480 996 l 1,37,-1
EndSplineSet
Validated: 1
EndChar

StartChar: s
Encoding: 115 115 86
Width: 1300
GlyphClass: 2
Flags: W
LayerCount: 2
Fore
SplineSet
78 436 m 1,0,-1
 78 508 l 2,1,2
 80 574 80 574 126 619 c 128,-1,3
 172 664 172 664 230 668 c 1,4,-1
 322 668 l 1,5,6
 380 664 380 664 426 619 c 128,-1,7
 472 574 472 574 474 508 c 1,8,9
 484 406 484 406 530 361 c 128,-1,10
 576 316 576 316 634 312 c 1,11,-1
 666 312 l 1,12,13
 724 316 724 316 770 361 c 128,-1,14
 816 406 816 406 818 472 c 0,15,16
 818 510 818 510 782 532 c 1,17,-1
 198 1000 l 1,18,19
 78 1084 78 1084 78 1226 c 0,20,21
 78 1233 78 1233 78 1240 c 0,22,23
 84 1336 84 1336 155 1445 c 128,-1,24
 226 1554 226 1554 338 1614 c 128,-1,25
 450 1674 450 1674 554 1676 c 2,26,-1
 726 1676 l 2,27,28
 850 1674 850 1674 962 1614 c 128,-1,29
 1074 1554 1074 1554 1145 1445 c 128,-1,30
 1216 1336 1216 1336 1222 1240 c 1,31,-1
 1222 1168 l 2,32,33
 1220 1102 1220 1102 1174 1057 c 128,-1,34
 1128 1012 1128 1012 1070 1008 c 1,35,-1
 978 1008 l 1,36,37
 920 1012 920 1012 874 1057 c 128,-1,38
 828 1102 828 1102 826 1168 c 1,39,40
 816 1270 816 1270 770 1315 c 128,-1,41
 724 1360 724 1360 666 1364 c 1,42,-1
 634 1364 l 1,43,44
 576 1360 576 1360 530 1315 c 128,-1,45
 484 1270 484 1270 482 1204 c 0,46,47
 482 1166 482 1166 518 1144 c 1,48,-1
 1102 676 l 1,49,50
 1222 592 1222 592 1222 450 c 0,51,52
 1222 443 1222 443 1222 436 c 0,53,54
 1216 340 1216 340 1145 231 c 128,-1,55
 1074 122 1074 122 962 62 c 128,-1,56
 850 2 850 2 746 0 c 2,57,-1
 574 0 l 2,58,59
 450 2 450 2 338 62 c 128,-1,60
 226 122 226 122 155 231 c 128,-1,61
 84 340 84 340 78 436 c 1,0,-1
EndSplineSet
Validated: 1
EndChar

StartChar: t
Encoding: 116 116 87
Width: 1288
GlyphClass: 2
Flags: W
LayerCount: 2
Fore
SplineSet
72 1492 m 1,0,-1
 72 1548 l 1,1,2
 104 1676 104 1676 244 1676 c 0,3,4
 246 1676 246 1676 248 1676 c 2,5,-1
 1040 1676 l 2,6,7
 1042 1676 1042 1676 1044 1676 c 0,8,9
 1184 1676 1184 1676 1216 1548 c 1,10,-1
 1216 1492 l 1,11,12
 1184 1364 1184 1364 1044 1364 c 0,13,14
 1042 1364 1042 1364 1040 1364 c 2,15,-1
 840 1364 l 1,16,-1
 840 160 l 2,17,18
 838 94 838 94 792 49 c 128,-1,19
 746 4 746 4 688 0 c 1,20,-1
 594 0 l 1,21,22
 538 4 538 4 492 49 c 128,-1,23
 446 94 446 94 444 160 c 2,24,-1
 444 1364 l 1,25,-1
 248 1364 l 2,26,27
 246 1364 246 1364 244 1364 c 0,28,29
 104 1364 104 1364 72 1492 c 1,0,-1
EndSplineSet
Validated: 1
EndChar

StartChar: u
Encoding: 117 117 88
Width: 1304
GlyphClass: 2
Flags: W
LayerCount: 2
Fore
SplineSet
80 436 m 1,0,-1
 80 1516 l 2,1,2
 82 1582 82 1582 128 1627 c 128,-1,3
 174 1672 174 1672 232 1676 c 1,4,-1
 324 1676 l 1,5,6
 382 1672 382 1672 428 1627 c 128,-1,7
 474 1582 474 1582 476 1516 c 2,8,-1
 476 472 l 1,9,10
 486 406 486 406 532 361 c 128,-1,11
 578 316 578 316 636 312 c 1,12,-1
 668 312 l 1,13,14
 726 316 726 316 772 361 c 128,-1,15
 818 406 818 406 820 472 c 2,16,-1
 820 1516 l 2,17,18
 822 1582 822 1582 868 1627 c 128,-1,19
 914 1672 914 1672 972 1676 c 1,20,-1
 1072 1676 l 1,21,22
 1130 1672 1130 1672 1176 1627 c 128,-1,23
 1222 1582 1222 1582 1224 1516 c 2,24,-1
 1224 436 l 1,25,26
 1218 340 1218 340 1147 231 c 128,-1,27
 1076 122 1076 122 964 62 c 128,-1,28
 852 2 852 2 748 0 c 2,29,-1
 576 0 l 2,30,31
 452 2 452 2 340 62 c 128,-1,32
 228 122 228 122 157 231 c 128,-1,33
 86 340 86 340 80 436 c 1,0,-1
EndSplineSet
Validated: 1
EndChar

StartChar: v
Encoding: 118 118 89
Width: 1264
GlyphClass: 2
Flags: W
LayerCount: 2
Fore
SplineSet
60 1516 m 1,0,1
 62 1582 62 1582 108 1627 c 128,-1,2
 154 1672 154 1672 212 1676 c 1,3,-1
 304 1676 l 1,4,5
 404 1668 404 1668 444 1576 c 1,6,-1
 564 332 l 1,7,8
 578 314 578 314 604 312 c 2,9,-1
 660 312 l 2,10,11
 686 314 686 314 700 332 c 1,12,-1
 820 1576 l 1,13,14
 860 1668 860 1668 960 1676 c 1,15,-1
 1052 1676 l 1,16,17
 1110 1672 1110 1672 1156 1627 c 128,-1,18
 1202 1582 1202 1582 1204 1516 c 1,19,-1
 1072 188 l 1,20,21
 1056 112 1056 112 947 55 c 0,22,23
 842 0 842 0 732 0 c 0,24,25
 728 0 728 0 724 0 c 2,26,-1
 540 0 l 2,27,28
 536 0 536 0 532 0 c 0,29,30
 422 0 422 0 317 55 c 0,31,32
 208 112 208 112 192 188 c 1,33,-1
 60 1516 l 1,0,1
EndSplineSet
Validated: 1
EndChar

StartChar: w
Encoding: 119 119 90
Width: 1864
GlyphClass: 2
Flags: W
LayerCount: 2
Fore
SplineSet
60 1516 m 1,0,1
 62 1582 62 1582 108 1627 c 128,-1,2
 154 1672 154 1672 212 1676 c 1,3,-1
 304 1676 l 1,4,5
 404 1668 404 1668 444 1576 c 1,6,-1
 564 360 l 2,7,8
 568 312 568 312 604 312 c 0,9,10
 644 314 644 314 648 360 c 2,11,-1
 764 1576 l 1,12,13
 804 1668 804 1668 904 1676 c 1,14,-1
 960 1676 l 1,15,16
 1060 1668 1060 1668 1100 1576 c 1,17,-1
 1216 360 l 2,18,19
 1220 314 1220 314 1260 312 c 0,20,21
 1296 312 1296 312 1300 360 c 2,22,-1
 1420 1576 l 1,23,24
 1460 1668 1460 1668 1560 1676 c 1,25,-1
 1652 1676 l 1,26,27
 1710 1672 1710 1672 1756 1627 c 128,-1,28
 1802 1582 1802 1582 1804 1516 c 1,29,-1
 1672 188 l 1,30,31
 1656 112 1656 112 1547 55 c 0,32,33
 1442 0 1442 0 1332 0 c 0,34,35
 1328 0 1328 0 1324 0 c 2,36,-1
 1276 0 l 2,37,38
 1267 -1 1267 -1 1257 -1 c 0,39,40
 1167 -1 1167 -1 1069 51 c 0,41,42
 960 108 960 108 932 276 c 1,43,44
 904 108 904 108 795 51 c 0,45,46
 696 -1 696 -1 607 -1 c 0,47,48
 598 -1 598 -1 588 0 c 2,49,-1
 540 0 l 2,50,51
 536 0 536 0 532 0 c 0,52,53
 422 0 422 0 317 55 c 0,54,55
 208 112 208 112 192 188 c 1,56,-1
 60 1516 l 1,0,1
EndSplineSet
Validated: 1
EndChar

StartChar: x
Encoding: 120 120 91
Width: 1320
GlyphClass: 2
Flags: W
LayerCount: 2
Fore
SplineSet
102 1520 m 2,0,1
 95 1541 95 1541 95 1560 c 0,2,3
 95 1598 95 1598 124 1631 c 0,4,5
 165 1676 165 1676 228 1676 c 0,6,7
 233 1676 233 1676 238 1676 c 2,8,-1
 322 1676 l 2,9,10
 416 1674 416 1674 454 1604 c 2,11,-1
 660 1212 l 1,12,-1
 866 1604 l 2,13,14
 904 1674 904 1674 998 1676 c 2,15,-1
 1082 1676 l 2,16,17
 1087 1676 1087 1676 1092 1676 c 0,18,19
 1155 1676 1155 1676 1196 1631 c 0,20,21
 1225 1598 1225 1598 1225 1560 c 0,22,23
 1225 1541 1225 1541 1218 1520 c 2,24,-1
 858 834 l 1,25,-1
 1214 156 l 2,26,27
 1221 135 1221 135 1221 116 c 0,28,29
 1221 78 1221 78 1192 45 c 0,30,31
 1151 0 1151 0 1088 0 c 0,32,33
 1083 0 1083 0 1078 0 c 2,34,-1
 994 0 l 2,35,36
 900 2 900 2 862 72 c 2,37,-1
 660 456 l 1,38,-1
 458 72 l 2,39,40
 420 2 420 2 326 0 c 2,41,-1
 242 0 l 2,42,43
 237 0 237 0 232 0 c 0,44,45
 169 0 169 0 128 45 c 0,46,47
 99 78 99 78 99 116 c 0,48,49
 99 135 99 135 106 156 c 2,50,-1
 462 834 l 1,51,-1
 102 1520 l 2,0,1
EndSplineSet
Validated: 1
EndChar

StartChar: y
Encoding: 121 121 92
Width: 1260
GlyphClass: 2
Flags: W
LayerCount: 2
Fore
SplineSet
82 1520 m 2,0,1
 75 1541 75 1541 75 1560 c 0,2,3
 75 1598 75 1598 104 1631 c 0,4,5
 145 1676 145 1676 208 1676 c 0,6,7
 213 1676 213 1676 218 1676 c 2,8,-1
 302 1676 l 2,9,10
 396 1674 396 1674 434 1604 c 1,11,-1
 630 1172 l 1,12,-1
 826 1604 l 1,13,14
 864 1674 864 1674 958 1676 c 2,15,-1
 1042 1676 l 2,16,17
 1047 1676 1047 1676 1052 1676 c 0,18,19
 1115 1676 1115 1676 1156 1631 c 0,20,21
 1185 1598 1185 1598 1185 1560 c 0,22,23
 1185 1541 1185 1541 1178 1520 c 2,24,-1
 828 744 l 1,25,-1
 828 160 l 2,26,27
 826 94 826 94 780 49 c 128,-1,28
 734 4 734 4 676 0 c 1,29,-1
 582 0 l 1,30,31
 526 4 526 4 480 49 c 128,-1,32
 434 94 434 94 432 160 c 2,33,-1
 432 744 l 1,34,-1
 82 1520 l 2,0,1
EndSplineSet
Validated: 1
EndChar

StartChar: z
Encoding: 122 122 93
Width: 1300
GlyphClass: 2
Flags: W
LayerCount: 2
Fore
SplineSet
80 436 m 1,0,-1
 80 496 l 1,1,2
 90 602 90 602 156 648 c 1,3,-1
 816 1188 l 1,4,-1
 816 1200 l 2,5,6
 814 1254 814 1254 770 1297 c 128,-1,7
 726 1340 726 1340 668 1344 c 1,8,-1
 256 1344 l 2,9,10
 254 1344 254 1344 252 1344 c 0,11,12
 112 1344 112 1344 80 1472 c 1,13,-1
 80 1528 l 1,14,15
 112 1656 112 1656 252 1656 c 0,16,17
 254 1656 254 1656 256 1656 c 2,18,-1
 748 1656 l 2,19,20
 852 1654 852 1654 964 1594 c 128,-1,21
 1076 1534 1076 1534 1145 1425 c 128,-1,22
 1214 1316 1214 1316 1220 1220 c 1,23,-1
 1220 1160 l 1,24,25
 1210 1054 1210 1054 1144 1008 c 1,26,-1
 484 468 l 1,27,-1
 484 456 l 2,28,29
 486 402 486 402 530 359 c 128,-1,30
 574 316 574 316 632 312 c 1,31,-1
 1044 312 l 2,32,33
 1046 312 1046 312 1048 312 c 0,34,35
 1188 312 1188 312 1220 184 c 1,36,-1
 1220 128 l 1,37,38
 1188 0 1188 0 1048 0 c 0,39,40
 1046 0 1046 0 1044 0 c 2,41,-1
 552 0 l 2,42,43
 448 2 448 2 336 62 c 128,-1,44
 224 122 224 122 155 231 c 128,-1,45
 86 340 86 340 80 436 c 1,0,-1
EndSplineSet
Validated: 1
EndChar

StartChar: bar
Encoding: 124 124 95
Width: 588
GlyphClass: 2
Flags: W
LayerCount: 2
Fore
SplineSet
96 72 m 2,0,-1
 96 1604 l 2,1,2
 98 1670 98 1670 144 1715 c 128,-1,3
 190 1760 190 1760 248 1764 c 1,4,-1
 340 1764 l 1,5,6
 398 1760 398 1760 444 1715 c 128,-1,7
 490 1670 490 1670 492 1604 c 2,8,-1
 492 72 l 2,9,10
 490 6 490 6 444 -39 c 128,-1,11
 398 -84 398 -84 340 -88 c 1,12,-1
 246 -88 l 1,13,14
 190 -84 190 -84 144 -39 c 128,-1,15
 98 6 98 6 96 72 c 2,0,-1
EndSplineSet
Validated: 1
EndChar

StartChar: exclamdown
Encoding: 161 161 99
Width: 604
GlyphClass: 2
Flags: W
LayerCount: 2
Fore
SplineSet
88 160 m 2,0,-1
 108 1004 l 2,1,2
 110 1070 110 1070 156 1115 c 128,-1,3
 202 1160 202 1160 260 1164 c 1,4,-1
 346 1164 l 1,5,6
 402 1160 402 1160 448 1115 c 128,-1,7
 494 1070 494 1070 496 1004 c 2,8,-1
 516 160 l 2,9,10
 514 94 514 94 468 49 c 128,-1,11
 422 4 422 4 364 0 c 1,12,-1
 240 0 l 1,13,14
 182 4 182 4 136 49 c 128,-1,15
 90 94 90 94 88 160 c 2,0,-1
100 1472 m 256,16,17
 100 1558 100 1558 160 1617 c 128,-1,18
 220 1676 220 1676 306 1676 c 256,19,20
 392 1676 392 1676 452 1617 c 128,-1,21
 512 1558 512 1558 512 1472 c 256,22,23
 512 1386 512 1386 452 1327 c 128,-1,24
 392 1268 392 1268 306 1268 c 256,25,26
 220 1268 220 1268 160 1327 c 128,-1,27
 100 1386 100 1386 100 1472 c 256,16,17
EndSplineSet
Validated: 1
EndChar

StartChar: dieresis
Encoding: 168 168 106
Width: 1248
GlyphClass: 2
Flags: W
LayerCount: 2
Fore
SplineSet
124 1974 m 256,0,1
 124 2062 124 2062 185 2123 c 128,-1,2
 246 2184 246 2184 334 2184 c 256,3,4
 422 2184 422 2184 483 2123 c 128,-1,5
 544 2062 544 2062 544 1974 c 256,6,7
 544 1886 544 1886 483 1825 c 128,-1,8
 422 1764 422 1764 334 1764 c 256,9,10
 246 1764 246 1764 185 1825 c 128,-1,11
 124 1886 124 1886 124 1974 c 256,0,1
704 1974 m 256,12,13
 704 2062 704 2062 765 2123 c 128,-1,14
 826 2184 826 2184 914 2184 c 256,15,16
 1002 2184 1002 2184 1063 2123 c 128,-1,17
 1124 2062 1124 2062 1124 1974 c 256,18,19
 1124 1886 1124 1886 1063 1825 c 128,-1,20
 1002 1764 1002 1764 914 1764 c 256,21,22
 826 1764 826 1764 765 1825 c 128,-1,23
 704 1886 704 1886 704 1974 c 256,12,13
EndSplineSet
Validated: 1
EndChar

StartChar: degree
Encoding: 176 176 114
Width: 1264
GlyphClass: 2
Flags: W
LayerCount: 2
Fore
SplineSet
392 2006 m 256,0,1
 392 2106 392 2106 462 2176 c 128,-1,2
 532 2246 532 2246 632 2246 c 256,3,4
 732 2246 732 2246 802 2176 c 128,-1,5
 872 2106 872 2106 872 2006 c 256,6,7
 872 1906 872 1906 802 1836 c 128,-1,8
 732 1766 732 1766 632 1766 c 256,9,10
 532 1766 532 1766 462 1836 c 128,-1,11
 392 1906 392 1906 392 2006 c 256,0,1
538 2002 m 256,12,13
 538 2040 538 2040 564 2067 c 128,-1,14
 590 2094 590 2094 628 2094 c 256,15,16
 666 2094 666 2094 693 2067 c 128,-1,17
 720 2040 720 2040 720 2002 c 256,18,19
 720 1964 720 1964 693 1938 c 128,-1,20
 666 1912 666 1912 628 1912 c 256,21,22
 590 1912 590 1912 564 1938 c 128,-1,23
 538 1964 538 1964 538 2002 c 256,12,13
EndSplineSet
Validated: 9
EndChar

StartChar: acute
Encoding: 180 180 118
Width: 1264
GlyphClass: 2
Flags: W
LayerCount: 2
Fore
SplineSet
204 1918 m 1,0,1
 210 2052 210 2052 350 2080 c 2,2,-1
 846 2186 l 2,3,4
 988 2220 988 2220 1044 2098 c 1,5,-1
 1060 2038 l 1,6,7
 1054 1904 1054 1904 914 1876 c 2,8,-1
 418 1770 l 2,9,10
 276 1736 276 1736 220 1858 c 1,11,-1
 204 1918 l 1,0,1
EndSplineSet
Validated: 33
EndChar

StartChar: cedilla
Encoding: 184 184 122
Width: 956
GlyphClass: 2
Flags: W
LayerCount: 2
Fore
SplineSet
96 -284 m 1,0,1
 128 -154 128 -154 272 -156 c 2,2,-1
 304 -156 l 1,3,4
 362 -152 362 -152 408 -107 c 128,-1,5
 454 -62 454 -62 456 4 c 2,6,-1
 456 14 l 1,7,-1
 860 20 l 1,8,-1
 860 -32 l 1,9,10
 854 -128 854 -128 783 -237 c 128,-1,11
 712 -346 712 -346 600 -406 c 128,-1,12
 488 -466 488 -466 384 -468 c 2,13,-1
 272 -468 l 2,14,15
 128 -470 128 -470 96 -340 c 1,16,-1
 96 -284 l 1,0,1
EndSplineSet
Validated: 33
EndChar

StartChar: questiondown
Encoding: 191 191 129
Width: 1324
GlyphClass: 2
Flags: W
LayerCount: 2
Fore
SplineSet
92 436 m 0,0,1
 88 598 88 598 180 684 c 1,2,-1
 468 976 l 1,3,-1
 468 1004 l 2,4,5
 470 1070 470 1070 516 1115 c 128,-1,6
 562 1160 562 1160 620 1164 c 1,7,-1
 714 1164 l 1,8,9
 770 1160 770 1160 816 1115 c 128,-1,10
 862 1070 862 1070 864 1004 c 2,11,-1
 864 960 l 2,12,13
 862 894 862 894 812 812 c 1,14,-1
 520 520 l 1,15,16
 490 500 490 500 492 468 c 0,17,18
 498 406 498 406 544 361 c 128,-1,19
 590 316 590 316 648 312 c 1,20,-1
 680 312 l 1,21,22
 738 316 738 316 784 361 c 128,-1,23
 830 406 830 406 840 508 c 1,24,25
 842 574 842 574 888 619 c 128,-1,26
 934 664 934 664 992 668 c 1,27,-1
 1084 668 l 1,28,29
 1142 664 1142 664 1188 619 c 128,-1,30
 1234 574 1234 574 1236 508 c 2,31,-1
 1236 436 l 1,32,33
 1230 340 1230 340 1159 231 c 128,-1,34
 1088 122 1088 122 976 62 c 128,-1,35
 864 2 864 2 740 0 c 2,36,-1
 568 0 l 2,37,38
 464 2 464 2 352 62 c 128,-1,39
 240 122 240 122 169 231 c 128,-1,40
 98 340 98 340 92 436 c 0,0,1
460 1472 m 256,41,42
 460 1558 460 1558 520 1617 c 128,-1,43
 580 1676 580 1676 666 1676 c 256,44,45
 752 1676 752 1676 812 1617 c 128,-1,46
 872 1558 872 1558 872 1472 c 256,47,48
 872 1386 872 1386 812 1327 c 128,-1,49
 752 1268 752 1268 666 1268 c 256,50,51
 580 1268 580 1268 520 1327 c 128,-1,52
 460 1386 460 1386 460 1472 c 256,41,42
EndSplineSet
Validated: 33
EndChar

StartChar: Agrave
Encoding: 192 192 130
Width: 1264
GlyphClass: 2
Flags: W
LayerCount: 2
Fore
SplineSet
60 160 m 1,0,-1
 192 1488 l 1,1,2
 208 1564 208 1564 317 1621 c 128,-1,3
 426 1678 426 1678 540 1676 c 2,4,-1
 724 1676 l 2,5,6
 838 1678 838 1678 947 1621 c 128,-1,7
 1056 1564 1056 1564 1072 1488 c 1,8,-1
 1204 160 l 1,9,10
 1202 94 1202 94 1156 49 c 128,-1,11
 1110 4 1110 4 1052 0 c 1,12,-1
 960 0 l 1,13,14
 860 8 860 8 820 100 c 1,15,-1
 764 680 l 1,16,-1
 500 680 l 1,17,-1
 444 100 l 1,18,19
 404 8 404 8 304 0 c 1,20,-1
 212 0 l 1,21,22
 154 4 154 4 108 49 c 128,-1,23
 62 94 62 94 60 160 c 1,0,-1
202 2038 m 1,24,-1
 218 2098 l 1,25,26
 274 2220 274 2220 416 2186 c 2,27,-1
 912 2080 l 2,28,29
 1052 2052 1052 2052 1058 1918 c 1,30,-1
 1042 1858 l 1,31,32
 986 1736 986 1736 844 1770 c 2,33,-1
 348 1876 l 2,34,35
 208 1904 208 1904 202 2038 c 1,24,-1
530 996 m 1,36,-1
 734 996 l 1,37,-1
 700 1344 l 1,38,39
 686 1362 686 1362 660 1364 c 2,40,-1
 604 1364 l 2,41,42
 578 1362 578 1362 564 1344 c 1,43,-1
 530 996 l 1,36,-1
EndSplineSet
Validated: 33
EndChar

StartChar: Aacute
Encoding: 193 193 131
Width: 1264
GlyphClass: 2
Flags: W
LayerCount: 2
Fore
SplineSet
60 160 m 1,0,-1
 192 1488 l 1,1,2
 208 1564 208 1564 317 1621 c 128,-1,3
 426 1678 426 1678 540 1676 c 2,4,-1
 724 1676 l 2,5,6
 838 1678 838 1678 947 1621 c 128,-1,7
 1056 1564 1056 1564 1072 1488 c 1,8,-1
 1204 160 l 1,9,10
 1202 94 1202 94 1156 49 c 128,-1,11
 1110 4 1110 4 1052 0 c 1,12,-1
 960 0 l 1,13,14
 860 8 860 8 820 100 c 1,15,-1
 764 680 l 1,16,-1
 500 680 l 1,17,-1
 444 100 l 1,18,19
 404 8 404 8 304 0 c 1,20,-1
 212 0 l 1,21,22
 154 4 154 4 108 49 c 128,-1,23
 62 94 62 94 60 160 c 1,0,-1
202 1918 m 1,24,25
 208 2052 208 2052 348 2080 c 2,26,-1
 844 2186 l 2,27,28
 986 2220 986 2220 1042 2098 c 1,29,-1
 1058 2038 l 1,30,31
 1052 1904 1052 1904 912 1876 c 2,32,-1
 416 1770 l 2,33,34
 274 1736 274 1736 218 1858 c 1,35,-1
 202 1918 l 1,24,25
530 996 m 1,36,-1
 734 996 l 1,37,-1
 700 1344 l 1,38,39
 686 1362 686 1362 660 1364 c 2,40,-1
 604 1364 l 2,41,42
 578 1362 578 1362 564 1344 c 1,43,-1
 530 996 l 1,36,-1
EndSplineSet
Validated: 33
EndChar

StartChar: Acircumflex
Encoding: 194 194 132
Width: 1264
GlyphClass: 2
Flags: W
LayerCount: 2
Fore
SplineSet
60 160 m 1,0,-1
 192 1488 l 1,1,2
 208 1564 208 1564 317 1621 c 128,-1,3
 426 1678 426 1678 540 1676 c 2,4,-1
 724 1676 l 2,5,6
 838 1678 838 1678 947 1621 c 128,-1,7
 1056 1564 1056 1564 1072 1488 c 1,8,-1
 1204 160 l 1,9,10
 1202 94 1202 94 1156 49 c 128,-1,11
 1110 4 1110 4 1052 0 c 1,12,-1
 960 0 l 1,13,14
 860 8 860 8 820 100 c 1,15,-1
 764 680 l 1,16,-1
 500 680 l 1,17,-1
 444 100 l 1,18,19
 404 8 404 8 304 0 c 1,20,-1
 212 0 l 1,21,22
 154 4 154 4 108 49 c 128,-1,23
 62 94 62 94 60 160 c 1,0,-1
220 1900 m 1,24,25
 218 2016 218 2016 324 2060 c 1,26,-1
 560 2182 l 1,27,28
 624 2200 624 2200 692 2182 c 1,29,-1
 928 2060 l 1,30,31
 1034 2016 1034 2016 1032 1900 c 1,32,-1
 1008 1828 l 1,33,34
 958 1730 958 1730 824 1770 c 1,35,-1
 626 1870 l 1,36,-1
 428 1770 l 1,37,38
 294 1730 294 1730 244 1828 c 1,39,-1
 220 1900 l 1,24,25
530 996 m 1,40,-1
 734 996 l 1,41,-1
 700 1344 l 1,42,43
 686 1362 686 1362 660 1364 c 2,44,-1
 604 1364 l 2,45,46
 578 1362 578 1362 564 1344 c 1,47,-1
 530 996 l 1,40,-1
EndSplineSet
Validated: 33
EndChar

StartChar: Atilde
Encoding: 195 195 133
Width: 1264
GlyphClass: 2
Flags: W
LayerCount: 2
Fore
SplineSet
60 160 m 1,0,-1
 192 1488 l 1,1,2
 208 1564 208 1564 317 1621 c 128,-1,3
 426 1678 426 1678 540 1676 c 2,4,-1
 724 1676 l 2,5,6
 838 1678 838 1678 947 1621 c 128,-1,7
 1056 1564 1056 1564 1072 1488 c 1,8,-1
 1204 160 l 1,9,10
 1202 94 1202 94 1156 49 c 128,-1,11
 1110 4 1110 4 1052 0 c 1,12,-1
 960 0 l 1,13,14
 860 8 860 8 820 100 c 1,15,-1
 764 680 l 1,16,-1
 500 680 l 1,17,-1
 444 100 l 1,18,19
 404 8 404 8 304 0 c 1,20,-1
 212 0 l 1,21,22
 154 4 154 4 108 49 c 128,-1,23
 62 94 62 94 60 160 c 1,0,-1
208 1880 m 1,24,25
 190 1990 190 1990 304 2056 c 1,26,-1
 464 2160 l 2,27,28
 524 2196 524 2196 592 2178 c 1,29,-1
 738 2080 l 1,30,-1
 860 2170 l 1,31,32
 994 2210 994 2210 1044 2112 c 1,33,-1
 1068 2040 l 1,34,35
 1070 1924 1070 1924 964 1880 c 1,36,-1
 798 1768 l 1,37,38
 734 1746 734 1746 668 1766 c 1,39,-1
 536 1858 l 1,40,-1
 408 1766 l 1,41,42
 284 1714 284 1714 240 1808 c 2,43,-1
 208 1880 l 1,24,25
530 996 m 1,44,-1
 734 996 l 1,45,-1
 700 1344 l 1,46,47
 686 1362 686 1362 660 1364 c 2,48,-1
 604 1364 l 2,49,50
 578 1362 578 1362 564 1344 c 1,51,-1
 530 996 l 1,44,-1
EndSplineSet
Validated: 33
EndChar

StartChar: Adieresis
Encoding: 196 196 134
Width: 1264
GlyphClass: 2
Flags: W
LayerCount: 2
Fore
SplineSet
60 160 m 1,0,-1
 192 1488 l 1,1,2
 208 1564 208 1564 317 1621 c 128,-1,3
 426 1678 426 1678 540 1676 c 2,4,-1
 724 1676 l 2,5,6
 838 1678 838 1678 947 1621 c 128,-1,7
 1056 1564 1056 1564 1072 1488 c 1,8,-1
 1204 160 l 1,9,10
 1202 94 1202 94 1156 49 c 128,-1,11
 1110 4 1110 4 1052 0 c 1,12,-1
 960 0 l 1,13,14
 860 8 860 8 820 100 c 1,15,-1
 764 680 l 1,16,-1
 500 680 l 1,17,-1
 444 100 l 1,18,19
 404 8 404 8 304 0 c 1,20,-1
 212 0 l 1,21,22
 154 4 154 4 108 49 c 128,-1,23
 62 94 62 94 60 160 c 1,0,-1
124 1974 m 256,24,25
 124 2062 124 2062 185 2123 c 128,-1,26
 246 2184 246 2184 334 2184 c 256,27,28
 422 2184 422 2184 483 2123 c 128,-1,29
 544 2062 544 2062 544 1974 c 256,30,31
 544 1886 544 1886 483 1825 c 128,-1,32
 422 1764 422 1764 334 1764 c 256,33,34
 246 1764 246 1764 185 1825 c 128,-1,35
 124 1886 124 1886 124 1974 c 256,24,25
530 996 m 1,36,-1
 734 996 l 1,37,-1
 700 1344 l 1,38,39
 686 1362 686 1362 660 1364 c 2,40,-1
 604 1364 l 2,41,42
 578 1362 578 1362 564 1344 c 1,43,-1
 530 996 l 1,36,-1
704 1974 m 256,44,45
 704 2062 704 2062 765 2123 c 128,-1,46
 826 2184 826 2184 914 2184 c 256,47,48
 1002 2184 1002 2184 1063 2123 c 128,-1,49
 1124 2062 1124 2062 1124 1974 c 256,50,51
 1124 1886 1124 1886 1063 1825 c 128,-1,52
 1002 1764 1002 1764 914 1764 c 256,53,54
 826 1764 826 1764 765 1825 c 128,-1,55
 704 1886 704 1886 704 1974 c 256,44,45
EndSplineSet
Validated: 33
EndChar

StartChar: Aring
Encoding: 197 197 135
Width: 1264
GlyphClass: 2
Flags: W
LayerCount: 2
Fore
SplineSet
60 160 m 1,0,-1
 192 1488 l 1,1,2
 208 1564 208 1564 317 1621 c 128,-1,3
 426 1678 426 1678 540 1676 c 2,4,-1
 724 1676 l 2,5,6
 838 1678 838 1678 947 1621 c 128,-1,7
 1056 1564 1056 1564 1072 1488 c 1,8,-1
 1204 160 l 1,9,10
 1202 94 1202 94 1156 49 c 128,-1,11
 1110 4 1110 4 1052 0 c 1,12,-1
 960 0 l 1,13,14
 860 8 860 8 820 100 c 1,15,-1
 764 680 l 1,16,-1
 500 680 l 1,17,-1
 444 100 l 1,18,19
 404 8 404 8 304 0 c 1,20,-1
 212 0 l 1,21,22
 154 4 154 4 108 49 c 128,-1,23
 62 94 62 94 60 160 c 1,0,-1
394 2006 m 256,24,25
 394 2106 394 2106 464 2176 c 128,-1,26
 534 2246 534 2246 634 2246 c 256,27,28
 734 2246 734 2246 804 2176 c 128,-1,29
 874 2106 874 2106 874 2006 c 256,30,31
 874 1906 874 1906 804 1836 c 128,-1,32
 734 1766 734 1766 634 1766 c 256,33,34
 534 1766 534 1766 464 1836 c 128,-1,35
 394 1906 394 1906 394 2006 c 256,24,25
530 996 m 1,36,-1
 734 996 l 1,37,-1
 700 1344 l 1,38,39
 686 1362 686 1362 660 1364 c 2,40,-1
 604 1364 l 2,41,42
 578 1362 578 1362 564 1344 c 1,43,-1
 530 996 l 1,36,-1
540 2002 m 256,44,45
 540 2040 540 2040 566 2067 c 128,-1,46
 592 2094 592 2094 630 2094 c 256,47,48
 668 2094 668 2094 695 2067 c 128,-1,49
 722 2040 722 2040 722 2002 c 256,50,51
 722 1964 722 1964 695 1938 c 128,-1,52
 668 1912 668 1912 630 1912 c 256,53,54
 592 1912 592 1912 566 1938 c 128,-1,55
 540 1964 540 1964 540 2002 c 256,44,45
EndSplineSet
Validated: 41
EndChar

StartChar: AE
Encoding: 198 198 136
Width: 1892
GlyphClass: 2
Flags: W
LayerCount: 2
Fore
SplineSet
60 160 m 1,0,-1
 192 1488 l 1,1,2
 208 1564 208 1564 317 1621 c 128,-1,3
 426 1678 426 1678 540 1676 c 2,4,-1
 1636 1676 l 2,5,6
 1780 1678 1780 1678 1812 1548 c 1,7,-1
 1812 1492 l 1,8,9
 1780 1362 1780 1362 1636 1364 c 2,10,-1
 1356 1364 l 1,11,12
 1298 1360 1298 1360 1252 1315 c 128,-1,13
 1206 1270 1206 1270 1204 1204 c 2,14,-1
 1204 996 l 1,15,-1
 1600 996 l 2,16,17
 1744 998 1744 998 1776 868 c 1,18,-1
 1776 808 l 1,19,20
 1744 678 1744 678 1600 680 c 2,21,-1
 1204 680 l 1,22,-1
 1204 472 l 2,23,24
 1206 406 1206 406 1252 361 c 128,-1,25
 1298 316 1298 316 1356 312 c 1,26,-1
 1636 312 l 2,27,28
 1780 314 1780 314 1812 184 c 1,29,-1
 1812 128 l 1,30,31
 1780 -2 1780 -2 1636 0 c 2,32,-1
 1276 0 l 2,33,34
 1172 2 1172 2 1060 62 c 128,-1,35
 948 122 948 122 877 231 c 128,-1,36
 806 340 806 340 800 436 c 1,37,-1
 800 680 l 1,38,-1
 500 680 l 1,39,-1
 444 100 l 1,40,41
 404 8 404 8 304 0 c 1,42,-1
 212 0 l 1,43,44
 154 4 154 4 108 49 c 128,-1,45
 62 94 62 94 60 160 c 1,0,-1
530 996 m 1,46,-1
 800 996 l 1,47,-1
 800 1240 l 1,48,49
 804 1300 804 1300 832 1364 c 1,50,-1
 604 1364 l 2,51,52
 578 1362 578 1362 564 1344 c 1,53,-1
 530 996 l 1,46,-1
EndSplineSet
Validated: 33
EndChar

StartChar: Ccedilla
Encoding: 199 199 137
Width: 1304
GlyphClass: 2
Flags: W
LayerCount: 2
Fore
SplineSet
80 436 m 1,0,-1
 80 1240 l 1,1,2
 86 1336 86 1336 157 1445 c 128,-1,3
 228 1554 228 1554 340 1614 c 128,-1,4
 452 1674 452 1674 556 1676 c 2,5,-1
 728 1676 l 2,6,7
 852 1674 852 1674 964 1614 c 128,-1,8
 1076 1554 1076 1554 1147 1445 c 128,-1,9
 1218 1336 1218 1336 1224 1240 c 1,10,-1
 1224 1168 l 2,11,12
 1222 1102 1222 1102 1176 1057 c 128,-1,13
 1130 1012 1130 1012 1072 1008 c 1,14,-1
 980 1008 l 1,15,16
 922 1012 922 1012 876 1057 c 128,-1,17
 830 1102 830 1102 828 1168 c 1,18,19
 818 1270 818 1270 772 1315 c 128,-1,20
 726 1360 726 1360 668 1364 c 1,21,-1
 636 1364 l 1,22,23
 578 1360 578 1360 532 1315 c 128,-1,24
 486 1270 486 1270 484 1204 c 2,25,-1
 484 472 l 2,26,27
 486 406 486 406 532 361 c 128,-1,28
 578 316 578 316 636 312 c 1,29,-1
 668 312 l 1,30,31
 726 316 726 316 772 361 c 128,-1,32
 818 406 818 406 828 508 c 1,33,34
 830 574 830 574 876 619 c 128,-1,35
 922 664 922 664 980 668 c 1,36,-1
 1072 668 l 1,37,38
 1130 664 1130 664 1176 619 c 128,-1,39
 1222 574 1222 574 1224 508 c 2,40,-1
 1224 436 l 1,41,42
 1218 340 1218 340 1147 231 c 128,-1,43
 1076 122 1076 122 995 78 c 128,-1,44
 914 34 914 34 860 20 c 1,45,-1
 860 -32 l 1,46,47
 854 -128 854 -128 783 -237 c 128,-1,48
 712 -346 712 -346 600 -406 c 128,-1,49
 488 -466 488 -466 384 -468 c 2,50,-1
 272 -468 l 2,51,52
 128 -470 128 -470 96 -340 c 1,53,-1
 96 -284 l 1,54,55
 128 -154 128 -154 272 -156 c 2,56,-1
 304 -156 l 1,57,58
 362 -152 362 -152 408 -107 c 128,-1,59
 454 -62 454 -62 456 4 c 2,60,-1
 456 14 l 1,61,62
 400 30 400 30 314 76 c 128,-1,63
 228 122 228 122 157 231 c 128,-1,64
 86 340 86 340 80 436 c 1,0,-1
EndSplineSet
Validated: 33
EndChar

StartChar: Egrave
Encoding: 200 200 138
Width: 1304
GlyphClass: 2
Flags: W
LayerCount: 2
Fore
SplineSet
80 436 m 1,0,-1
 80 1240 l 1,1,2
 86 1336 86 1336 157 1445 c 128,-1,3
 228 1554 228 1554 340 1614 c 128,-1,4
 452 1674 452 1674 556 1676 c 2,5,-1
 1048 1676 l 2,6,7
 1192 1678 1192 1678 1224 1548 c 1,8,-1
 1224 1492 l 1,9,10
 1192 1362 1192 1362 1048 1364 c 2,11,-1
 636 1364 l 1,12,13
 578 1360 578 1360 532 1315 c 128,-1,14
 486 1270 486 1270 484 1204 c 2,15,-1
 484 996 l 1,16,-1
 1012 996 l 2,17,18
 1156 998 1156 998 1188 868 c 1,19,-1
 1188 808 l 1,20,21
 1156 678 1156 678 1012 680 c 2,22,-1
 484 680 l 1,23,-1
 484 472 l 2,24,25
 486 406 486 406 532 361 c 128,-1,26
 578 316 578 316 636 312 c 1,27,-1
 1048 312 l 2,28,29
 1192 314 1192 314 1224 184 c 1,30,-1
 1224 128 l 1,31,32
 1192 -2 1192 -2 1048 0 c 2,33,-1
 556 0 l 2,34,35
 452 2 452 2 340 62 c 128,-1,36
 228 122 228 122 157 231 c 128,-1,37
 86 340 86 340 80 436 c 1,0,-1
214 2038 m 1,38,-1
 230 2098 l 1,39,40
 286 2220 286 2220 428 2186 c 2,41,-1
 924 2080 l 2,42,43
 1064 2052 1064 2052 1070 1918 c 1,44,-1
 1054 1858 l 1,45,46
 998 1736 998 1736 856 1770 c 2,47,-1
 360 1876 l 2,48,49
 220 1904 220 1904 214 2038 c 1,38,-1
EndSplineSet
Validated: 33
EndChar

StartChar: Eacute
Encoding: 201 201 139
Width: 1304
GlyphClass: 2
Flags: W
LayerCount: 2
Fore
SplineSet
80 436 m 1,0,-1
 80 1240 l 1,1,2
 86 1336 86 1336 157 1445 c 128,-1,3
 228 1554 228 1554 340 1614 c 128,-1,4
 452 1674 452 1674 556 1676 c 2,5,-1
 1048 1676 l 2,6,7
 1192 1678 1192 1678 1224 1548 c 1,8,-1
 1224 1492 l 1,9,10
 1192 1362 1192 1362 1048 1364 c 2,11,-1
 636 1364 l 1,12,13
 578 1360 578 1360 532 1315 c 128,-1,14
 486 1270 486 1270 484 1204 c 2,15,-1
 484 996 l 1,16,-1
 1012 996 l 2,17,18
 1156 998 1156 998 1188 868 c 1,19,-1
 1188 808 l 1,20,21
 1156 678 1156 678 1012 680 c 2,22,-1
 484 680 l 1,23,-1
 484 472 l 2,24,25
 486 406 486 406 532 361 c 128,-1,26
 578 316 578 316 636 312 c 1,27,-1
 1048 312 l 2,28,29
 1192 314 1192 314 1224 184 c 1,30,-1
 1224 128 l 1,31,32
 1192 -2 1192 -2 1048 0 c 2,33,-1
 556 0 l 2,34,35
 452 2 452 2 340 62 c 128,-1,36
 228 122 228 122 157 231 c 128,-1,37
 86 340 86 340 80 436 c 1,0,-1
214 1918 m 1,38,39
 220 2052 220 2052 360 2080 c 2,40,-1
 856 2186 l 2,41,42
 998 2220 998 2220 1054 2098 c 1,43,-1
 1070 2038 l 1,44,45
 1064 1904 1064 1904 924 1876 c 2,46,-1
 428 1770 l 2,47,48
 286 1736 286 1736 230 1858 c 1,49,-1
 214 1918 l 1,38,39
EndSplineSet
Validated: 33
EndChar

StartChar: Ecircumflex
Encoding: 202 202 140
Width: 1304
GlyphClass: 2
Flags: W
LayerCount: 2
Fore
SplineSet
80 436 m 1,0,-1
 80 1240 l 1,1,2
 86 1336 86 1336 157 1445 c 128,-1,3
 228 1554 228 1554 340 1614 c 128,-1,4
 452 1674 452 1674 556 1676 c 2,5,-1
 1048 1676 l 2,6,7
 1192 1678 1192 1678 1224 1548 c 1,8,-1
 1224 1492 l 1,9,10
 1192 1362 1192 1362 1048 1364 c 2,11,-1
 636 1364 l 1,12,13
 578 1360 578 1360 532 1315 c 128,-1,14
 486 1270 486 1270 484 1204 c 2,15,-1
 484 996 l 1,16,-1
 1012 996 l 2,17,18
 1156 998 1156 998 1188 868 c 1,19,-1
 1188 808 l 1,20,21
 1156 678 1156 678 1012 680 c 2,22,-1
 484 680 l 1,23,-1
 484 472 l 2,24,25
 486 406 486 406 532 361 c 128,-1,26
 578 316 578 316 636 312 c 1,27,-1
 1048 312 l 2,28,29
 1192 314 1192 314 1224 184 c 1,30,-1
 1224 128 l 1,31,32
 1192 -2 1192 -2 1048 0 c 2,33,-1
 556 0 l 2,34,35
 452 2 452 2 340 62 c 128,-1,36
 228 122 228 122 157 231 c 128,-1,37
 86 340 86 340 80 436 c 1,0,-1
236 1900 m 1,38,39
 234 2016 234 2016 340 2060 c 1,40,-1
 576 2182 l 1,41,42
 640 2200 640 2200 708 2182 c 1,43,-1
 944 2060 l 1,44,45
 1050 2016 1050 2016 1048 1900 c 1,46,-1
 1024 1828 l 1,47,48
 974 1730 974 1730 840 1770 c 1,49,-1
 642 1870 l 1,50,-1
 444 1770 l 1,51,52
 310 1730 310 1730 260 1828 c 1,53,-1
 236 1900 l 1,38,39
EndSplineSet
Validated: 33
EndChar

StartChar: Edieresis
Encoding: 203 203 141
Width: 1304
GlyphClass: 2
Flags: W
LayerCount: 2
Fore
SplineSet
80 436 m 1,0,-1
 80 1240 l 1,1,2
 86 1336 86 1336 157 1445 c 128,-1,3
 228 1554 228 1554 340 1614 c 128,-1,4
 452 1674 452 1674 556 1676 c 2,5,-1
 1048 1676 l 2,6,7
 1192 1678 1192 1678 1224 1548 c 1,8,-1
 1224 1492 l 1,9,10
 1192 1362 1192 1362 1048 1364 c 2,11,-1
 636 1364 l 1,12,13
 578 1360 578 1360 532 1315 c 128,-1,14
 486 1270 486 1270 484 1204 c 2,15,-1
 484 996 l 1,16,-1
 1012 996 l 2,17,18
 1156 998 1156 998 1188 868 c 1,19,-1
 1188 808 l 1,20,21
 1156 678 1156 678 1012 680 c 2,22,-1
 484 680 l 1,23,-1
 484 472 l 2,24,25
 486 406 486 406 532 361 c 128,-1,26
 578 316 578 316 636 312 c 1,27,-1
 1048 312 l 2,28,29
 1192 314 1192 314 1224 184 c 1,30,-1
 1224 128 l 1,31,32
 1192 -2 1192 -2 1048 0 c 2,33,-1
 556 0 l 2,34,35
 452 2 452 2 340 62 c 128,-1,36
 228 122 228 122 157 231 c 128,-1,37
 86 340 86 340 80 436 c 1,0,-1
144 1970 m 256,38,39
 144 2058 144 2058 205 2119 c 128,-1,40
 266 2180 266 2180 354 2180 c 256,41,42
 442 2180 442 2180 503 2119 c 128,-1,43
 564 2058 564 2058 564 1970 c 256,44,45
 564 1882 564 1882 503 1821 c 128,-1,46
 442 1760 442 1760 354 1760 c 256,47,48
 266 1760 266 1760 205 1821 c 128,-1,49
 144 1882 144 1882 144 1970 c 256,38,39
724 1970 m 256,50,51
 724 2058 724 2058 785 2119 c 128,-1,52
 846 2180 846 2180 934 2180 c 256,53,54
 1022 2180 1022 2180 1083 2119 c 128,-1,55
 1144 2058 1144 2058 1144 1970 c 256,56,57
 1144 1882 1144 1882 1083 1821 c 128,-1,58
 1022 1760 1022 1760 934 1760 c 256,59,60
 846 1760 846 1760 785 1821 c 128,-1,61
 724 1882 724 1882 724 1970 c 256,50,51
EndSplineSet
Validated: 33
EndChar

StartChar: Igrave
Encoding: 204 204 142
Width: 566
GlyphClass: 2
Flags: W
LayerCount: 2
Fore
SplineSet
-24 2038 m 1,0,-1
 -8 2098 l 1,1,2
 48 2220 48 2220 190 2186 c 1,3,-1
 442 2080 l 1,4,5
 590 2034 590 2034 588 1918 c 1,6,-1
 572 1858 l 1,7,8
 516 1736 516 1736 374 1770 c 1,9,-1
 122 1876 l 1,10,11
 -16 1918 -16 1918 -24 2038 c 1,0,-1
82 160 m 2,12,-1
 82 1516 l 2,13,14
 84 1582 84 1582 130 1627 c 128,-1,15
 176 1672 176 1672 234 1676 c 1,16,-1
 326 1676 l 1,17,18
 384 1672 384 1672 430 1627 c 128,-1,19
 476 1582 476 1582 478 1516 c 2,20,-1
 478 160 l 2,21,22
 476 94 476 94 430 49 c 128,-1,23
 384 4 384 4 326 0 c 1,24,-1
 232 0 l 1,25,26
 176 4 176 4 130 49 c 128,-1,27
 84 94 84 94 82 160 c 2,12,-1
EndSplineSet
Validated: 33
EndChar

StartChar: Iacute
Encoding: 205 205 143
Width: 566
GlyphClass: 2
Flags: W
LayerCount: 2
Fore
SplineSet
-22 1918 m 1,0,1
 -24 2034 -24 2034 124 2080 c 1,2,-1
 376 2186 l 1,3,4
 518 2220 518 2220 574 2098 c 1,5,-1
 590 2038 l 1,6,7
 582 1918 582 1918 444 1876 c 1,8,-1
 192 1770 l 1,9,10
 50 1736 50 1736 -6 1858 c 1,11,-1
 -22 1918 l 1,0,1
84 160 m 2,12,-1
 84 1516 l 2,13,14
 86 1582 86 1582 132 1627 c 128,-1,15
 178 1672 178 1672 236 1676 c 1,16,-1
 328 1676 l 1,17,18
 386 1672 386 1672 432 1627 c 128,-1,19
 478 1582 478 1582 480 1516 c 2,20,-1
 480 160 l 2,21,22
 478 94 478 94 432 49 c 128,-1,23
 386 4 386 4 328 0 c 1,24,-1
 234 0 l 1,25,26
 178 4 178 4 132 49 c 128,-1,27
 86 94 86 94 84 160 c 2,12,-1
EndSplineSet
Validated: 33
EndChar

StartChar: Icircumflex
Encoding: 206 206 144
Width: 544
GlyphClass: 2
Flags: W
LayerCount: 2
Fore
SplineSet
-96 1892 m 1,0,1
 -92 1992 -92 1992 44 2076 c 1,2,-1
 196 2182 l 1,3,4
 238 2192 238 2192 272 2192 c 128,-1,5
 306 2192 306 2192 348 2182 c 1,6,-1
 500 2076 l 1,7,8
 636 1992 636 1992 640 1892 c 1,9,-1
 630 1854 l 1,10,11
 574 1732 574 1732 432 1766 c 1,12,-1
 276 1872 l 1,13,-1
 112 1766 l 1,14,15
 -30 1732 -30 1732 -86 1854 c 1,16,-1
 -96 1892 l 1,0,1
84 160 m 2,17,-1
 84 1516 l 2,18,19
 86 1582 86 1582 132 1627 c 128,-1,20
 178 1672 178 1672 236 1676 c 1,21,-1
 328 1676 l 1,22,23
 386 1672 386 1672 432 1627 c 128,-1,24
 478 1582 478 1582 480 1516 c 2,25,-1
 480 160 l 2,26,27
 478 94 478 94 432 49 c 128,-1,28
 386 4 386 4 328 0 c 1,29,-1
 234 0 l 1,30,31
 178 4 178 4 132 49 c 128,-1,32
 86 94 86 94 84 160 c 2,17,-1
EndSplineSet
Validated: 33
EndChar

StartChar: Idieresis
Encoding: 207 207 145
Width: 552
GlyphClass: 2
Flags: W
LayerCount: 2
Fore
SplineSet
-180 1974 m 256,0,1
 -180 2062 -180 2062 -119 2123 c 128,-1,2
 -58 2184 -58 2184 30 2184 c 256,3,4
 118 2184 118 2184 179 2123 c 128,-1,5
 240 2062 240 2062 240 1974 c 256,6,7
 240 1886 240 1886 179 1825 c 128,-1,8
 118 1764 118 1764 30 1764 c 256,9,10
 -58 1764 -58 1764 -119 1825 c 128,-1,11
 -180 1886 -180 1886 -180 1974 c 256,0,1
84 160 m 2,12,-1
 84 1516 l 2,13,14
 86 1582 86 1582 132 1627 c 128,-1,15
 178 1672 178 1672 236 1676 c 1,16,-1
 328 1676 l 1,17,18
 386 1672 386 1672 432 1627 c 128,-1,19
 478 1582 478 1582 480 1516 c 2,20,-1
 480 160 l 2,21,22
 478 94 478 94 432 49 c 128,-1,23
 386 4 386 4 328 0 c 1,24,-1
 234 0 l 1,25,26
 178 4 178 4 132 49 c 128,-1,27
 86 94 86 94 84 160 c 2,12,-1
312 1970 m 256,28,29
 312 2058 312 2058 373 2119 c 128,-1,30
 434 2180 434 2180 522 2180 c 256,31,32
 610 2180 610 2180 671 2119 c 128,-1,33
 732 2058 732 2058 732 1970 c 256,34,35
 732 1882 732 1882 671 1821 c 128,-1,36
 610 1760 610 1760 522 1760 c 256,37,38
 434 1760 434 1760 373 1821 c 128,-1,39
 312 1882 312 1882 312 1970 c 256,28,29
EndSplineSet
Validated: 1
EndChar

StartChar: Ntilde
Encoding: 209 209 147
Width: 1304
GlyphClass: 2
Flags: W
LayerCount: 2
Fore
SplineSet
80 160 m 2,0,-1
 80 1516 l 2,1,2
 82 1582 82 1582 128 1627 c 128,-1,3
 174 1672 174 1672 232 1676 c 1,4,-1
 324 1676 l 1,5,6
 444 1666 444 1666 508 1536 c 2,7,-1
 828 872 l 1,8,-1
 828 1516 l 2,9,10
 830 1582 830 1582 876 1627 c 128,-1,11
 922 1672 922 1672 980 1676 c 1,12,-1
 1072 1676 l 1,13,14
 1130 1672 1130 1672 1176 1627 c 128,-1,15
 1222 1582 1222 1582 1224 1516 c 2,16,-1
 1224 160 l 2,17,18
 1222 94 1222 94 1176 49 c 128,-1,19
 1130 4 1130 4 1072 0 c 1,20,-1
 980 0 l 1,21,22
 860 10 860 10 796 140 c 2,23,-1
 476 804 l 1,24,-1
 476 160 l 2,25,26
 474 94 474 94 428 49 c 128,-1,27
 382 4 382 4 324 0 c 1,28,-1
 232 0 l 1,29,30
 174 4 174 4 128 49 c 128,-1,31
 82 94 82 94 80 160 c 2,0,-1
224 1880 m 1,32,33
 206 1990 206 1990 320 2056 c 1,34,-1
 480 2160 l 2,35,36
 540 2196 540 2196 608 2178 c 1,37,-1
 754 2080 l 1,38,-1
 876 2170 l 1,39,40
 1010 2210 1010 2210 1060 2112 c 1,41,-1
 1084 2040 l 1,42,43
 1086 1924 1086 1924 980 1880 c 1,44,-1
 814 1768 l 1,45,46
 750 1746 750 1746 684 1766 c 1,47,-1
 552 1858 l 1,48,-1
 424 1766 l 1,49,50
 300 1714 300 1714 256 1808 c 2,51,-1
 224 1880 l 1,32,33
EndSplineSet
Validated: 33
EndChar

StartChar: Ograve
Encoding: 210 210 148
Width: 1304
GlyphClass: 2
Flags: W
LayerCount: 2
Fore
SplineSet
80 436 m 1,0,-1
 80 1240 l 1,1,2
 86 1336 86 1336 157 1445 c 128,-1,3
 228 1554 228 1554 340 1614 c 128,-1,4
 452 1674 452 1674 556 1676 c 2,5,-1
 726 1676 l 2,6,7
 852 1674 852 1674 964 1614 c 128,-1,8
 1076 1554 1076 1554 1147 1445 c 128,-1,9
 1218 1336 1218 1336 1224 1240 c 1,10,-1
 1224 436 l 1,11,12
 1218 340 1218 340 1147 231 c 128,-1,13
 1076 122 1076 122 964 62 c 128,-1,14
 852 2 852 2 726 0 c 2,15,-1
 556 0 l 2,16,17
 452 2 452 2 340 62 c 128,-1,18
 228 122 228 122 157 231 c 128,-1,19
 86 340 86 340 80 436 c 1,0,-1
218 2038 m 1,20,-1
 234 2098 l 1,21,22
 290 2220 290 2220 432 2186 c 2,23,-1
 928 2080 l 2,24,25
 1068 2052 1068 2052 1074 1918 c 1,26,-1
 1058 1858 l 1,27,28
 1002 1736 1002 1736 860 1770 c 2,29,-1
 364 1876 l 2,30,31
 224 1904 224 1904 218 2038 c 1,20,-1
484 472 m 2,32,33
 486 406 486 406 532 361 c 128,-1,34
 578 316 578 316 636 312 c 1,35,-1
 668 312 l 1,36,37
 726 316 726 316 772 361 c 128,-1,38
 818 406 818 406 820 472 c 2,39,-1
 820 1204 l 2,40,41
 818 1270 818 1270 772 1315 c 128,-1,42
 726 1360 726 1360 668 1364 c 1,43,-1
 636 1364 l 1,44,45
 578 1360 578 1360 532 1315 c 128,-1,46
 486 1270 486 1270 484 1204 c 2,47,-1
 484 472 l 2,32,33
EndSplineSet
Validated: 33
EndChar

StartChar: Oacute
Encoding: 211 211 149
Width: 1304
GlyphClass: 2
Flags: W
LayerCount: 2
Fore
SplineSet
80 436 m 1,0,-1
 80 1240 l 1,1,2
 86 1336 86 1336 157 1445 c 128,-1,3
 228 1554 228 1554 340 1614 c 128,-1,4
 452 1674 452 1674 556 1676 c 2,5,-1
 726 1676 l 2,6,7
 852 1674 852 1674 964 1614 c 128,-1,8
 1076 1554 1076 1554 1147 1445 c 128,-1,9
 1218 1336 1218 1336 1224 1240 c 1,10,-1
 1224 436 l 1,11,12
 1218 340 1218 340 1147 231 c 128,-1,13
 1076 122 1076 122 964 62 c 128,-1,14
 852 2 852 2 726 0 c 2,15,-1
 556 0 l 2,16,17
 452 2 452 2 340 62 c 128,-1,18
 228 122 228 122 157 231 c 128,-1,19
 86 340 86 340 80 436 c 1,0,-1
218 1918 m 1,20,21
 224 2052 224 2052 364 2080 c 2,22,-1
 860 2186 l 2,23,24
 1002 2220 1002 2220 1058 2098 c 1,25,-1
 1074 2038 l 1,26,27
 1068 1904 1068 1904 928 1876 c 2,28,-1
 432 1770 l 2,29,30
 290 1736 290 1736 234 1858 c 1,31,-1
 218 1918 l 1,20,21
484 472 m 2,32,33
 486 406 486 406 532 361 c 128,-1,34
 578 316 578 316 636 312 c 1,35,-1
 668 312 l 1,36,37
 726 316 726 316 772 361 c 128,-1,38
 818 406 818 406 820 472 c 2,39,-1
 820 1204 l 2,40,41
 818 1270 818 1270 772 1315 c 128,-1,42
 726 1360 726 1360 668 1364 c 1,43,-1
 636 1364 l 1,44,45
 578 1360 578 1360 532 1315 c 128,-1,46
 486 1270 486 1270 484 1204 c 2,47,-1
 484 472 l 2,32,33
EndSplineSet
Validated: 33
EndChar

StartChar: Ocircumflex
Encoding: 212 212 150
Width: 1304
GlyphClass: 2
Flags: W
LayerCount: 2
Fore
SplineSet
80 436 m 1,0,-1
 80 1240 l 1,1,2
 86 1336 86 1336 157 1445 c 128,-1,3
 228 1554 228 1554 340 1614 c 128,-1,4
 452 1674 452 1674 556 1676 c 2,5,-1
 726 1676 l 2,6,7
 852 1674 852 1674 964 1614 c 128,-1,8
 1076 1554 1076 1554 1147 1445 c 128,-1,9
 1218 1336 1218 1336 1224 1240 c 1,10,-1
 1224 436 l 1,11,12
 1218 340 1218 340 1147 231 c 128,-1,13
 1076 122 1076 122 964 62 c 128,-1,14
 852 2 852 2 726 0 c 2,15,-1
 556 0 l 2,16,17
 452 2 452 2 340 62 c 128,-1,18
 228 122 228 122 157 231 c 128,-1,19
 86 340 86 340 80 436 c 1,0,-1
240 1900 m 1,20,21
 238 2016 238 2016 344 2060 c 1,22,-1
 580 2182 l 1,23,24
 644 2200 644 2200 712 2182 c 1,25,-1
 948 2060 l 1,26,27
 1054 2016 1054 2016 1052 1900 c 1,28,-1
 1028 1828 l 1,29,30
 978 1730 978 1730 844 1770 c 1,31,-1
 646 1870 l 1,32,-1
 448 1770 l 1,33,34
 314 1730 314 1730 264 1828 c 1,35,-1
 240 1900 l 1,20,21
484 472 m 2,36,37
 486 406 486 406 532 361 c 128,-1,38
 578 316 578 316 636 312 c 1,39,-1
 668 312 l 1,40,41
 726 316 726 316 772 361 c 128,-1,42
 818 406 818 406 820 472 c 2,43,-1
 820 1204 l 2,44,45
 818 1270 818 1270 772 1315 c 128,-1,46
 726 1360 726 1360 668 1364 c 1,47,-1
 636 1364 l 1,48,49
 578 1360 578 1360 532 1315 c 128,-1,50
 486 1270 486 1270 484 1204 c 2,51,-1
 484 472 l 2,36,37
EndSplineSet
Validated: 33
EndChar

StartChar: Otilde
Encoding: 213 213 151
Width: 1304
GlyphClass: 2
Flags: W
LayerCount: 2
Fore
SplineSet
80 436 m 1,0,-1
 80 1240 l 1,1,2
 86 1336 86 1336 157 1445 c 128,-1,3
 228 1554 228 1554 340 1614 c 128,-1,4
 452 1674 452 1674 556 1676 c 2,5,-1
 726 1676 l 2,6,7
 852 1674 852 1674 964 1614 c 128,-1,8
 1076 1554 1076 1554 1147 1445 c 128,-1,9
 1218 1336 1218 1336 1224 1240 c 1,10,-1
 1224 436 l 1,11,12
 1218 340 1218 340 1147 231 c 128,-1,13
 1076 122 1076 122 964 62 c 128,-1,14
 852 2 852 2 726 0 c 2,15,-1
 556 0 l 2,16,17
 452 2 452 2 340 62 c 128,-1,18
 228 122 228 122 157 231 c 128,-1,19
 86 340 86 340 80 436 c 1,0,-1
224 1880 m 1,20,21
 206 1990 206 1990 320 2056 c 1,22,-1
 480 2160 l 2,23,24
 540 2196 540 2196 608 2178 c 1,25,-1
 754 2080 l 1,26,-1
 876 2170 l 1,27,28
 1010 2210 1010 2210 1060 2112 c 1,29,-1
 1084 2040 l 1,30,31
 1086 1924 1086 1924 980 1880 c 1,32,-1
 814 1768 l 1,33,34
 750 1746 750 1746 684 1766 c 1,35,-1
 552 1858 l 1,36,-1
 424 1766 l 1,37,38
 300 1714 300 1714 256 1808 c 2,39,-1
 224 1880 l 1,20,21
484 472 m 2,40,41
 486 406 486 406 532 361 c 128,-1,42
 578 316 578 316 636 312 c 1,43,-1
 668 312 l 1,44,45
 726 316 726 316 772 361 c 128,-1,46
 818 406 818 406 820 472 c 2,47,-1
 820 1204 l 2,48,49
 818 1270 818 1270 772 1315 c 128,-1,50
 726 1360 726 1360 668 1364 c 1,51,-1
 636 1364 l 1,52,53
 578 1360 578 1360 532 1315 c 128,-1,54
 486 1270 486 1270 484 1204 c 2,55,-1
 484 472 l 2,40,41
EndSplineSet
Validated: 33
EndChar

StartChar: Odieresis
Encoding: 214 214 152
Width: 1304
GlyphClass: 2
Flags: W
LayerCount: 2
Fore
SplineSet
80 436 m 1,0,-1
 80 1240 l 1,1,2
 86 1336 86 1336 157 1445 c 128,-1,3
 228 1554 228 1554 340 1614 c 128,-1,4
 452 1674 452 1674 556 1676 c 2,5,-1
 726 1676 l 2,6,7
 852 1674 852 1674 964 1614 c 128,-1,8
 1076 1554 1076 1554 1147 1445 c 128,-1,9
 1218 1336 1218 1336 1224 1240 c 1,10,-1
 1224 436 l 1,11,12
 1218 340 1218 340 1147 231 c 128,-1,13
 1076 122 1076 122 964 62 c 128,-1,14
 852 2 852 2 726 0 c 2,15,-1
 556 0 l 2,16,17
 452 2 452 2 340 62 c 128,-1,18
 228 122 228 122 157 231 c 128,-1,19
 86 340 86 340 80 436 c 1,0,-1
152 1974 m 256,20,21
 152 2062 152 2062 213 2123 c 128,-1,22
 274 2184 274 2184 362 2184 c 256,23,24
 450 2184 450 2184 511 2123 c 128,-1,25
 572 2062 572 2062 572 1974 c 256,26,27
 572 1886 572 1886 511 1825 c 128,-1,28
 450 1764 450 1764 362 1764 c 256,29,30
 274 1764 274 1764 213 1825 c 128,-1,31
 152 1886 152 1886 152 1974 c 256,20,21
484 472 m 2,32,33
 486 406 486 406 532 361 c 128,-1,34
 578 316 578 316 636 312 c 1,35,-1
 668 312 l 1,36,37
 726 316 726 316 772 361 c 128,-1,38
 818 406 818 406 820 472 c 2,39,-1
 820 1204 l 2,40,41
 818 1270 818 1270 772 1315 c 128,-1,42
 726 1360 726 1360 668 1364 c 1,43,-1
 636 1364 l 1,44,45
 578 1360 578 1360 532 1315 c 128,-1,46
 486 1270 486 1270 484 1204 c 2,47,-1
 484 472 l 2,32,33
732 1974 m 256,48,49
 732 2062 732 2062 793 2123 c 128,-1,50
 854 2184 854 2184 942 2184 c 256,51,52
 1030 2184 1030 2184 1091 2123 c 128,-1,53
 1152 2062 1152 2062 1152 1974 c 256,54,55
 1152 1886 1152 1886 1091 1825 c 128,-1,56
 1030 1764 1030 1764 942 1764 c 256,57,58
 854 1764 854 1764 793 1825 c 128,-1,59
 732 1886 732 1886 732 1974 c 256,48,49
EndSplineSet
Validated: 1
EndChar

StartChar: multiply
Encoding: 215 215 153
Width: 1008
GlyphClass: 2
Flags: W
LayerCount: 2
Fore
SplineSet
156 534 m 1,0,1
 88 650 88 650 192 750 c 2,2,-1
 280 838 l 1,3,-1
 192 928 l 1,4,5
 88 1028 88 1028 158 1142 c 1,6,-1
 200 1186 l 1,7,8
 316 1254 316 1254 416 1150 c 2,9,-1
 504 1062 l 1,10,-1
 594 1150 l 1,11,12
 694 1254 694 1254 808 1184 c 1,13,-1
 852 1142 l 1,14,15
 920 1026 920 1026 816 926 c 2,16,-1
 728 838 l 1,17,-1
 816 748 l 1,18,19
 920 648 920 648 850 534 c 1,20,-1
 808 490 l 1,21,22
 692 422 692 422 592 526 c 2,23,-1
 504 614 l 1,24,-1
 414 526 l 1,25,26
 314 422 314 422 200 492 c 1,27,-1
 156 534 l 1,0,1
EndSplineSet
Validated: 33
EndChar

StartChar: Oslash
Encoding: 216 216 154
Width: 1316
GlyphClass: 2
Flags: W
LayerCount: 2
Fore
SplineSet
80 436 m 1,0,-1
 80 1240 l 1,1,2
 86 1336 86 1336 157 1445 c 128,-1,3
 228 1554 228 1554 340 1614 c 128,-1,4
 452 1674 452 1674 556 1676 c 2,5,-1
 612 1676 l 1,6,7
 624 1732 624 1732 654 1768 c 0,8,9
 688 1808 688 1808 765 1797 c 128,-1,10
 842 1786 842 1786 868 1736 c 0,11,12
 888 1698 888 1698 890 1650 c 1,13,14
 934 1636 934 1636 976 1614 c 0,15,16
 1088 1554 1088 1554 1159 1445 c 128,-1,17
 1230 1336 1230 1336 1236 1240 c 1,18,-1
 1236 436 l 1,19,20
 1230 340 1230 340 1159 231 c 128,-1,21
 1088 122 1088 122 976 62 c 128,-1,22
 864 2 864 2 738 0 c 2,23,-1
 710 0 l 1,24,25
 700 -58 700 -58 668 -96 c 0,26,27
 630 -138 630 -138 554 -124 c 128,-1,28
 478 -110 478 -110 454 -62 c 0,29,30
 434 -24 434 -24 432 22 c 1,31,32
 386 38 386 38 340 62 c 0,33,34
 228 122 228 122 157 231 c 128,-1,35
 86 340 86 340 80 436 c 1,0,-1
476 458 m 1,36,-1
 576 1348 l 1,37,38
 550 1336 550 1336 528 1316 c 0,39,40
 478 1270 478 1270 476 1204 c 2,41,-1
 476 472 l 2,42,43
 476 466 476 466 476 458 c 1,36,-1
748 330 m 1,44,45
 772 340 772 340 794 362 c 0,46,47
 842 406 842 406 844 472 c 2,48,-1
 844 1202 l 1,49,-1
 748 330 l 1,44,45
EndSplineSet
Validated: 33
EndChar

StartChar: Ugrave
Encoding: 217 217 155
Width: 1304
GlyphClass: 2
Flags: W
LayerCount: 2
Fore
SplineSet
80 436 m 1,0,-1
 80 1516 l 2,1,2
 82 1582 82 1582 128 1627 c 128,-1,3
 174 1672 174 1672 232 1676 c 1,4,-1
 324 1676 l 1,5,6
 382 1672 382 1672 428 1627 c 128,-1,7
 474 1582 474 1582 476 1516 c 2,8,-1
 476 472 l 1,9,10
 486 406 486 406 532 361 c 128,-1,11
 578 316 578 316 636 312 c 1,12,-1
 668 312 l 1,13,14
 726 316 726 316 772 361 c 128,-1,15
 818 406 818 406 820 472 c 2,16,-1
 820 1516 l 2,17,18
 822 1582 822 1582 868 1627 c 128,-1,19
 914 1672 914 1672 972 1676 c 1,20,-1
 1072 1676 l 1,21,22
 1130 1672 1130 1672 1176 1627 c 128,-1,23
 1222 1582 1222 1582 1224 1516 c 2,24,-1
 1224 436 l 1,25,26
 1218 340 1218 340 1147 231 c 128,-1,27
 1076 122 1076 122 964 62 c 128,-1,28
 852 2 852 2 748 0 c 2,29,-1
 576 0 l 2,30,31
 452 2 452 2 340 62 c 128,-1,32
 228 122 228 122 157 231 c 128,-1,33
 86 340 86 340 80 436 c 1,0,-1
218 2038 m 1,34,-1
 234 2098 l 1,35,36
 290 2220 290 2220 432 2186 c 2,37,-1
 928 2080 l 2,38,39
 1068 2052 1068 2052 1074 1918 c 1,40,-1
 1058 1858 l 1,41,42
 1002 1736 1002 1736 860 1770 c 2,43,-1
 364 1876 l 2,44,45
 224 1904 224 1904 218 2038 c 1,34,-1
EndSplineSet
Validated: 33
EndChar

StartChar: Uacute
Encoding: 218 218 156
Width: 1304
GlyphClass: 2
Flags: W
LayerCount: 2
Fore
SplineSet
80 436 m 1,0,-1
 80 1516 l 2,1,2
 82 1582 82 1582 128 1627 c 128,-1,3
 174 1672 174 1672 232 1676 c 1,4,-1
 324 1676 l 1,5,6
 382 1672 382 1672 428 1627 c 128,-1,7
 474 1582 474 1582 476 1516 c 2,8,-1
 476 472 l 1,9,10
 486 406 486 406 532 361 c 128,-1,11
 578 316 578 316 636 312 c 1,12,-1
 668 312 l 1,13,14
 726 316 726 316 772 361 c 128,-1,15
 818 406 818 406 820 472 c 2,16,-1
 820 1516 l 2,17,18
 822 1582 822 1582 868 1627 c 128,-1,19
 914 1672 914 1672 972 1676 c 1,20,-1
 1072 1676 l 1,21,22
 1130 1672 1130 1672 1176 1627 c 128,-1,23
 1222 1582 1222 1582 1224 1516 c 2,24,-1
 1224 436 l 1,25,26
 1218 340 1218 340 1147 231 c 128,-1,27
 1076 122 1076 122 964 62 c 128,-1,28
 852 2 852 2 748 0 c 2,29,-1
 576 0 l 2,30,31
 452 2 452 2 340 62 c 128,-1,32
 228 122 228 122 157 231 c 128,-1,33
 86 340 86 340 80 436 c 1,0,-1
218 1918 m 1,34,35
 224 2052 224 2052 364 2080 c 2,36,-1
 860 2186 l 2,37,38
 1002 2220 1002 2220 1058 2098 c 1,39,-1
 1074 2038 l 1,40,41
 1068 1904 1068 1904 928 1876 c 2,42,-1
 432 1770 l 2,43,44
 290 1736 290 1736 234 1858 c 1,45,-1
 218 1918 l 1,34,35
EndSplineSet
Validated: 33
EndChar

StartChar: Ucircumflex
Encoding: 219 219 157
Width: 1304
GlyphClass: 2
Flags: W
LayerCount: 2
Fore
SplineSet
80 436 m 1,0,-1
 80 1516 l 2,1,2
 82 1582 82 1582 128 1627 c 128,-1,3
 174 1672 174 1672 232 1676 c 1,4,-1
 324 1676 l 1,5,6
 382 1672 382 1672 428 1627 c 128,-1,7
 474 1582 474 1582 476 1516 c 2,8,-1
 476 472 l 1,9,10
 486 406 486 406 532 361 c 128,-1,11
 578 316 578 316 636 312 c 1,12,-1
 668 312 l 1,13,14
 726 316 726 316 772 361 c 128,-1,15
 818 406 818 406 820 472 c 2,16,-1
 820 1516 l 2,17,18
 822 1582 822 1582 868 1627 c 128,-1,19
 914 1672 914 1672 972 1676 c 1,20,-1
 1072 1676 l 1,21,22
 1130 1672 1130 1672 1176 1627 c 128,-1,23
 1222 1582 1222 1582 1224 1516 c 2,24,-1
 1224 436 l 1,25,26
 1218 340 1218 340 1147 231 c 128,-1,27
 1076 122 1076 122 964 62 c 128,-1,28
 852 2 852 2 748 0 c 2,29,-1
 576 0 l 2,30,31
 452 2 452 2 340 62 c 128,-1,32
 228 122 228 122 157 231 c 128,-1,33
 86 340 86 340 80 436 c 1,0,-1
240 1900 m 1,34,35
 238 2016 238 2016 344 2060 c 1,36,-1
 580 2182 l 1,37,38
 644 2200 644 2200 712 2182 c 1,39,-1
 948 2060 l 1,40,41
 1054 2016 1054 2016 1052 1900 c 1,42,-1
 1028 1828 l 1,43,44
 978 1730 978 1730 844 1770 c 1,45,-1
 646 1870 l 1,46,-1
 448 1770 l 1,47,48
 314 1730 314 1730 264 1828 c 1,49,-1
 240 1900 l 1,34,35
EndSplineSet
Validated: 33
EndChar

StartChar: Udieresis
Encoding: 220 220 158
Width: 1304
GlyphClass: 2
Flags: W
LayerCount: 2
Fore
SplineSet
80 436 m 1,0,-1
 80 1516 l 2,1,2
 82 1582 82 1582 128 1627 c 128,-1,3
 174 1672 174 1672 232 1676 c 1,4,-1
 324 1676 l 1,5,6
 382 1672 382 1672 428 1627 c 128,-1,7
 474 1582 474 1582 476 1516 c 2,8,-1
 476 472 l 1,9,10
 486 406 486 406 532 361 c 128,-1,11
 578 316 578 316 636 312 c 1,12,-1
 668 312 l 1,13,14
 726 316 726 316 772 361 c 128,-1,15
 818 406 818 406 820 472 c 2,16,-1
 820 1516 l 2,17,18
 822 1582 822 1582 868 1627 c 128,-1,19
 914 1672 914 1672 972 1676 c 1,20,-1
 1072 1676 l 1,21,22
 1130 1672 1130 1672 1176 1627 c 128,-1,23
 1222 1582 1222 1582 1224 1516 c 2,24,-1
 1224 436 l 1,25,26
 1218 340 1218 340 1147 231 c 128,-1,27
 1076 122 1076 122 964 62 c 128,-1,28
 852 2 852 2 748 0 c 2,29,-1
 576 0 l 2,30,31
 452 2 452 2 340 62 c 128,-1,32
 228 122 228 122 157 231 c 128,-1,33
 86 340 86 340 80 436 c 1,0,-1
152 1974 m 256,34,35
 152 2062 152 2062 213 2123 c 128,-1,36
 274 2184 274 2184 362 2184 c 256,37,38
 450 2184 450 2184 511 2123 c 128,-1,39
 572 2062 572 2062 572 1974 c 256,40,41
 572 1886 572 1886 511 1825 c 128,-1,42
 450 1764 450 1764 362 1764 c 256,43,44
 274 1764 274 1764 213 1825 c 128,-1,45
 152 1886 152 1886 152 1974 c 256,34,35
732 1974 m 256,46,47
 732 2062 732 2062 793 2123 c 128,-1,48
 854 2184 854 2184 942 2184 c 256,49,50
 1030 2184 1030 2184 1091 2123 c 128,-1,51
 1152 2062 1152 2062 1152 1974 c 256,52,53
 1152 1886 1152 1886 1091 1825 c 128,-1,54
 1030 1764 1030 1764 942 1764 c 256,55,56
 854 1764 854 1764 793 1825 c 128,-1,57
 732 1886 732 1886 732 1974 c 256,46,47
EndSplineSet
Validated: 1
EndChar

StartChar: Yacute
Encoding: 221 221 159
Width: 1260
GlyphClass: 2
Flags: W
LayerCount: 2
Fore
SplineSet
82 1520 m 1,0,1
 60 1582 60 1582 104 1631 c 128,-1,2
 148 1680 148 1680 218 1676 c 1,3,-1
 302 1676 l 2,4,5
 396 1674 396 1674 434 1604 c 1,6,-1
 630 1172 l 1,7,-1
 826 1604 l 1,8,9
 864 1674 864 1674 958 1676 c 2,10,-1
 1042 1676 l 1,11,12
 1112 1680 1112 1680 1156 1631 c 128,-1,13
 1200 1582 1200 1582 1178 1520 c 1,14,-1
 828 744 l 1,15,-1
 828 160 l 2,16,17
 826 94 826 94 780 49 c 128,-1,18
 734 4 734 4 676 0 c 1,19,-1
 582 0 l 1,20,21
 526 4 526 4 480 49 c 128,-1,22
 434 94 434 94 432 160 c 2,23,-1
 432 744 l 1,24,-1
 82 1520 l 1,0,1
206 1914 m 1,25,26
 212 2048 212 2048 352 2076 c 2,27,-1
 848 2182 l 2,28,29
 990 2216 990 2216 1046 2094 c 1,30,-1
 1062 2034 l 1,31,32
 1056 1900 1056 1900 916 1872 c 2,33,-1
 420 1766 l 2,34,35
 278 1732 278 1732 222 1854 c 1,36,-1
 206 1914 l 1,25,26
EndSplineSet
Validated: 33
EndChar

StartChar: germandbls
Encoding: 223 223 161
Width: 1328
GlyphClass: 2
Flags: W
LayerCount: 2
Fore
SplineSet
80 36 m 2,0,-1
 80 1440 l 2,1,2
 82 1546 82 1546 180 1613 c 128,-1,3
 278 1680 278 1680 420 1676 c 1,4,-1
 726 1676 l 2,5,6
 852 1674 852 1674 964 1614 c 128,-1,7
 1076 1554 1076 1554 1147 1445 c 128,-1,8
 1218 1336 1218 1336 1224 1240 c 1,9,-1
 1224 1116 l 1,10,11
 1218 1020 1218 1020 1170 946 c 128,-1,12
 1122 872 1122 872 1090 838 c 1,13,14
 1146 804 1146 804 1194 730 c 128,-1,15
 1242 656 1242 656 1248 560 c 1,16,-1
 1248 436 l 1,17,18
 1242 340 1242 340 1171 231 c 128,-1,19
 1100 122 1100 122 988 62 c 128,-1,20
 876 2 876 2 756 0 c 0,21,22
 612 -2 612 -2 580 128 c 1,23,-1
 580 188 l 1,24,25
 612 318 612 318 756 316 c 0,26,27
 784 318 784 318 813 362 c 128,-1,28
 842 406 842 406 844 472 c 2,29,-1
 844 520 l 2,30,31
 842 586 842 586 796 631 c 128,-1,32
 750 676 750 676 692 680 c 1,33,-1
 480 680 l 1,34,-1
 480 36 l 1,35,36
 474 -30 474 -30 428 -75 c 128,-1,37
 382 -120 382 -120 324 -124 c 1,38,-1
 230 -124 l 1,39,40
 174 -120 174 -120 128 -75 c 128,-1,41
 82 -30 82 -30 80 36 c 2,0,-1
480 996 m 1,42,-1
 668 996 l 1,43,44
 726 1000 726 1000 772 1045 c 128,-1,45
 818 1090 818 1090 820 1156 c 2,46,-1
 820 1204 l 2,47,48
 818 1270 818 1270 772 1315 c 128,-1,49
 726 1360 726 1360 668 1364 c 1,50,-1
 556 1364 l 2,51,52
 486 1366 486 1366 480 1312 c 1,53,-1
 480 996 l 1,42,-1
EndSplineSet
Validated: 33
EndChar

StartChar: agrave
Encoding: 224 224 162
Width: 1264
GlyphClass: 2
Flags: W
LayerCount: 2
Fore
SplineSet
60 160 m 1,0,-1
 192 1488 l 1,1,2
 208 1564 208 1564 317 1621 c 128,-1,3
 426 1678 426 1678 540 1676 c 2,4,-1
 724 1676 l 2,5,6
 838 1678 838 1678 947 1621 c 128,-1,7
 1056 1564 1056 1564 1072 1488 c 1,8,-1
 1204 160 l 1,9,10
 1202 94 1202 94 1156 49 c 128,-1,11
 1110 4 1110 4 1052 0 c 1,12,-1
 960 0 l 1,13,14
 860 8 860 8 820 100 c 1,15,-1
 764 680 l 1,16,-1
 500 680 l 1,17,-1
 444 100 l 1,18,19
 404 8 404 8 304 0 c 1,20,-1
 212 0 l 1,21,22
 154 4 154 4 108 49 c 128,-1,23
 62 94 62 94 60 160 c 1,0,-1
202 2038 m 1,24,-1
 218 2098 l 1,25,26
 274 2220 274 2220 416 2186 c 2,27,-1
 912 2080 l 2,28,29
 1052 2052 1052 2052 1058 1918 c 1,30,-1
 1042 1858 l 1,31,32
 986 1736 986 1736 844 1770 c 2,33,-1
 348 1876 l 2,34,35
 208 1904 208 1904 202 2038 c 1,24,-1
530 996 m 1,36,-1
 734 996 l 1,37,-1
 700 1344 l 1,38,39
 686 1362 686 1362 660 1364 c 2,40,-1
 604 1364 l 2,41,42
 578 1362 578 1362 564 1344 c 1,43,-1
 530 996 l 1,36,-1
EndSplineSet
Validated: 33
EndChar

StartChar: aacute
Encoding: 225 225 163
Width: 1264
GlyphClass: 2
Flags: W
LayerCount: 2
Fore
SplineSet
60 160 m 1,0,-1
 192 1488 l 1,1,2
 208 1564 208 1564 317 1621 c 128,-1,3
 426 1678 426 1678 540 1676 c 2,4,-1
 724 1676 l 2,5,6
 838 1678 838 1678 947 1621 c 128,-1,7
 1056 1564 1056 1564 1072 1488 c 1,8,-1
 1204 160 l 1,9,10
 1202 94 1202 94 1156 49 c 128,-1,11
 1110 4 1110 4 1052 0 c 1,12,-1
 960 0 l 1,13,14
 860 8 860 8 820 100 c 1,15,-1
 764 680 l 1,16,-1
 500 680 l 1,17,-1
 444 100 l 1,18,19
 404 8 404 8 304 0 c 1,20,-1
 212 0 l 1,21,22
 154 4 154 4 108 49 c 128,-1,23
 62 94 62 94 60 160 c 1,0,-1
202 1918 m 1,24,25
 208 2052 208 2052 348 2080 c 2,26,-1
 844 2186 l 2,27,28
 986 2220 986 2220 1042 2098 c 1,29,-1
 1058 2038 l 1,30,31
 1052 1904 1052 1904 912 1876 c 2,32,-1
 416 1770 l 2,33,34
 274 1736 274 1736 218 1858 c 1,35,-1
 202 1918 l 1,24,25
530 996 m 1,36,-1
 734 996 l 1,37,-1
 700 1344 l 1,38,39
 686 1362 686 1362 660 1364 c 2,40,-1
 604 1364 l 2,41,42
 578 1362 578 1362 564 1344 c 1,43,-1
 530 996 l 1,36,-1
EndSplineSet
Validated: 33
EndChar

StartChar: acircumflex
Encoding: 226 226 164
Width: 1264
GlyphClass: 2
Flags: W
LayerCount: 2
Fore
SplineSet
60 160 m 1,0,-1
 192 1488 l 1,1,2
 208 1564 208 1564 317 1621 c 128,-1,3
 426 1678 426 1678 540 1676 c 2,4,-1
 724 1676 l 2,5,6
 838 1678 838 1678 947 1621 c 128,-1,7
 1056 1564 1056 1564 1072 1488 c 1,8,-1
 1204 160 l 1,9,10
 1202 94 1202 94 1156 49 c 128,-1,11
 1110 4 1110 4 1052 0 c 1,12,-1
 960 0 l 1,13,14
 860 8 860 8 820 100 c 1,15,-1
 764 680 l 1,16,-1
 500 680 l 1,17,-1
 444 100 l 1,18,19
 404 8 404 8 304 0 c 1,20,-1
 212 0 l 1,21,22
 154 4 154 4 108 49 c 128,-1,23
 62 94 62 94 60 160 c 1,0,-1
220 1900 m 1,24,25
 218 2016 218 2016 324 2060 c 1,26,-1
 560 2182 l 1,27,28
 624 2200 624 2200 692 2182 c 1,29,-1
 928 2060 l 1,30,31
 1034 2016 1034 2016 1032 1900 c 1,32,-1
 1008 1828 l 1,33,34
 958 1730 958 1730 824 1770 c 1,35,-1
 626 1870 l 1,36,-1
 428 1770 l 1,37,38
 294 1730 294 1730 244 1828 c 1,39,-1
 220 1900 l 1,24,25
530 996 m 1,40,-1
 734 996 l 1,41,-1
 700 1344 l 1,42,43
 686 1362 686 1362 660 1364 c 2,44,-1
 604 1364 l 2,45,46
 578 1362 578 1362 564 1344 c 1,47,-1
 530 996 l 1,40,-1
EndSplineSet
Validated: 33
EndChar

StartChar: atilde
Encoding: 227 227 165
Width: 1264
GlyphClass: 2
Flags: W
LayerCount: 2
Fore
SplineSet
60 160 m 1,0,-1
 192 1488 l 1,1,2
 208 1564 208 1564 317 1621 c 128,-1,3
 426 1678 426 1678 540 1676 c 2,4,-1
 724 1676 l 2,5,6
 838 1678 838 1678 947 1621 c 128,-1,7
 1056 1564 1056 1564 1072 1488 c 1,8,-1
 1204 160 l 1,9,10
 1202 94 1202 94 1156 49 c 128,-1,11
 1110 4 1110 4 1052 0 c 1,12,-1
 960 0 l 1,13,14
 860 8 860 8 820 100 c 1,15,-1
 764 680 l 1,16,-1
 500 680 l 1,17,-1
 444 100 l 1,18,19
 404 8 404 8 304 0 c 1,20,-1
 212 0 l 1,21,22
 154 4 154 4 108 49 c 128,-1,23
 62 94 62 94 60 160 c 1,0,-1
208 1880 m 1,24,25
 190 1990 190 1990 304 2056 c 1,26,-1
 464 2160 l 2,27,28
 524 2196 524 2196 592 2178 c 1,29,-1
 738 2080 l 1,30,-1
 860 2170 l 1,31,32
 994 2210 994 2210 1044 2112 c 1,33,-1
 1068 2040 l 1,34,35
 1070 1924 1070 1924 964 1880 c 1,36,-1
 798 1768 l 1,37,38
 734 1746 734 1746 668 1766 c 1,39,-1
 536 1858 l 1,40,-1
 408 1766 l 1,41,42
 284 1714 284 1714 240 1808 c 2,43,-1
 208 1880 l 1,24,25
530 996 m 1,44,-1
 734 996 l 1,45,-1
 700 1344 l 1,46,47
 686 1362 686 1362 660 1364 c 2,48,-1
 604 1364 l 2,49,50
 578 1362 578 1362 564 1344 c 1,51,-1
 530 996 l 1,44,-1
EndSplineSet
Validated: 33
EndChar

StartChar: adieresis
Encoding: 228 228 166
Width: 1264
GlyphClass: 2
Flags: W
LayerCount: 2
Fore
SplineSet
60 160 m 1,0,-1
 192 1488 l 1,1,2
 208 1564 208 1564 317 1621 c 128,-1,3
 426 1678 426 1678 540 1676 c 2,4,-1
 724 1676 l 2,5,6
 838 1678 838 1678 947 1621 c 128,-1,7
 1056 1564 1056 1564 1072 1488 c 1,8,-1
 1204 160 l 1,9,10
 1202 94 1202 94 1156 49 c 128,-1,11
 1110 4 1110 4 1052 0 c 1,12,-1
 960 0 l 1,13,14
 860 8 860 8 820 100 c 1,15,-1
 764 680 l 1,16,-1
 500 680 l 1,17,-1
 444 100 l 1,18,19
 404 8 404 8 304 0 c 1,20,-1
 212 0 l 1,21,22
 154 4 154 4 108 49 c 128,-1,23
 62 94 62 94 60 160 c 1,0,-1
124 1974 m 256,24,25
 124 2062 124 2062 185 2123 c 128,-1,26
 246 2184 246 2184 334 2184 c 256,27,28
 422 2184 422 2184 483 2123 c 128,-1,29
 544 2062 544 2062 544 1974 c 256,30,31
 544 1886 544 1886 483 1825 c 128,-1,32
 422 1764 422 1764 334 1764 c 256,33,34
 246 1764 246 1764 185 1825 c 128,-1,35
 124 1886 124 1886 124 1974 c 256,24,25
530 996 m 1,36,-1
 734 996 l 1,37,-1
 700 1344 l 1,38,39
 686 1362 686 1362 660 1364 c 2,40,-1
 604 1364 l 2,41,42
 578 1362 578 1362 564 1344 c 1,43,-1
 530 996 l 1,36,-1
704 1974 m 256,44,45
 704 2062 704 2062 765 2123 c 128,-1,46
 826 2184 826 2184 914 2184 c 256,47,48
 1002 2184 1002 2184 1063 2123 c 128,-1,49
 1124 2062 1124 2062 1124 1974 c 256,50,51
 1124 1886 1124 1886 1063 1825 c 128,-1,52
 1002 1764 1002 1764 914 1764 c 256,53,54
 826 1764 826 1764 765 1825 c 128,-1,55
 704 1886 704 1886 704 1974 c 256,44,45
EndSplineSet
Validated: 33
EndChar

StartChar: aring
Encoding: 229 229 167
Width: 1264
GlyphClass: 2
Flags: W
LayerCount: 2
Fore
SplineSet
60 160 m 1,0,-1
 192 1488 l 1,1,2
 208 1564 208 1564 317 1621 c 128,-1,3
 426 1678 426 1678 540 1676 c 2,4,-1
 724 1676 l 2,5,6
 838 1678 838 1678 947 1621 c 128,-1,7
 1056 1564 1056 1564 1072 1488 c 1,8,-1
 1204 160 l 1,9,10
 1202 94 1202 94 1156 49 c 128,-1,11
 1110 4 1110 4 1052 0 c 1,12,-1
 960 0 l 1,13,14
 860 8 860 8 820 100 c 1,15,-1
 764 680 l 1,16,-1
 500 680 l 1,17,-1
 444 100 l 1,18,19
 404 8 404 8 304 0 c 1,20,-1
 212 0 l 1,21,22
 154 4 154 4 108 49 c 128,-1,23
 62 94 62 94 60 160 c 1,0,-1
394 2006 m 256,24,25
 394 2106 394 2106 464 2176 c 128,-1,26
 534 2246 534 2246 634 2246 c 256,27,28
 734 2246 734 2246 804 2176 c 128,-1,29
 874 2106 874 2106 874 2006 c 256,30,31
 874 1906 874 1906 804 1836 c 128,-1,32
 734 1766 734 1766 634 1766 c 256,33,34
 534 1766 534 1766 464 1836 c 128,-1,35
 394 1906 394 1906 394 2006 c 256,24,25
530 996 m 1,36,-1
 734 996 l 1,37,-1
 700 1344 l 1,38,39
 686 1362 686 1362 660 1364 c 2,40,-1
 604 1364 l 2,41,42
 578 1362 578 1362 564 1344 c 1,43,-1
 530 996 l 1,36,-1
540 2002 m 256,44,45
 540 2040 540 2040 566 2067 c 128,-1,46
 592 2094 592 2094 630 2094 c 256,47,48
 668 2094 668 2094 695 2067 c 128,-1,49
 722 2040 722 2040 722 2002 c 256,50,51
 722 1964 722 1964 695 1938 c 128,-1,52
 668 1912 668 1912 630 1912 c 256,53,54
 592 1912 592 1912 566 1938 c 128,-1,55
 540 1964 540 1964 540 2002 c 256,44,45
EndSplineSet
Validated: 41
EndChar

StartChar: ae
Encoding: 230 230 168
Width: 1892
GlyphClass: 2
Flags: W
LayerCount: 2
Fore
SplineSet
60 160 m 1,0,-1
 192 1488 l 1,1,2
 208 1564 208 1564 317 1621 c 128,-1,3
 426 1678 426 1678 540 1676 c 2,4,-1
 1636 1676 l 2,5,6
 1780 1678 1780 1678 1812 1548 c 1,7,-1
 1812 1492 l 1,8,9
 1780 1362 1780 1362 1636 1364 c 2,10,-1
 1356 1364 l 1,11,12
 1298 1360 1298 1360 1252 1315 c 128,-1,13
 1206 1270 1206 1270 1204 1204 c 2,14,-1
 1204 996 l 1,15,-1
 1600 996 l 2,16,17
 1744 998 1744 998 1776 868 c 1,18,-1
 1776 808 l 1,19,20
 1744 678 1744 678 1600 680 c 2,21,-1
 1204 680 l 1,22,-1
 1204 472 l 2,23,24
 1206 406 1206 406 1252 361 c 128,-1,25
 1298 316 1298 316 1356 312 c 1,26,-1
 1636 312 l 2,27,28
 1780 314 1780 314 1812 184 c 1,29,-1
 1812 128 l 1,30,31
 1780 -2 1780 -2 1636 0 c 2,32,-1
 1276 0 l 2,33,34
 1172 2 1172 2 1060 62 c 128,-1,35
 948 122 948 122 877 231 c 128,-1,36
 806 340 806 340 800 436 c 1,37,-1
 800 680 l 1,38,-1
 500 680 l 1,39,-1
 444 100 l 1,40,41
 404 8 404 8 304 0 c 1,42,-1
 212 0 l 1,43,44
 154 4 154 4 108 49 c 128,-1,45
 62 94 62 94 60 160 c 1,0,-1
530 996 m 1,46,-1
 800 996 l 1,47,-1
 800 1240 l 1,48,49
 804 1300 804 1300 832 1364 c 1,50,-1
 604 1364 l 2,51,52
 578 1362 578 1362 564 1344 c 1,53,-1
 530 996 l 1,46,-1
EndSplineSet
Validated: 33
EndChar

StartChar: ccedilla
Encoding: 231 231 169
Width: 1304
GlyphClass: 2
Flags: W
LayerCount: 2
Fore
SplineSet
80 436 m 1,0,-1
 80 1240 l 1,1,2
 86 1336 86 1336 157 1445 c 128,-1,3
 228 1554 228 1554 340 1614 c 128,-1,4
 452 1674 452 1674 556 1676 c 2,5,-1
 728 1676 l 2,6,7
 852 1674 852 1674 964 1614 c 128,-1,8
 1076 1554 1076 1554 1147 1445 c 128,-1,9
 1218 1336 1218 1336 1224 1240 c 1,10,-1
 1224 1168 l 2,11,12
 1222 1102 1222 1102 1176 1057 c 128,-1,13
 1130 1012 1130 1012 1072 1008 c 1,14,-1
 980 1008 l 1,15,16
 922 1012 922 1012 876 1057 c 128,-1,17
 830 1102 830 1102 828 1168 c 1,18,19
 818 1270 818 1270 772 1315 c 128,-1,20
 726 1360 726 1360 668 1364 c 1,21,-1
 636 1364 l 1,22,23
 578 1360 578 1360 532 1315 c 128,-1,24
 486 1270 486 1270 484 1204 c 2,25,-1
 484 472 l 2,26,27
 486 406 486 406 532 361 c 128,-1,28
 578 316 578 316 636 312 c 1,29,-1
 668 312 l 1,30,31
 726 316 726 316 772 361 c 128,-1,32
 818 406 818 406 828 508 c 1,33,34
 830 574 830 574 876 619 c 128,-1,35
 922 664 922 664 980 668 c 1,36,-1
 1072 668 l 1,37,38
 1130 664 1130 664 1176 619 c 128,-1,39
 1222 574 1222 574 1224 508 c 2,40,-1
 1224 436 l 1,41,42
 1218 340 1218 340 1147 231 c 128,-1,43
 1076 122 1076 122 995 78 c 128,-1,44
 914 34 914 34 860 20 c 1,45,-1
 860 -32 l 1,46,47
 854 -128 854 -128 783 -237 c 128,-1,48
 712 -346 712 -346 600 -406 c 128,-1,49
 488 -466 488 -466 384 -468 c 2,50,-1
 272 -468 l 2,51,52
 128 -470 128 -470 96 -340 c 1,53,-1
 96 -284 l 1,54,55
 128 -154 128 -154 272 -156 c 2,56,-1
 304 -156 l 1,57,58
 362 -152 362 -152 408 -107 c 128,-1,59
 454 -62 454 -62 456 4 c 2,60,-1
 456 14 l 1,61,62
 400 30 400 30 314 76 c 128,-1,63
 228 122 228 122 157 231 c 128,-1,64
 86 340 86 340 80 436 c 1,0,-1
EndSplineSet
Validated: 33
EndChar

StartChar: egrave
Encoding: 232 232 170
Width: 1304
GlyphClass: 2
Flags: W
LayerCount: 2
Fore
SplineSet
80 436 m 1,0,-1
 80 1240 l 1,1,2
 86 1336 86 1336 157 1445 c 128,-1,3
 228 1554 228 1554 340 1614 c 128,-1,4
 452 1674 452 1674 556 1676 c 2,5,-1
 1048 1676 l 2,6,7
 1192 1678 1192 1678 1224 1548 c 1,8,-1
 1224 1492 l 1,9,10
 1192 1362 1192 1362 1048 1364 c 2,11,-1
 636 1364 l 1,12,13
 578 1360 578 1360 532 1315 c 128,-1,14
 486 1270 486 1270 484 1204 c 2,15,-1
 484 996 l 1,16,-1
 1012 996 l 2,17,18
 1156 998 1156 998 1188 868 c 1,19,-1
 1188 808 l 1,20,21
 1156 678 1156 678 1012 680 c 2,22,-1
 484 680 l 1,23,-1
 484 472 l 2,24,25
 486 406 486 406 532 361 c 128,-1,26
 578 316 578 316 636 312 c 1,27,-1
 1048 312 l 2,28,29
 1192 314 1192 314 1224 184 c 1,30,-1
 1224 128 l 1,31,32
 1192 -2 1192 -2 1048 0 c 2,33,-1
 556 0 l 2,34,35
 452 2 452 2 340 62 c 128,-1,36
 228 122 228 122 157 231 c 128,-1,37
 86 340 86 340 80 436 c 1,0,-1
214 2038 m 1,38,-1
 230 2098 l 1,39,40
 286 2220 286 2220 428 2186 c 2,41,-1
 924 2080 l 2,42,43
 1064 2052 1064 2052 1070 1918 c 1,44,-1
 1054 1858 l 1,45,46
 998 1736 998 1736 856 1770 c 2,47,-1
 360 1876 l 2,48,49
 220 1904 220 1904 214 2038 c 1,38,-1
EndSplineSet
Validated: 33
EndChar

StartChar: eacute
Encoding: 233 233 171
Width: 1304
GlyphClass: 2
Flags: W
LayerCount: 2
Fore
SplineSet
80 436 m 1,0,-1
 80 1240 l 1,1,2
 86 1336 86 1336 157 1445 c 128,-1,3
 228 1554 228 1554 340 1614 c 128,-1,4
 452 1674 452 1674 556 1676 c 2,5,-1
 1048 1676 l 2,6,7
 1192 1678 1192 1678 1224 1548 c 1,8,-1
 1224 1492 l 1,9,10
 1192 1362 1192 1362 1048 1364 c 2,11,-1
 636 1364 l 1,12,13
 578 1360 578 1360 532 1315 c 128,-1,14
 486 1270 486 1270 484 1204 c 2,15,-1
 484 996 l 1,16,-1
 1012 996 l 2,17,18
 1156 998 1156 998 1188 868 c 1,19,-1
 1188 808 l 1,20,21
 1156 678 1156 678 1012 680 c 2,22,-1
 484 680 l 1,23,-1
 484 472 l 2,24,25
 486 406 486 406 532 361 c 128,-1,26
 578 316 578 316 636 312 c 1,27,-1
 1048 312 l 2,28,29
 1192 314 1192 314 1224 184 c 1,30,-1
 1224 128 l 1,31,32
 1192 -2 1192 -2 1048 0 c 2,33,-1
 556 0 l 2,34,35
 452 2 452 2 340 62 c 128,-1,36
 228 122 228 122 157 231 c 128,-1,37
 86 340 86 340 80 436 c 1,0,-1
214 1918 m 1,38,39
 220 2052 220 2052 360 2080 c 2,40,-1
 856 2186 l 2,41,42
 998 2220 998 2220 1054 2098 c 1,43,-1
 1070 2038 l 1,44,45
 1064 1904 1064 1904 924 1876 c 2,46,-1
 428 1770 l 2,47,48
 286 1736 286 1736 230 1858 c 1,49,-1
 214 1918 l 1,38,39
EndSplineSet
Validated: 33
EndChar

StartChar: ecircumflex
Encoding: 234 234 172
Width: 1304
GlyphClass: 2
Flags: W
LayerCount: 2
Fore
SplineSet
80 436 m 1,0,-1
 80 1240 l 1,1,2
 86 1336 86 1336 157 1445 c 128,-1,3
 228 1554 228 1554 340 1614 c 128,-1,4
 452 1674 452 1674 556 1676 c 2,5,-1
 1048 1676 l 2,6,7
 1192 1678 1192 1678 1224 1548 c 1,8,-1
 1224 1492 l 1,9,10
 1192 1362 1192 1362 1048 1364 c 2,11,-1
 636 1364 l 1,12,13
 578 1360 578 1360 532 1315 c 128,-1,14
 486 1270 486 1270 484 1204 c 2,15,-1
 484 996 l 1,16,-1
 1012 996 l 2,17,18
 1156 998 1156 998 1188 868 c 1,19,-1
 1188 808 l 1,20,21
 1156 678 1156 678 1012 680 c 2,22,-1
 484 680 l 1,23,-1
 484 472 l 2,24,25
 486 406 486 406 532 361 c 128,-1,26
 578 316 578 316 636 312 c 1,27,-1
 1048 312 l 2,28,29
 1192 314 1192 314 1224 184 c 1,30,-1
 1224 128 l 1,31,32
 1192 -2 1192 -2 1048 0 c 2,33,-1
 556 0 l 2,34,35
 452 2 452 2 340 62 c 128,-1,36
 228 122 228 122 157 231 c 128,-1,37
 86 340 86 340 80 436 c 1,0,-1
236 1900 m 1,38,39
 234 2016 234 2016 340 2060 c 1,40,-1
 576 2182 l 1,41,42
 640 2200 640 2200 708 2182 c 1,43,-1
 944 2060 l 1,44,45
 1050 2016 1050 2016 1048 1900 c 1,46,-1
 1024 1828 l 1,47,48
 974 1730 974 1730 840 1770 c 1,49,-1
 642 1870 l 1,50,-1
 444 1770 l 1,51,52
 310 1730 310 1730 260 1828 c 1,53,-1
 236 1900 l 1,38,39
EndSplineSet
Validated: 33
EndChar

StartChar: edieresis
Encoding: 235 235 173
Width: 1304
GlyphClass: 2
Flags: W
LayerCount: 2
Fore
SplineSet
80 436 m 1,0,-1
 80 1240 l 1,1,2
 86 1336 86 1336 157 1445 c 128,-1,3
 228 1554 228 1554 340 1614 c 128,-1,4
 452 1674 452 1674 556 1676 c 2,5,-1
 1048 1676 l 2,6,7
 1192 1678 1192 1678 1224 1548 c 1,8,-1
 1224 1492 l 1,9,10
 1192 1362 1192 1362 1048 1364 c 2,11,-1
 636 1364 l 1,12,13
 578 1360 578 1360 532 1315 c 128,-1,14
 486 1270 486 1270 484 1204 c 2,15,-1
 484 996 l 1,16,-1
 1012 996 l 2,17,18
 1156 998 1156 998 1188 868 c 1,19,-1
 1188 808 l 1,20,21
 1156 678 1156 678 1012 680 c 2,22,-1
 484 680 l 1,23,-1
 484 472 l 2,24,25
 486 406 486 406 532 361 c 128,-1,26
 578 316 578 316 636 312 c 1,27,-1
 1048 312 l 2,28,29
 1192 314 1192 314 1224 184 c 1,30,-1
 1224 128 l 1,31,32
 1192 -2 1192 -2 1048 0 c 2,33,-1
 556 0 l 2,34,35
 452 2 452 2 340 62 c 128,-1,36
 228 122 228 122 157 231 c 128,-1,37
 86 340 86 340 80 436 c 1,0,-1
144 1970 m 256,38,39
 144 2058 144 2058 205 2119 c 128,-1,40
 266 2180 266 2180 354 2180 c 256,41,42
 442 2180 442 2180 503 2119 c 128,-1,43
 564 2058 564 2058 564 1970 c 256,44,45
 564 1882 564 1882 503 1821 c 128,-1,46
 442 1760 442 1760 354 1760 c 256,47,48
 266 1760 266 1760 205 1821 c 128,-1,49
 144 1882 144 1882 144 1970 c 256,38,39
724 1970 m 256,50,51
 724 2058 724 2058 785 2119 c 128,-1,52
 846 2180 846 2180 934 2180 c 256,53,54
 1022 2180 1022 2180 1083 2119 c 128,-1,55
 1144 2058 1144 2058 1144 1970 c 256,56,57
 1144 1882 1144 1882 1083 1821 c 128,-1,58
 1022 1760 1022 1760 934 1760 c 256,59,60
 846 1760 846 1760 785 1821 c 128,-1,61
 724 1882 724 1882 724 1970 c 256,50,51
EndSplineSet
Validated: 33
EndChar

StartChar: igrave
Encoding: 236 236 174
Width: 566
GlyphClass: 2
Flags: W
LayerCount: 2
Fore
SplineSet
-24 2038 m 1,0,-1
 -8 2098 l 1,1,2
 48 2220 48 2220 190 2186 c 1,3,-1
 442 2080 l 1,4,5
 590 2034 590 2034 588 1918 c 1,6,-1
 572 1858 l 1,7,8
 516 1736 516 1736 374 1770 c 1,9,-1
 122 1876 l 1,10,11
 -16 1918 -16 1918 -24 2038 c 1,0,-1
82 160 m 2,12,-1
 82 1516 l 2,13,14
 84 1582 84 1582 130 1627 c 128,-1,15
 176 1672 176 1672 234 1676 c 1,16,-1
 326 1676 l 1,17,18
 384 1672 384 1672 430 1627 c 128,-1,19
 476 1582 476 1582 478 1516 c 2,20,-1
 478 160 l 2,21,22
 476 94 476 94 430 49 c 128,-1,23
 384 4 384 4 326 0 c 1,24,-1
 232 0 l 1,25,26
 176 4 176 4 130 49 c 128,-1,27
 84 94 84 94 82 160 c 2,12,-1
EndSplineSet
Validated: 33
EndChar

StartChar: iacute
Encoding: 237 237 175
Width: 566
GlyphClass: 2
Flags: W
LayerCount: 2
Fore
SplineSet
-22 1918 m 1,0,1
 -24 2034 -24 2034 124 2080 c 1,2,-1
 376 2186 l 1,3,4
 518 2220 518 2220 574 2098 c 1,5,-1
 590 2038 l 1,6,7
 582 1918 582 1918 444 1876 c 1,8,-1
 192 1770 l 1,9,10
 50 1736 50 1736 -6 1858 c 1,11,-1
 -22 1918 l 1,0,1
84 160 m 2,12,-1
 84 1516 l 2,13,14
 86 1582 86 1582 132 1627 c 128,-1,15
 178 1672 178 1672 236 1676 c 1,16,-1
 328 1676 l 1,17,18
 386 1672 386 1672 432 1627 c 128,-1,19
 478 1582 478 1582 480 1516 c 2,20,-1
 480 160 l 2,21,22
 478 94 478 94 432 49 c 128,-1,23
 386 4 386 4 328 0 c 1,24,-1
 234 0 l 1,25,26
 178 4 178 4 132 49 c 128,-1,27
 86 94 86 94 84 160 c 2,12,-1
EndSplineSet
Validated: 33
EndChar

StartChar: icircumflex
Encoding: 238 238 176
Width: 544
GlyphClass: 2
Flags: W
LayerCount: 2
Fore
SplineSet
-96 1892 m 1,0,1
 -92 1992 -92 1992 44 2076 c 1,2,-1
 196 2182 l 1,3,4
 238 2192 238 2192 272 2192 c 128,-1,5
 306 2192 306 2192 348 2182 c 1,6,-1
 500 2076 l 1,7,8
 636 1992 636 1992 640 1892 c 1,9,-1
 630 1854 l 1,10,11
 574 1732 574 1732 432 1766 c 1,12,-1
 276 1872 l 1,13,-1
 112 1766 l 1,14,15
 -30 1732 -30 1732 -86 1854 c 1,16,-1
 -96 1892 l 1,0,1
84 160 m 2,17,-1
 84 1516 l 2,18,19
 86 1582 86 1582 132 1627 c 128,-1,20
 178 1672 178 1672 236 1676 c 1,21,-1
 328 1676 l 1,22,23
 386 1672 386 1672 432 1627 c 128,-1,24
 478 1582 478 1582 480 1516 c 2,25,-1
 480 160 l 2,26,27
 478 94 478 94 432 49 c 128,-1,28
 386 4 386 4 328 0 c 1,29,-1
 234 0 l 1,30,31
 178 4 178 4 132 49 c 128,-1,32
 86 94 86 94 84 160 c 2,17,-1
EndSplineSet
Validated: 33
EndChar

StartChar: idieresis
Encoding: 239 239 177
Width: 552
GlyphClass: 2
Flags: W
LayerCount: 2
Fore
SplineSet
-180 1974 m 256,0,1
 -180 2062 -180 2062 -119 2123 c 128,-1,2
 -58 2184 -58 2184 30 2184 c 256,3,4
 118 2184 118 2184 179 2123 c 128,-1,5
 240 2062 240 2062 240 1974 c 256,6,7
 240 1886 240 1886 179 1825 c 128,-1,8
 118 1764 118 1764 30 1764 c 256,9,10
 -58 1764 -58 1764 -119 1825 c 128,-1,11
 -180 1886 -180 1886 -180 1974 c 256,0,1
84 160 m 2,12,-1
 84 1516 l 2,13,14
 86 1582 86 1582 132 1627 c 128,-1,15
 178 1672 178 1672 236 1676 c 1,16,-1
 328 1676 l 1,17,18
 386 1672 386 1672 432 1627 c 128,-1,19
 478 1582 478 1582 480 1516 c 2,20,-1
 480 160 l 2,21,22
 478 94 478 94 432 49 c 128,-1,23
 386 4 386 4 328 0 c 1,24,-1
 234 0 l 1,25,26
 178 4 178 4 132 49 c 128,-1,27
 86 94 86 94 84 160 c 2,12,-1
312 1970 m 256,28,29
 312 2058 312 2058 373 2119 c 128,-1,30
 434 2180 434 2180 522 2180 c 256,31,32
 610 2180 610 2180 671 2119 c 128,-1,33
 732 2058 732 2058 732 1970 c 256,34,35
 732 1882 732 1882 671 1821 c 128,-1,36
 610 1760 610 1760 522 1760 c 256,37,38
 434 1760 434 1760 373 1821 c 128,-1,39
 312 1882 312 1882 312 1970 c 256,28,29
EndSplineSet
Validated: 1
EndChar

StartChar: ntilde
Encoding: 241 241 179
Width: 1304
GlyphClass: 2
Flags: W
LayerCount: 2
Fore
SplineSet
80 160 m 2,0,-1
 80 1516 l 2,1,2
 82 1582 82 1582 128 1627 c 128,-1,3
 174 1672 174 1672 232 1676 c 1,4,-1
 324 1676 l 1,5,6
 444 1666 444 1666 508 1536 c 2,7,-1
 828 872 l 1,8,-1
 828 1516 l 2,9,10
 830 1582 830 1582 876 1627 c 128,-1,11
 922 1672 922 1672 980 1676 c 1,12,-1
 1072 1676 l 1,13,14
 1130 1672 1130 1672 1176 1627 c 128,-1,15
 1222 1582 1222 1582 1224 1516 c 2,16,-1
 1224 160 l 2,17,18
 1222 94 1222 94 1176 49 c 128,-1,19
 1130 4 1130 4 1072 0 c 1,20,-1
 980 0 l 1,21,22
 860 10 860 10 796 140 c 2,23,-1
 476 804 l 1,24,-1
 476 160 l 2,25,26
 474 94 474 94 428 49 c 128,-1,27
 382 4 382 4 324 0 c 1,28,-1
 232 0 l 1,29,30
 174 4 174 4 128 49 c 128,-1,31
 82 94 82 94 80 160 c 2,0,-1
224 1880 m 1,32,33
 206 1990 206 1990 320 2056 c 1,34,-1
 480 2160 l 2,35,36
 540 2196 540 2196 608 2178 c 1,37,-1
 754 2080 l 1,38,-1
 876 2170 l 1,39,40
 1010 2210 1010 2210 1060 2112 c 1,41,-1
 1084 2040 l 1,42,43
 1086 1924 1086 1924 980 1880 c 1,44,-1
 814 1768 l 1,45,46
 750 1746 750 1746 684 1766 c 1,47,-1
 552 1858 l 1,48,-1
 424 1766 l 1,49,50
 300 1714 300 1714 256 1808 c 2,51,-1
 224 1880 l 1,32,33
EndSplineSet
Validated: 33
EndChar

StartChar: ograve
Encoding: 242 242 180
Width: 1304
GlyphClass: 2
Flags: W
LayerCount: 2
Fore
SplineSet
80 436 m 1,0,-1
 80 1240 l 1,1,2
 86 1336 86 1336 157 1445 c 128,-1,3
 228 1554 228 1554 340 1614 c 128,-1,4
 452 1674 452 1674 556 1676 c 2,5,-1
 726 1676 l 2,6,7
 852 1674 852 1674 964 1614 c 128,-1,8
 1076 1554 1076 1554 1147 1445 c 128,-1,9
 1218 1336 1218 1336 1224 1240 c 1,10,-1
 1224 436 l 1,11,12
 1218 340 1218 340 1147 231 c 128,-1,13
 1076 122 1076 122 964 62 c 128,-1,14
 852 2 852 2 726 0 c 2,15,-1
 556 0 l 2,16,17
 452 2 452 2 340 62 c 128,-1,18
 228 122 228 122 157 231 c 128,-1,19
 86 340 86 340 80 436 c 1,0,-1
218 2038 m 1,20,-1
 234 2098 l 1,21,22
 290 2220 290 2220 432 2186 c 2,23,-1
 928 2080 l 2,24,25
 1068 2052 1068 2052 1074 1918 c 1,26,-1
 1058 1858 l 1,27,28
 1002 1736 1002 1736 860 1770 c 2,29,-1
 364 1876 l 2,30,31
 224 1904 224 1904 218 2038 c 1,20,-1
484 472 m 2,32,33
 486 406 486 406 532 361 c 128,-1,34
 578 316 578 316 636 312 c 1,35,-1
 668 312 l 1,36,37
 726 316 726 316 772 361 c 128,-1,38
 818 406 818 406 820 472 c 2,39,-1
 820 1204 l 2,40,41
 818 1270 818 1270 772 1315 c 128,-1,42
 726 1360 726 1360 668 1364 c 1,43,-1
 636 1364 l 1,44,45
 578 1360 578 1360 532 1315 c 128,-1,46
 486 1270 486 1270 484 1204 c 2,47,-1
 484 472 l 2,32,33
EndSplineSet
Validated: 33
EndChar

StartChar: oacute
Encoding: 243 243 181
Width: 1304
GlyphClass: 2
Flags: W
LayerCount: 2
Fore
SplineSet
80 436 m 1,0,-1
 80 1240 l 1,1,2
 86 1336 86 1336 157 1445 c 128,-1,3
 228 1554 228 1554 340 1614 c 128,-1,4
 452 1674 452 1674 556 1676 c 2,5,-1
 726 1676 l 2,6,7
 852 1674 852 1674 964 1614 c 128,-1,8
 1076 1554 1076 1554 1147 1445 c 128,-1,9
 1218 1336 1218 1336 1224 1240 c 1,10,-1
 1224 436 l 1,11,12
 1218 340 1218 340 1147 231 c 128,-1,13
 1076 122 1076 122 964 62 c 128,-1,14
 852 2 852 2 726 0 c 2,15,-1
 556 0 l 2,16,17
 452 2 452 2 340 62 c 128,-1,18
 228 122 228 122 157 231 c 128,-1,19
 86 340 86 340 80 436 c 1,0,-1
218 1918 m 1,20,21
 224 2052 224 2052 364 2080 c 2,22,-1
 860 2186 l 2,23,24
 1002 2220 1002 2220 1058 2098 c 1,25,-1
 1074 2038 l 1,26,27
 1068 1904 1068 1904 928 1876 c 2,28,-1
 432 1770 l 2,29,30
 290 1736 290 1736 234 1858 c 1,31,-1
 218 1918 l 1,20,21
484 472 m 2,32,33
 486 406 486 406 532 361 c 128,-1,34
 578 316 578 316 636 312 c 1,35,-1
 668 312 l 1,36,37
 726 316 726 316 772 361 c 128,-1,38
 818 406 818 406 820 472 c 2,39,-1
 820 1204 l 2,40,41
 818 1270 818 1270 772 1315 c 128,-1,42
 726 1360 726 1360 668 1364 c 1,43,-1
 636 1364 l 1,44,45
 578 1360 578 1360 532 1315 c 128,-1,46
 486 1270 486 1270 484 1204 c 2,47,-1
 484 472 l 2,32,33
EndSplineSet
Validated: 33
EndChar

StartChar: ocircumflex
Encoding: 244 244 182
Width: 1304
GlyphClass: 2
Flags: W
LayerCount: 2
Fore
SplineSet
80 436 m 1,0,-1
 80 1240 l 1,1,2
 86 1336 86 1336 157 1445 c 128,-1,3
 228 1554 228 1554 340 1614 c 128,-1,4
 452 1674 452 1674 556 1676 c 2,5,-1
 726 1676 l 2,6,7
 852 1674 852 1674 964 1614 c 128,-1,8
 1076 1554 1076 1554 1147 1445 c 128,-1,9
 1218 1336 1218 1336 1224 1240 c 1,10,-1
 1224 436 l 1,11,12
 1218 340 1218 340 1147 231 c 128,-1,13
 1076 122 1076 122 964 62 c 128,-1,14
 852 2 852 2 726 0 c 2,15,-1
 556 0 l 2,16,17
 452 2 452 2 340 62 c 128,-1,18
 228 122 228 122 157 231 c 128,-1,19
 86 340 86 340 80 436 c 1,0,-1
240 1900 m 1,20,21
 238 2016 238 2016 344 2060 c 1,22,-1
 580 2182 l 1,23,24
 644 2200 644 2200 712 2182 c 1,25,-1
 948 2060 l 1,26,27
 1054 2016 1054 2016 1052 1900 c 1,28,-1
 1028 1828 l 1,29,30
 978 1730 978 1730 844 1770 c 1,31,-1
 646 1870 l 1,32,-1
 448 1770 l 1,33,34
 314 1730 314 1730 264 1828 c 1,35,-1
 240 1900 l 1,20,21
484 472 m 2,36,37
 486 406 486 406 532 361 c 128,-1,38
 578 316 578 316 636 312 c 1,39,-1
 668 312 l 1,40,41
 726 316 726 316 772 361 c 128,-1,42
 818 406 818 406 820 472 c 2,43,-1
 820 1204 l 2,44,45
 818 1270 818 1270 772 1315 c 128,-1,46
 726 1360 726 1360 668 1364 c 1,47,-1
 636 1364 l 1,48,49
 578 1360 578 1360 532 1315 c 128,-1,50
 486 1270 486 1270 484 1204 c 2,51,-1
 484 472 l 2,36,37
EndSplineSet
Validated: 33
EndChar

StartChar: otilde
Encoding: 245 245 183
Width: 1304
GlyphClass: 2
Flags: W
LayerCount: 2
Fore
SplineSet
80 436 m 1,0,-1
 80 1240 l 1,1,2
 86 1336 86 1336 157 1445 c 128,-1,3
 228 1554 228 1554 340 1614 c 128,-1,4
 452 1674 452 1674 556 1676 c 2,5,-1
 726 1676 l 2,6,7
 852 1674 852 1674 964 1614 c 128,-1,8
 1076 1554 1076 1554 1147 1445 c 128,-1,9
 1218 1336 1218 1336 1224 1240 c 1,10,-1
 1224 436 l 1,11,12
 1218 340 1218 340 1147 231 c 128,-1,13
 1076 122 1076 122 964 62 c 128,-1,14
 852 2 852 2 726 0 c 2,15,-1
 556 0 l 2,16,17
 452 2 452 2 340 62 c 128,-1,18
 228 122 228 122 157 231 c 128,-1,19
 86 340 86 340 80 436 c 1,0,-1
224 1880 m 1,20,21
 206 1990 206 1990 320 2056 c 1,22,-1
 480 2160 l 2,23,24
 540 2196 540 2196 608 2178 c 1,25,-1
 754 2080 l 1,26,-1
 876 2170 l 1,27,28
 1010 2210 1010 2210 1060 2112 c 1,29,-1
 1084 2040 l 1,30,31
 1086 1924 1086 1924 980 1880 c 1,32,-1
 814 1768 l 1,33,34
 750 1746 750 1746 684 1766 c 1,35,-1
 552 1858 l 1,36,-1
 424 1766 l 1,37,38
 300 1714 300 1714 256 1808 c 2,39,-1
 224 1880 l 1,20,21
484 472 m 2,40,41
 486 406 486 406 532 361 c 128,-1,42
 578 316 578 316 636 312 c 1,43,-1
 668 312 l 1,44,45
 726 316 726 316 772 361 c 128,-1,46
 818 406 818 406 820 472 c 2,47,-1
 820 1204 l 2,48,49
 818 1270 818 1270 772 1315 c 128,-1,50
 726 1360 726 1360 668 1364 c 1,51,-1
 636 1364 l 1,52,53
 578 1360 578 1360 532 1315 c 128,-1,54
 486 1270 486 1270 484 1204 c 2,55,-1
 484 472 l 2,40,41
EndSplineSet
Validated: 33
EndChar

StartChar: odieresis
Encoding: 246 246 184
Width: 1304
GlyphClass: 2
Flags: W
LayerCount: 2
Fore
SplineSet
80 436 m 1,0,-1
 80 1240 l 1,1,2
 86 1336 86 1336 157 1445 c 128,-1,3
 228 1554 228 1554 340 1614 c 128,-1,4
 452 1674 452 1674 556 1676 c 2,5,-1
 726 1676 l 2,6,7
 852 1674 852 1674 964 1614 c 128,-1,8
 1076 1554 1076 1554 1147 1445 c 128,-1,9
 1218 1336 1218 1336 1224 1240 c 1,10,-1
 1224 436 l 1,11,12
 1218 340 1218 340 1147 231 c 128,-1,13
 1076 122 1076 122 964 62 c 128,-1,14
 852 2 852 2 726 0 c 2,15,-1
 556 0 l 2,16,17
 452 2 452 2 340 62 c 128,-1,18
 228 122 228 122 157 231 c 128,-1,19
 86 340 86 340 80 436 c 1,0,-1
152 1974 m 256,20,21
 152 2062 152 2062 213 2123 c 128,-1,22
 274 2184 274 2184 362 2184 c 256,23,24
 450 2184 450 2184 511 2123 c 128,-1,25
 572 2062 572 2062 572 1974 c 256,26,27
 572 1886 572 1886 511 1825 c 128,-1,28
 450 1764 450 1764 362 1764 c 256,29,30
 274 1764 274 1764 213 1825 c 128,-1,31
 152 1886 152 1886 152 1974 c 256,20,21
484 472 m 2,32,33
 486 406 486 406 532 361 c 128,-1,34
 578 316 578 316 636 312 c 1,35,-1
 668 312 l 1,36,37
 726 316 726 316 772 361 c 128,-1,38
 818 406 818 406 820 472 c 2,39,-1
 820 1204 l 2,40,41
 818 1270 818 1270 772 1315 c 128,-1,42
 726 1360 726 1360 668 1364 c 1,43,-1
 636 1364 l 1,44,45
 578 1360 578 1360 532 1315 c 128,-1,46
 486 1270 486 1270 484 1204 c 2,47,-1
 484 472 l 2,32,33
732 1974 m 256,48,49
 732 2062 732 2062 793 2123 c 128,-1,50
 854 2184 854 2184 942 2184 c 256,51,52
 1030 2184 1030 2184 1091 2123 c 128,-1,53
 1152 2062 1152 2062 1152 1974 c 256,54,55
 1152 1886 1152 1886 1091 1825 c 128,-1,56
 1030 1764 1030 1764 942 1764 c 256,57,58
 854 1764 854 1764 793 1825 c 128,-1,59
 732 1886 732 1886 732 1974 c 256,48,49
EndSplineSet
Validated: 1
EndChar

StartChar: divide
Encoding: 247 247 185
Width: 1096
GlyphClass: 2
Flags: W
LayerCount: 2
Fore
SplineSet
88 808 m 1,0,-1
 88 868 l 1,1,2
 120 998 120 998 264 996 c 2,3,-1
 832 996 l 2,4,5
 976 998 976 998 1008 868 c 1,6,-1
 1008 808 l 1,7,8
 976 678 976 678 832 680 c 2,9,-1
 264 680 l 2,10,11
 120 678 120 678 88 808 c 1,0,-1
388 396 m 256,12,13
 388 464 388 464 434 512 c 128,-1,14
 480 560 480 560 546 560 c 256,15,16
 612 560 612 560 658 512 c 128,-1,17
 704 464 704 464 704 396 c 256,18,19
 704 328 704 328 658 280 c 128,-1,20
 612 232 612 232 546 232 c 256,21,22
 480 232 480 232 434 280 c 128,-1,23
 388 328 388 328 388 396 c 256,12,13
388 1280 m 256,24,25
 388 1348 388 1348 434 1396 c 128,-1,26
 480 1444 480 1444 546 1444 c 256,27,28
 612 1444 612 1444 658 1396 c 128,-1,29
 704 1348 704 1348 704 1280 c 256,30,31
 704 1212 704 1212 658 1164 c 128,-1,32
 612 1116 612 1116 546 1116 c 256,33,34
 480 1116 480 1116 434 1164 c 128,-1,35
 388 1212 388 1212 388 1280 c 256,24,25
EndSplineSet
Validated: 33
EndChar

StartChar: oslash
Encoding: 248 248 186
Width: 1316
GlyphClass: 2
Flags: W
LayerCount: 2
Fore
SplineSet
80 436 m 1,0,-1
 80 1240 l 1,1,2
 86 1336 86 1336 157 1445 c 128,-1,3
 228 1554 228 1554 340 1614 c 128,-1,4
 452 1674 452 1674 556 1676 c 2,5,-1
 612 1676 l 1,6,7
 624 1732 624 1732 654 1768 c 0,8,9
 688 1808 688 1808 765 1797 c 128,-1,10
 842 1786 842 1786 868 1736 c 0,11,12
 888 1698 888 1698 890 1650 c 1,13,14
 934 1636 934 1636 976 1614 c 0,15,16
 1088 1554 1088 1554 1159 1445 c 128,-1,17
 1230 1336 1230 1336 1236 1240 c 1,18,-1
 1236 436 l 1,19,20
 1230 340 1230 340 1159 231 c 128,-1,21
 1088 122 1088 122 976 62 c 128,-1,22
 864 2 864 2 738 0 c 2,23,-1
 710 0 l 1,24,25
 700 -58 700 -58 668 -96 c 0,26,27
 630 -138 630 -138 554 -124 c 128,-1,28
 478 -110 478 -110 454 -62 c 0,29,30
 434 -24 434 -24 432 22 c 1,31,32
 386 38 386 38 340 62 c 0,33,34
 228 122 228 122 157 231 c 128,-1,35
 86 340 86 340 80 436 c 1,0,-1
476 458 m 1,36,-1
 576 1348 l 1,37,38
 550 1336 550 1336 528 1316 c 0,39,40
 478 1270 478 1270 476 1204 c 2,41,-1
 476 472 l 2,42,43
 476 466 476 466 476 458 c 1,36,-1
748 330 m 1,44,45
 772 340 772 340 794 362 c 0,46,47
 842 406 842 406 844 472 c 2,48,-1
 844 1202 l 1,49,-1
 748 330 l 1,44,45
EndSplineSet
Validated: 33
EndChar

StartChar: ugrave
Encoding: 249 249 187
Width: 1304
GlyphClass: 2
Flags: W
LayerCount: 2
Fore
SplineSet
80 436 m 1,0,-1
 80 1516 l 2,1,2
 82 1582 82 1582 128 1627 c 128,-1,3
 174 1672 174 1672 232 1676 c 1,4,-1
 324 1676 l 1,5,6
 382 1672 382 1672 428 1627 c 128,-1,7
 474 1582 474 1582 476 1516 c 2,8,-1
 476 472 l 1,9,10
 486 406 486 406 532 361 c 128,-1,11
 578 316 578 316 636 312 c 1,12,-1
 668 312 l 1,13,14
 726 316 726 316 772 361 c 128,-1,15
 818 406 818 406 820 472 c 2,16,-1
 820 1516 l 2,17,18
 822 1582 822 1582 868 1627 c 128,-1,19
 914 1672 914 1672 972 1676 c 1,20,-1
 1072 1676 l 1,21,22
 1130 1672 1130 1672 1176 1627 c 128,-1,23
 1222 1582 1222 1582 1224 1516 c 2,24,-1
 1224 436 l 1,25,26
 1218 340 1218 340 1147 231 c 128,-1,27
 1076 122 1076 122 964 62 c 128,-1,28
 852 2 852 2 748 0 c 2,29,-1
 576 0 l 2,30,31
 452 2 452 2 340 62 c 128,-1,32
 228 122 228 122 157 231 c 128,-1,33
 86 340 86 340 80 436 c 1,0,-1
218 2038 m 1,34,-1
 234 2098 l 1,35,36
 290 2220 290 2220 432 2186 c 2,37,-1
 928 2080 l 2,38,39
 1068 2052 1068 2052 1074 1918 c 1,40,-1
 1058 1858 l 1,41,42
 1002 1736 1002 1736 860 1770 c 2,43,-1
 364 1876 l 2,44,45
 224 1904 224 1904 218 2038 c 1,34,-1
EndSplineSet
Validated: 33
EndChar

StartChar: uacute
Encoding: 250 250 188
Width: 1304
GlyphClass: 2
Flags: W
LayerCount: 2
Fore
SplineSet
80 436 m 1,0,-1
 80 1516 l 2,1,2
 82 1582 82 1582 128 1627 c 128,-1,3
 174 1672 174 1672 232 1676 c 1,4,-1
 324 1676 l 1,5,6
 382 1672 382 1672 428 1627 c 128,-1,7
 474 1582 474 1582 476 1516 c 2,8,-1
 476 472 l 1,9,10
 486 406 486 406 532 361 c 128,-1,11
 578 316 578 316 636 312 c 1,12,-1
 668 312 l 1,13,14
 726 316 726 316 772 361 c 128,-1,15
 818 406 818 406 820 472 c 2,16,-1
 820 1516 l 2,17,18
 822 1582 822 1582 868 1627 c 128,-1,19
 914 1672 914 1672 972 1676 c 1,20,-1
 1072 1676 l 1,21,22
 1130 1672 1130 1672 1176 1627 c 128,-1,23
 1222 1582 1222 1582 1224 1516 c 2,24,-1
 1224 436 l 1,25,26
 1218 340 1218 340 1147 231 c 128,-1,27
 1076 122 1076 122 964 62 c 128,-1,28
 852 2 852 2 748 0 c 2,29,-1
 576 0 l 2,30,31
 452 2 452 2 340 62 c 128,-1,32
 228 122 228 122 157 231 c 128,-1,33
 86 340 86 340 80 436 c 1,0,-1
218 1918 m 1,34,35
 224 2052 224 2052 364 2080 c 2,36,-1
 860 2186 l 2,37,38
 1002 2220 1002 2220 1058 2098 c 1,39,-1
 1074 2038 l 1,40,41
 1068 1904 1068 1904 928 1876 c 2,42,-1
 432 1770 l 2,43,44
 290 1736 290 1736 234 1858 c 1,45,-1
 218 1918 l 1,34,35
EndSplineSet
Validated: 33
EndChar

StartChar: ucircumflex
Encoding: 251 251 189
Width: 1304
GlyphClass: 2
Flags: W
LayerCount: 2
Fore
SplineSet
80 436 m 1,0,-1
 80 1516 l 2,1,2
 82 1582 82 1582 128 1627 c 128,-1,3
 174 1672 174 1672 232 1676 c 1,4,-1
 324 1676 l 1,5,6
 382 1672 382 1672 428 1627 c 128,-1,7
 474 1582 474 1582 476 1516 c 2,8,-1
 476 472 l 1,9,10
 486 406 486 406 532 361 c 128,-1,11
 578 316 578 316 636 312 c 1,12,-1
 668 312 l 1,13,14
 726 316 726 316 772 361 c 128,-1,15
 818 406 818 406 820 472 c 2,16,-1
 820 1516 l 2,17,18
 822 1582 822 1582 868 1627 c 128,-1,19
 914 1672 914 1672 972 1676 c 1,20,-1
 1072 1676 l 1,21,22
 1130 1672 1130 1672 1176 1627 c 128,-1,23
 1222 1582 1222 1582 1224 1516 c 2,24,-1
 1224 436 l 1,25,26
 1218 340 1218 340 1147 231 c 128,-1,27
 1076 122 1076 122 964 62 c 128,-1,28
 852 2 852 2 748 0 c 2,29,-1
 576 0 l 2,30,31
 452 2 452 2 340 62 c 128,-1,32
 228 122 228 122 157 231 c 128,-1,33
 86 340 86 340 80 436 c 1,0,-1
240 1900 m 1,34,35
 238 2016 238 2016 344 2060 c 1,36,-1
 580 2182 l 1,37,38
 644 2200 644 2200 712 2182 c 1,39,-1
 948 2060 l 1,40,41
 1054 2016 1054 2016 1052 1900 c 1,42,-1
 1028 1828 l 1,43,44
 978 1730 978 1730 844 1770 c 1,45,-1
 646 1870 l 1,46,-1
 448 1770 l 1,47,48
 314 1730 314 1730 264 1828 c 1,49,-1
 240 1900 l 1,34,35
EndSplineSet
Validated: 33
EndChar

StartChar: udieresis
Encoding: 252 252 190
Width: 1304
GlyphClass: 2
Flags: W
LayerCount: 2
Fore
SplineSet
80 436 m 1,0,-1
 80 1516 l 2,1,2
 82 1582 82 1582 128 1627 c 128,-1,3
 174 1672 174 1672 232 1676 c 1,4,-1
 324 1676 l 1,5,6
 382 1672 382 1672 428 1627 c 128,-1,7
 474 1582 474 1582 476 1516 c 2,8,-1
 476 472 l 1,9,10
 486 406 486 406 532 361 c 128,-1,11
 578 316 578 316 636 312 c 1,12,-1
 668 312 l 1,13,14
 726 316 726 316 772 361 c 128,-1,15
 818 406 818 406 820 472 c 2,16,-1
 820 1516 l 2,17,18
 822 1582 822 1582 868 1627 c 128,-1,19
 914 1672 914 1672 972 1676 c 1,20,-1
 1072 1676 l 1,21,22
 1130 1672 1130 1672 1176 1627 c 128,-1,23
 1222 1582 1222 1582 1224 1516 c 2,24,-1
 1224 436 l 1,25,26
 1218 340 1218 340 1147 231 c 128,-1,27
 1076 122 1076 122 964 62 c 128,-1,28
 852 2 852 2 748 0 c 2,29,-1
 576 0 l 2,30,31
 452 2 452 2 340 62 c 128,-1,32
 228 122 228 122 157 231 c 128,-1,33
 86 340 86 340 80 436 c 1,0,-1
152 1974 m 256,34,35
 152 2062 152 2062 213 2123 c 128,-1,36
 274 2184 274 2184 362 2184 c 256,37,38
 450 2184 450 2184 511 2123 c 128,-1,39
 572 2062 572 2062 572 1974 c 256,40,41
 572 1886 572 1886 511 1825 c 128,-1,42
 450 1764 450 1764 362 1764 c 256,43,44
 274 1764 274 1764 213 1825 c 128,-1,45
 152 1886 152 1886 152 1974 c 256,34,35
732 1974 m 256,46,47
 732 2062 732 2062 793 2123 c 128,-1,48
 854 2184 854 2184 942 2184 c 256,49,50
 1030 2184 1030 2184 1091 2123 c 128,-1,51
 1152 2062 1152 2062 1152 1974 c 256,52,53
 1152 1886 1152 1886 1091 1825 c 128,-1,54
 1030 1764 1030 1764 942 1764 c 256,55,56
 854 1764 854 1764 793 1825 c 128,-1,57
 732 1886 732 1886 732 1974 c 256,46,47
EndSplineSet
Validated: 1
EndChar

StartChar: yacute
Encoding: 253 253 191
Width: 1260
GlyphClass: 2
Flags: W
LayerCount: 2
Fore
SplineSet
82 1520 m 1,0,1
 60 1582 60 1582 104 1631 c 128,-1,2
 148 1680 148 1680 218 1676 c 1,3,-1
 302 1676 l 2,4,5
 396 1674 396 1674 434 1604 c 1,6,-1
 630 1172 l 1,7,-1
 826 1604 l 1,8,9
 864 1674 864 1674 958 1676 c 2,10,-1
 1042 1676 l 1,11,12
 1112 1680 1112 1680 1156 1631 c 128,-1,13
 1200 1582 1200 1582 1178 1520 c 1,14,-1
 828 744 l 1,15,-1
 828 160 l 2,16,17
 826 94 826 94 780 49 c 128,-1,18
 734 4 734 4 676 0 c 1,19,-1
 582 0 l 1,20,21
 526 4 526 4 480 49 c 128,-1,22
 434 94 434 94 432 160 c 2,23,-1
 432 744 l 1,24,-1
 82 1520 l 1,0,1
206 1914 m 1,25,26
 212 2048 212 2048 352 2076 c 2,27,-1
 848 2182 l 2,28,29
 990 2216 990 2216 1046 2094 c 1,30,-1
 1062 2034 l 1,31,32
 1056 1900 1056 1900 916 1872 c 2,33,-1
 420 1766 l 2,34,35
 278 1732 278 1732 222 1854 c 1,36,-1
 206 1914 l 1,25,26
EndSplineSet
Validated: 33
EndChar

StartChar: ydieresis
Encoding: 255 255 193
Width: 1260
GlyphClass: 2
Flags: W
LayerCount: 2
Fore
SplineSet
82 1520 m 1,0,1
 60 1582 60 1582 104 1631 c 128,-1,2
 148 1680 148 1680 218 1676 c 1,3,-1
 302 1676 l 2,4,5
 396 1674 396 1674 434 1604 c 1,6,-1
 630 1172 l 1,7,-1
 826 1604 l 1,8,9
 864 1674 864 1674 958 1676 c 2,10,-1
 1042 1676 l 1,11,12
 1112 1680 1112 1680 1156 1631 c 128,-1,13
 1200 1582 1200 1582 1178 1520 c 1,14,-1
 828 744 l 1,15,-1
 828 160 l 2,16,17
 826 94 826 94 780 49 c 128,-1,18
 734 4 734 4 676 0 c 1,19,-1
 582 0 l 1,20,21
 526 4 526 4 480 49 c 128,-1,22
 434 94 434 94 432 160 c 2,23,-1
 432 744 l 1,24,-1
 82 1520 l 1,0,1
132 1970 m 256,25,26
 132 2058 132 2058 193 2119 c 128,-1,27
 254 2180 254 2180 342 2180 c 256,28,29
 430 2180 430 2180 491 2119 c 128,-1,30
 552 2058 552 2058 552 1970 c 256,31,32
 552 1882 552 1882 491 1821 c 128,-1,33
 430 1760 430 1760 342 1760 c 256,34,35
 254 1760 254 1760 193 1821 c 128,-1,36
 132 1882 132 1882 132 1970 c 256,25,26
712 1970 m 256,37,38
 712 2058 712 2058 773 2119 c 128,-1,39
 834 2180 834 2180 922 2180 c 256,40,41
 1010 2180 1010 2180 1071 2119 c 128,-1,42
 1132 2058 1132 2058 1132 1970 c 256,43,44
 1132 1882 1132 1882 1071 1821 c 128,-1,45
 1010 1760 1010 1760 922 1760 c 256,46,47
 834 1760 834 1760 773 1821 c 128,-1,48
 712 1882 712 1882 712 1970 c 256,37,38
EndSplineSet
Validated: 33
EndChar

StartChar: Ydieresis
Encoding: 376 376 196
Width: 1260
GlyphClass: 2
Flags: W
LayerCount: 2
Fore
SplineSet
82 1520 m 1,0,1
 60 1582 60 1582 104 1631 c 128,-1,2
 148 1680 148 1680 218 1676 c 1,3,-1
 302 1676 l 2,4,5
 396 1674 396 1674 434 1604 c 1,6,-1
 630 1172 l 1,7,-1
 826 1604 l 1,8,9
 864 1674 864 1674 958 1676 c 2,10,-1
 1042 1676 l 1,11,12
 1112 1680 1112 1680 1156 1631 c 128,-1,13
 1200 1582 1200 1582 1178 1520 c 1,14,-1
 828 744 l 1,15,-1
 828 160 l 2,16,17
 826 94 826 94 780 49 c 128,-1,18
 734 4 734 4 676 0 c 1,19,-1
 582 0 l 1,20,21
 526 4 526 4 480 49 c 128,-1,22
 434 94 434 94 432 160 c 2,23,-1
 432 744 l 1,24,-1
 82 1520 l 1,0,1
132 1970 m 256,25,26
 132 2058 132 2058 193 2119 c 128,-1,27
 254 2180 254 2180 342 2180 c 256,28,29
 430 2180 430 2180 491 2119 c 128,-1,30
 552 2058 552 2058 552 1970 c 256,31,32
 552 1882 552 1882 491 1821 c 128,-1,33
 430 1760 430 1760 342 1760 c 256,34,35
 254 1760 254 1760 193 1821 c 128,-1,36
 132 1882 132 1882 132 1970 c 256,25,26
712 1970 m 256,37,38
 712 2058 712 2058 773 2119 c 128,-1,39
 834 2180 834 2180 922 2180 c 256,40,41
 1010 2180 1010 2180 1071 2119 c 128,-1,42
 1132 2058 1132 2058 1132 1970 c 256,43,44
 1132 1882 1132 1882 1071 1821 c 128,-1,45
 1010 1760 1010 1760 922 1760 c 256,46,47
 834 1760 834 1760 773 1821 c 128,-1,48
 712 1882 712 1882 712 1970 c 256,37,38
EndSplineSet
Validated: 33
EndChar

StartChar: circumflex
Encoding: 710 710 197
Width: 1256
GlyphClass: 2
Flags: W
LayerCount: 2
Fore
SplineSet
222 1900 m 1,0,1
 220 2016 220 2016 326 2060 c 1,2,-1
 562 2182 l 1,3,4
 626 2200 626 2200 694 2182 c 1,5,-1
 930 2060 l 1,6,7
 1036 2016 1036 2016 1034 1900 c 1,8,-1
 1010 1828 l 1,9,10
 960 1730 960 1730 826 1770 c 1,11,-1
 628 1870 l 1,12,-1
 430 1770 l 1,13,14
 296 1730 296 1730 246 1828 c 1,15,-1
 222 1900 l 1,0,1
EndSplineSet
Validated: 33
EndChar

StartChar: tilde
Encoding: 732 732 198
Width: 1256
GlyphClass: 2
Flags: W
LayerCount: 2
Fore
SplineSet
206 1880 m 1,0,1
 188 1990 188 1990 302 2056 c 1,2,-1
 462 2160 l 2,3,4
 522 2196 522 2196 590 2178 c 1,5,-1
 736 2080 l 1,6,-1
 858 2170 l 1,7,8
 992 2210 992 2210 1042 2112 c 1,9,-1
 1066 2040 l 1,10,11
 1068 1924 1068 1924 962 1880 c 1,12,-1
 796 1768 l 1,13,14
 732 1746 732 1746 666 1766 c 1,15,-1
 534 1858 l 1,16,-1
 406 1766 l 1,17,18
 282 1714 282 1714 238 1808 c 2,19,-1
 206 1880 l 1,0,1
EndSplineSet
Validated: 33
EndChar

StartChar: uni2010
Encoding: 8208 8208 210
Width: 1096
GlyphClass: 2
Flags: W
LayerCount: 2
Fore
SplineSet
88 808 m 1,0,-1
 88 868 l 1,1,2
 120 998 120 998 264 996 c 2,3,-1
 832 996 l 2,4,5
 976 998 976 998 1008 868 c 1,6,-1
 1008 808 l 1,7,8
 976 678 976 678 832 680 c 2,9,-1
 264 680 l 2,10,11
 120 678 120 678 88 808 c 1,0,-1
EndSplineSet
Validated: 33
EndChar

StartChar: uni2011
Encoding: 8209 8209 211
Width: 1096
GlyphClass: 2
Flags: W
LayerCount: 2
Fore
SplineSet
88 808 m 1,0,-1
 88 868 l 1,1,2
 120 998 120 998 264 996 c 2,3,-1
 832 996 l 2,4,5
 976 998 976 998 1008 868 c 1,6,-1
 1008 808 l 1,7,8
 976 678 976 678 832 680 c 2,9,-1
 264 680 l 2,10,11
 120 678 120 678 88 808 c 1,0,-1
EndSplineSet
Validated: 33
EndChar

StartChar: figuredash
Encoding: 8210 8210 212
Width: 1096
GlyphClass: 2
Flags: W
LayerCount: 2
Fore
SplineSet
88 808 m 1,0,-1
 88 868 l 1,1,2
 120 998 120 998 264 996 c 2,3,-1
 832 996 l 2,4,5
 976 998 976 998 1008 868 c 1,6,-1
 1008 808 l 1,7,8
 976 678 976 678 832 680 c 2,9,-1
 264 680 l 2,10,11
 120 678 120 678 88 808 c 1,0,-1
EndSplineSet
Validated: 33
EndChar

StartChar: quoteleft
Encoding: 8216 8216 215
Width: 492
GlyphClass: 2
Flags: W
LayerCount: 2
Fore
SplineSet
88 1516 m 256,0,1
 88 1584 88 1584 131 1639 c 128,-1,2
 174 1694 174 1694 266 1742 c 128,-1,3
 358 1790 358 1790 413 1769 c 128,-1,4
 468 1748 468 1748 431 1669 c 128,-1,5
 394 1590 394 1590 404 1516 c 1,6,7
 404 1448 404 1448 358 1400 c 128,-1,8
 312 1352 312 1352 246 1352 c 256,9,10
 180 1352 180 1352 134 1400 c 128,-1,11
 88 1448 88 1448 88 1516 c 256,0,1
EndSplineSet
Validated: 33
EndChar

StartChar: quoteright
Encoding: 8217 8217 216
Width: 492
GlyphClass: 2
Flags: W
LayerCount: 2
Fore
SplineSet
61 1459 m 128,-1,1
 98 1538 98 1538 88 1612 c 1,2,3
 88 1680 88 1680 134 1728 c 128,-1,4
 180 1776 180 1776 246 1776 c 256,5,6
 312 1776 312 1776 358 1728 c 128,-1,7
 404 1680 404 1680 404 1612 c 256,8,9
 404 1544 404 1544 361 1489 c 128,-1,10
 318 1434 318 1434 226 1386 c 128,-1,11
 134 1338 134 1338 79 1359 c 128,-1,0
 24 1380 24 1380 61 1459 c 128,-1,1
EndSplineSet
Validated: 33
EndChar

StartChar: quotesinglbase
Encoding: 8218 8218 217
Width: 492
GlyphClass: 2
Flags: W
LayerCount: 2
Fore
SplineSet
61 15 m 128,-1,1
 98 94 98 94 88 168 c 1,2,3
 88 236 88 236 134 284 c 128,-1,4
 180 332 180 332 246 332 c 256,5,6
 312 332 312 332 358 284 c 128,-1,7
 404 236 404 236 404 168 c 256,8,9
 404 100 404 100 361 45 c 128,-1,10
 318 -10 318 -10 226 -58 c 128,-1,11
 134 -106 134 -106 79 -85 c 128,-1,0
 24 -64 24 -64 61 15 c 128,-1,1
EndSplineSet
Validated: 33
EndChar

StartChar: quotedblleft
Encoding: 8220 8220 218
Width: 714
GlyphClass: 2
Flags: W
LayerCount: 2
Fore
SplineSet
98 1512 m 1,0,1
 98 1580 98 1580 135 1635 c 128,-1,2
 172 1690 172 1690 240 1740 c 128,-1,3
 308 1790 308 1790 355 1769 c 128,-1,4
 402 1748 402 1748 365 1669 c 128,-1,5
 328 1590 328 1590 338 1516 c 0,6,7
 344 1444 344 1444 312 1397 c 128,-1,8
 280 1350 280 1350 220 1352 c 1,9,10
 158 1346 158 1346 125 1392 c 128,-1,11
 92 1438 92 1438 98 1512 c 1,0,1
386 1512 m 1,12,13
 386 1580 386 1580 423 1635 c 128,-1,14
 460 1690 460 1690 528 1740 c 128,-1,15
 596 1790 596 1790 643 1769 c 128,-1,16
 690 1748 690 1748 653 1669 c 128,-1,17
 616 1590 616 1590 626 1516 c 0,18,19
 632 1444 632 1444 600 1397 c 128,-1,20
 568 1350 568 1350 508 1352 c 1,21,22
 446 1346 446 1346 413 1392 c 128,-1,23
 380 1438 380 1438 386 1512 c 1,12,13
EndSplineSet
Validated: 33
EndChar

StartChar: quotedblright
Encoding: 8221 8221 219
Width: 714
GlyphClass: 2
Flags: W
LayerCount: 2
Fore
SplineSet
61 1459 m 128,-1,1
 98 1538 98 1538 88 1612 c 0,2,3
 82 1684 82 1684 114 1731 c 128,-1,4
 146 1778 146 1778 206 1776 c 1,5,6
 268 1782 268 1782 301 1736 c 128,-1,7
 334 1690 334 1690 328 1616 c 1,8,9
 328 1548 328 1548 291 1493 c 128,-1,10
 254 1438 254 1438 186 1388 c 128,-1,11
 118 1338 118 1338 71 1359 c 128,-1,0
 24 1380 24 1380 61 1459 c 128,-1,1
349 1459 m 128,-1,13
 386 1538 386 1538 376 1612 c 0,14,15
 370 1684 370 1684 402 1731 c 128,-1,16
 434 1778 434 1778 494 1776 c 1,17,18
 556 1782 556 1782 589 1736 c 128,-1,19
 622 1690 622 1690 616 1616 c 1,20,21
 616 1548 616 1548 579 1493 c 128,-1,22
 542 1438 542 1438 474 1388 c 128,-1,23
 406 1338 406 1338 359 1359 c 128,-1,12
 312 1380 312 1380 349 1459 c 128,-1,13
EndSplineSet
Validated: 33
EndChar

StartChar: quotedblbase
Encoding: 8222 8222 220
Width: 714
GlyphClass: 2
Flags: W
LayerCount: 2
Fore
SplineSet
61 15 m 128,-1,1
 98 94 98 94 88 168 c 0,2,3
 82 240 82 240 114 287 c 128,-1,4
 146 334 146 334 206 332 c 1,5,6
 268 338 268 338 301 292 c 128,-1,7
 334 246 334 246 328 172 c 1,8,9
 328 104 328 104 291 49 c 128,-1,10
 254 -6 254 -6 186 -56 c 128,-1,11
 118 -106 118 -106 71 -85 c 128,-1,0
 24 -64 24 -64 61 15 c 128,-1,1
349 15 m 128,-1,13
 386 94 386 94 376 168 c 0,14,15
 370 240 370 240 402 287 c 128,-1,16
 434 334 434 334 494 332 c 1,17,18
 556 338 556 338 589 292 c 128,-1,19
 622 246 622 246 616 172 c 1,20,21
 616 104 616 104 579 49 c 128,-1,22
 542 -6 542 -6 474 -56 c 128,-1,23
 406 -106 406 -106 359 -85 c 128,-1,12
 312 -64 312 -64 349 15 c 128,-1,13
EndSplineSet
Validated: 33
EndChar

StartChar: Euro
Encoding: 8364 8364 227
Width: 1484
GlyphClass: 2
Flags: W
LayerCount: 2
Fore
SplineSet
36 612 m 1,0,-1
 36 672 l 1,1,2
 68 802 68 802 212 800 c 2,3,-1
 260 800 l 1,4,-1
 260 876 l 1,5,-1
 212 876 l 2,6,7
 68 874 68 874 36 1004 c 1,8,-1
 36 1064 l 1,9,10
 68 1194 68 1194 212 1192 c 2,11,-1
 260 1192 l 1,12,-1
 260 1240 l 1,13,14
 266 1336 266 1336 337 1445 c 128,-1,15
 408 1554 408 1554 520 1614 c 128,-1,16
 632 1674 632 1674 736 1676 c 2,17,-1
 908 1676 l 2,18,19
 1032 1674 1032 1674 1144 1614 c 128,-1,20
 1256 1554 1256 1554 1327 1445 c 128,-1,21
 1398 1336 1398 1336 1404 1240 c 1,22,-1
 1404 1168 l 2,23,24
 1402 1102 1402 1102 1356 1057 c 128,-1,25
 1310 1012 1310 1012 1252 1008 c 1,26,-1
 1160 1008 l 1,27,28
 1102 1012 1102 1012 1056 1057 c 128,-1,29
 1010 1102 1010 1102 1008 1168 c 1,30,31
 998 1270 998 1270 952 1315 c 128,-1,32
 906 1360 906 1360 848 1364 c 1,33,-1
 816 1364 l 1,34,35
 758 1360 758 1360 712 1315 c 128,-1,36
 666 1270 666 1270 664 1204 c 2,37,-1
 664 1192 l 1,38,-1
 724 1192 l 2,39,40
 868 1194 868 1194 900 1064 c 1,41,-1
 900 1004 l 1,42,43
 868 874 868 874 724 876 c 2,44,-1
 664 876 l 1,45,-1
 664 800 l 1,46,-1
 724 800 l 2,47,48
 868 802 868 802 900 672 c 1,49,-1
 900 612 l 1,50,51
 868 482 868 482 724 484 c 2,52,-1
 664 484 l 1,53,-1
 664 472 l 2,54,55
 666 406 666 406 712 361 c 128,-1,56
 758 316 758 316 816 312 c 1,57,-1
 848 312 l 1,58,59
 906 316 906 316 952 361 c 128,-1,60
 998 406 998 406 1008 508 c 1,61,62
 1010 574 1010 574 1056 619 c 128,-1,63
 1102 664 1102 664 1160 668 c 1,64,-1
 1252 668 l 1,65,66
 1310 664 1310 664 1356 619 c 128,-1,67
 1402 574 1402 574 1404 508 c 2,68,-1
 1404 436 l 1,69,70
 1398 340 1398 340 1327 231 c 128,-1,71
 1256 122 1256 122 1144 62 c 128,-1,72
 1032 2 1032 2 908 0 c 2,73,-1
 736 0 l 2,74,75
 632 2 632 2 520 62 c 128,-1,76
 408 122 408 122 337 231 c 128,-1,77
 266 340 266 340 260 436 c 1,78,-1
 260 484 l 1,79,-1
 212 484 l 2,80,81
 68 482 68 482 36 612 c 1,0,-1
EndSplineSet
Validated: 33
EndChar

StartChar: uni25FC
Encoding: 9724 9724 229
Width: 1680
GlyphClass: 2
Flags: W
LayerCount: 2
Fore
SplineSet
0 0 m 1,0,-1
 0 1680 l 1,1,-1
 1680 1680 l 1,2,-1
 1680 0 l 1,3,-1
 0 0 l 1,0,-1
EndSplineSet
Validated: 1
EndChar
